<svg width="214" height="50" viewBox="0 0 214 50" fill="none" xmlns="http://www.w3.org/2000/svg">
<rect x="0.5" y="0.5" width="213" height="49" rx="24.5" fill="white"/>
<rect x="0.5" y="0.5" width="213" height="49" rx="24.5" stroke="#F3F4F6"/>
<path d="M32.0256 18.0994C31.6089 18.0994 31.2337 18.0166 30.8999 17.8509C30.5661 17.6851 30.2985 17.4579 30.0973 17.169C29.8961 16.8802 29.786 16.5511 29.767 16.1818H30.6193C30.6525 16.5109 30.8016 16.7831 31.0668 16.9986C31.3343 17.2116 31.6539 17.3182 32.0256 17.3182C32.3239 17.3182 32.589 17.2483 32.821 17.1087C33.0554 16.969 33.2389 16.7772 33.3714 16.5334C33.5064 16.2872 33.5739 16.009 33.5739 15.6989C33.5739 15.3816 33.504 15.0987 33.3643 14.8501C33.227 14.5992 33.0376 14.4015 32.7962 14.2571C32.5547 14.1127 32.2789 14.0393 31.9688 14.0369C31.7462 14.0346 31.5178 14.0689 31.2834 14.1399C31.049 14.2086 30.8561 14.2973 30.7045 14.4062L29.8807 14.3068L30.321 10.7273H34.0994V11.5085H31.0597L30.804 13.6534H30.8466C30.9957 13.535 31.1828 13.4368 31.4077 13.3587C31.6326 13.2805 31.867 13.2415 32.1108 13.2415C32.5559 13.2415 32.9524 13.348 33.3004 13.5611C33.6508 13.7718 33.9254 14.0606 34.1243 14.4276C34.3255 14.7945 34.4261 15.2135 34.4261 15.6847C34.4261 16.1487 34.322 16.563 34.1136 16.9276C33.9077 17.2898 33.6236 17.5762 33.2614 17.7869C32.8991 17.9953 32.4872 18.0994 32.0256 18.0994ZM38.009 18.0994C37.4739 18.0994 37.0182 17.9538 36.6418 17.6626C36.2654 17.3691 35.9777 16.9441 35.7789 16.3878C35.58 15.8291 35.4806 15.1544 35.4806 14.3636C35.4806 13.5777 35.58 12.9065 35.7789 12.3501C35.9801 11.7914 36.2689 11.3653 36.6453 11.0717C37.0241 10.7758 37.4787 10.6278 38.009 10.6278C38.5393 10.6278 38.9926 10.7758 39.3691 11.0717C39.7479 11.3653 40.0367 11.7914 40.2355 12.3501C40.4368 12.9065 40.5374 13.5777 40.5374 14.3636C40.5374 15.1544 40.438 15.8291 40.2391 16.3878C40.0402 16.9441 39.7526 17.3691 39.3762 17.6626C38.9998 17.9538 38.544 18.0994 38.009 18.0994ZM38.009 17.3182C38.5393 17.3182 38.9512 17.0625 39.2448 16.5511C39.5383 16.0398 39.6851 15.3106 39.6851 14.3636C39.6851 13.7339 39.6176 13.1977 39.4827 12.755C39.3501 12.3123 39.1584 11.9749 38.9074 11.7429C38.6588 11.5109 38.3594 11.3949 38.009 11.3949C37.4834 11.3949 37.0727 11.6541 36.7767 12.1726C36.4808 12.6887 36.3328 13.419 36.3328 14.3636C36.3328 14.9934 36.3991 15.5284 36.5317 15.9688C36.6643 16.4091 36.8549 16.7441 37.1034 16.9737C37.3544 17.2034 37.6562 17.3182 38.009 17.3182ZM44.059 18.0994C43.5239 18.0994 43.0682 17.9538 42.6918 17.6626C42.3154 17.3691 42.0277 16.9441 41.8289 16.3878C41.63 15.8291 41.5306 15.1544 41.5306 14.3636C41.5306 13.5777 41.63 12.9065 41.8289 12.3501C42.0301 11.7914 42.3189 11.3653 42.6953 11.0717C43.0741 10.7758 43.5287 10.6278 44.059 10.6278C44.5893 10.6278 45.0426 10.7758 45.4191 11.0717C45.7979 11.3653 46.0867 11.7914 46.2855 12.3501C46.4868 12.9065 46.5874 13.5777 46.5874 14.3636C46.5874 15.1544 46.488 15.8291 46.2891 16.3878C46.0902 16.9441 45.8026 17.3691 45.4262 17.6626C45.0498 17.9538 44.594 18.0994 44.059 18.0994ZM44.059 17.3182C44.5893 17.3182 45.0012 17.0625 45.2948 16.5511C45.5883 16.0398 45.7351 15.3106 45.7351 14.3636C45.7351 13.7339 45.6676 13.1977 45.5327 12.755C45.4001 12.3123 45.2084 11.9749 44.9574 11.7429C44.7088 11.5109 44.4094 11.3949 44.059 11.3949C43.5334 11.3949 43.1227 11.6541 42.8267 12.1726C42.5308 12.6887 42.3828 13.419 42.3828 14.3636C42.3828 14.9934 42.4491 15.5284 42.5817 15.9688C42.7143 16.4091 42.9049 16.7441 43.1534 16.9737C43.4044 17.2034 43.7062 17.3182 44.059 17.3182ZM50.3635 18V12.5455H51.1732V13.3977H51.2442C51.3578 13.1065 51.5413 12.8804 51.7946 12.7195C52.048 12.5561 52.3522 12.4744 52.7073 12.4744C53.0671 12.4744 53.3666 12.5561 53.6057 12.7195C53.8472 12.8804 54.0354 13.1065 54.1703 13.3977H54.2272C54.3668 13.116 54.5764 12.8923 54.8557 12.7266C55.1351 12.5585 55.4701 12.4744 55.8607 12.4744C56.3484 12.4744 56.7473 12.6271 57.0574 12.9325C57.3676 13.2356 57.5226 13.7079 57.5226 14.3494V18H56.6846V14.3494C56.6846 13.947 56.5745 13.6593 56.3543 13.4865C56.1341 13.3137 55.8749 13.2273 55.5766 13.2273C55.1931 13.2273 54.896 13.3433 54.6853 13.5753C54.4746 13.8049 54.3692 14.0961 54.3692 14.4489V18H53.5169V14.2642C53.5169 13.9541 53.4163 13.7043 53.2151 13.5149C53.0139 13.3232 52.7546 13.2273 52.4374 13.2273C52.2196 13.2273 52.016 13.2853 51.8266 13.4013C51.6396 13.5173 51.4881 13.6783 51.3721 13.8842C51.2584 14.0878 51.2016 14.3234 51.2016 14.5909V18H50.3635ZM58.8549 18V12.5455H59.693V18H58.8549ZM59.2811 11.6364C59.1177 11.6364 58.9769 11.5807 58.8585 11.4695C58.7425 11.3582 58.6845 11.2244 58.6845 11.0682C58.6845 10.9119 58.7425 10.7782 58.8585 10.6669C58.9769 10.5556 59.1177 10.5 59.2811 10.5C59.4444 10.5 59.5841 10.5556 59.7001 10.6669C59.8185 10.7782 59.8777 10.9119 59.8777 11.0682C59.8777 11.2244 59.8185 11.3582 59.7001 11.4695C59.5841 11.5807 59.4444 11.6364 59.2811 11.6364ZM61.8661 10.7273V18H61.028V10.7273H61.8661ZM65.488 18.1136C64.9624 18.1136 64.509 17.9976 64.1279 17.7656C63.7491 17.5312 63.4567 17.2045 63.2507 16.7855C63.0471 16.3641 62.9453 15.8741 62.9453 15.3153C62.9453 14.7566 63.0471 14.2642 63.2507 13.8381C63.4567 13.4096 63.7432 13.0758 64.1101 12.8366C64.4794 12.5952 64.9103 12.4744 65.4027 12.4744C65.6868 12.4744 65.9674 12.5218 66.2444 12.6165C66.5213 12.7112 66.7735 12.8651 67.0007 13.0781C67.228 13.2888 67.4091 13.5682 67.5441 13.9162C67.679 14.2642 67.7465 14.6927 67.7465 15.2017V15.5568H63.5419V14.8324H66.8942C66.8942 14.5246 66.8327 14.25 66.7096 14.0085C66.5888 13.767 66.416 13.5765 66.1911 13.4368C65.9685 13.2971 65.7058 13.2273 65.4027 13.2273C65.0689 13.2273 64.7801 13.3101 64.5363 13.4759C64.2948 13.6392 64.1089 13.8523 63.9787 14.1151C63.8485 14.3778 63.7834 14.6596 63.7834 14.9602V15.4432C63.7834 15.8551 63.8544 16.2043 63.9965 16.4908C64.1409 16.7749 64.3409 16.9915 64.5966 17.1406C64.8523 17.2874 65.1494 17.3608 65.488 17.3608C65.7081 17.3608 65.907 17.33 66.0846 17.2685C66.2645 17.2045 66.4195 17.1098 66.5498 16.9844C66.68 16.8565 66.7806 16.6979 66.8516 16.5085L67.6613 16.7358C67.576 17.0104 67.4328 17.2519 67.2316 17.4602C67.0303 17.6662 66.7818 17.8272 66.4858 17.9432C66.1899 18.0568 65.8573 18.1136 65.488 18.1136ZM72.685 13.767L71.9321 13.9801C71.8848 13.8546 71.815 13.7327 71.7226 13.6143C71.6327 13.4936 71.5096 13.3942 71.3533 13.3161C71.1971 13.2379 70.997 13.1989 70.7532 13.1989C70.4194 13.1989 70.1412 13.2758 69.9186 13.4297C69.6985 13.5812 69.5884 13.7741 69.5884 14.0085C69.5884 14.2169 69.6641 14.3814 69.8157 14.5021C69.9672 14.6229 70.2039 14.7235 70.5259 14.804L71.3355 15.0028C71.8232 15.1212 72.1866 15.3023 72.4257 15.5462C72.6649 15.7876 72.7844 16.099 72.7844 16.4801C72.7844 16.7926 72.6945 17.072 72.5145 17.3182C72.337 17.5644 72.0884 17.7585 71.7688 17.9006C71.4492 18.0426 71.0775 18.1136 70.6537 18.1136C70.0974 18.1136 69.6369 17.9929 69.2723 17.7514C68.9078 17.5099 68.6769 17.1572 68.5799 16.6932L69.3753 16.4943C69.4511 16.7879 69.5943 17.008 69.805 17.1548C70.0181 17.3016 70.2962 17.375 70.6395 17.375C71.0302 17.375 71.3403 17.2921 71.5699 17.1264C71.8019 16.9583 71.9179 16.7571 71.9179 16.5227C71.9179 16.3333 71.8516 16.1747 71.7191 16.0469C71.5865 15.9167 71.3829 15.8196 71.1083 15.7557L70.1992 15.5426C69.6997 15.4242 69.3327 15.2408 69.0983 14.9922C68.8663 14.7412 68.7503 14.4276 68.7503 14.0511C68.7503 13.7434 68.8367 13.4711 69.0096 13.2344C69.1847 12.9976 69.4227 12.8118 69.7233 12.6768C70.0264 12.5419 70.3696 12.4744 70.7532 12.4744C71.2929 12.4744 71.7167 12.5928 72.0245 12.8295C72.3346 13.0663 72.5548 13.3788 72.685 13.767ZM78.0636 18.1278C77.7179 18.1278 77.4042 18.0627 77.1225 17.9325C76.8408 17.8 76.6171 17.6094 76.4513 17.3608C76.2856 17.1098 76.2028 16.8068 76.2028 16.4517C76.2028 16.1392 76.2643 15.8859 76.3874 15.6918C76.5105 15.4953 76.6751 15.3414 76.881 15.2301C77.087 15.1188 77.3143 15.036 77.5629 14.9815C77.8138 14.9247 78.0659 14.8797 78.3192 14.8466C78.6507 14.804 78.9194 14.772 79.1254 14.7507C79.3337 14.727 79.4852 14.688 79.5799 14.6335C79.677 14.5791 79.7255 14.4844 79.7255 14.3494V14.321C79.7255 13.9706 79.6296 13.6984 79.4379 13.5043C79.2485 13.3101 78.9608 13.2131 78.5749 13.2131C78.1748 13.2131 77.8612 13.3007 77.6339 13.4759C77.4066 13.651 77.2468 13.8381 77.1545 14.0369L76.359 13.7528C76.5011 13.4214 76.6905 13.1634 76.9272 12.9787C77.1663 12.7917 77.4267 12.6615 77.7085 12.5881C77.9925 12.5123 78.2719 12.4744 78.5465 12.4744C78.7217 12.4744 78.9229 12.4957 79.1502 12.5384C79.3799 12.5786 79.6012 12.6626 79.8143 12.7905C80.0297 12.9183 80.2085 13.1113 80.3505 13.3693C80.4925 13.6274 80.5636 13.973 80.5636 14.4062V18H79.7255V17.2614H79.6829C79.6261 17.3797 79.5314 17.5064 79.3988 17.6413C79.2662 17.7763 79.0898 17.8911 78.8697 17.9858C78.6495 18.0805 78.3808 18.1278 78.0636 18.1278ZM78.1914 17.375C78.5228 17.375 78.8022 17.3099 79.0295 17.1797C79.2591 17.0495 79.4319 16.8814 79.5479 16.6754C79.6663 16.4695 79.7255 16.2528 79.7255 16.0256V15.2585C79.69 15.3011 79.6119 15.3402 79.4911 15.3757C79.3728 15.4089 79.2354 15.4384 79.0792 15.4645C78.9253 15.4882 78.775 15.5095 78.6282 15.5284C78.4838 15.545 78.3666 15.5592 78.2766 15.571C78.0588 15.5994 77.8552 15.6456 77.6658 15.7095C77.4788 15.7711 77.3273 15.8646 77.2113 15.9901C77.0977 16.1132 77.0408 16.2812 77.0408 16.4943C77.0408 16.7855 77.1486 17.0057 77.364 17.1548C77.5818 17.3016 77.8576 17.375 78.1914 17.375ZM83.129 18L81.4671 12.5455H82.3478L83.5267 16.7216H83.5836L84.7483 12.5455H85.6432L86.7938 16.7074H86.8506L88.0296 12.5455H88.9103L87.2483 18H86.4245L85.2313 13.8097H85.1461L83.9529 18H83.129ZM91.4233 18.1278C91.0777 18.1278 90.764 18.0627 90.4823 17.9325C90.2006 17.8 89.9768 17.6094 89.8111 17.3608C89.6454 17.1098 89.5625 16.8068 89.5625 16.4517C89.5625 16.1392 89.6241 15.8859 89.7472 15.6918C89.8703 15.4953 90.0348 15.3414 90.2408 15.2301C90.4468 15.1188 90.674 15.036 90.9226 14.9815C91.1736 14.9247 91.4257 14.8797 91.679 14.8466C92.0105 14.804 92.2792 14.772 92.4851 14.7507C92.6935 14.727 92.845 14.688 92.9397 14.6335C93.0367 14.5791 93.0853 14.4844 93.0853 14.3494V14.321C93.0853 13.9706 92.9894 13.6984 92.7976 13.5043C92.6082 13.3101 92.3206 13.2131 91.9347 13.2131C91.5346 13.2131 91.2209 13.3007 90.9936 13.4759C90.7664 13.651 90.6066 13.8381 90.5142 14.0369L89.7188 13.7528C89.8608 13.4214 90.0502 13.1634 90.287 12.9787C90.5261 12.7917 90.7865 12.6615 91.0682 12.5881C91.3523 12.5123 91.6317 12.4744 91.9063 12.4744C92.0815 12.4744 92.2827 12.4957 92.51 12.5384C92.7396 12.5786 92.961 12.6626 93.174 12.7905C93.3895 12.9183 93.5682 13.1113 93.7103 13.3693C93.8523 13.6274 93.9233 13.973 93.9233 14.4062V18H93.0853V17.2614H93.0426C92.9858 17.3797 92.8911 17.5064 92.7586 17.6413C92.626 17.7763 92.4496 17.8911 92.2294 17.9858C92.0093 18.0805 91.7406 18.1278 91.4233 18.1278ZM91.5512 17.375C91.8826 17.375 92.162 17.3099 92.3892 17.1797C92.6189 17.0495 92.7917 16.8814 92.9077 16.6754C93.0261 16.4695 93.0853 16.2528 93.0853 16.0256V15.2585C93.0498 15.3011 92.9716 15.3402 92.8509 15.3757C92.7325 15.4089 92.5952 15.4384 92.439 15.4645C92.2851 15.4882 92.1347 15.5095 91.988 15.5284C91.8435 15.545 91.7264 15.5592 91.6364 15.571C91.4186 15.5994 91.215 15.6456 91.0256 15.7095C90.8386 15.7711 90.6871 15.8646 90.5711 15.9901C90.4574 16.1132 90.4006 16.2812 90.4006 16.4943C90.4006 16.7855 90.5083 17.0057 90.7238 17.1548C90.9416 17.3016 91.2174 17.375 91.5512 17.375ZM95.5974 20.0455C95.4554 20.0455 95.3287 20.0336 95.2175 20.0099C95.1062 19.9886 95.0293 19.9673 94.9866 19.946L95.1997 19.2074C95.4033 19.2595 95.5832 19.2784 95.7395 19.2642C95.8957 19.25 96.0342 19.1802 96.155 19.0547C96.2781 18.9316 96.3905 18.7315 96.4923 18.4545L96.6486 18.0284L94.6315 12.5455H95.5406L97.0463 16.892H97.1031L98.6088 12.5455H99.5179L97.2026 18.7955C97.0984 19.0772 96.9694 19.3104 96.8155 19.495C96.6616 19.6821 96.4829 19.8205 96.2793 19.9105C96.078 20.0005 95.8508 20.0455 95.5974 20.0455Z" fill="#6C6C70"/>
<path d="M35.5376 30.6172C35.4912 30.183 35.2957 29.8449 34.951 29.603C34.6096 29.361 34.1655 29.2401 33.6186 29.2401C33.2341 29.2401 32.9044 29.2981 32.6293 29.4141C32.3542 29.5301 32.1437 29.6875 31.9979 29.8864C31.852 30.0852 31.7775 30.3123 31.7741 30.5675C31.7741 30.7796 31.8222 30.9635 31.9183 31.1193C32.0178 31.2751 32.152 31.4077 32.321 31.517C32.4901 31.6231 32.6773 31.7126 32.8828 31.7855C33.0883 31.8584 33.2955 31.9197 33.5043 31.9695L34.4588 32.2081C34.8433 32.2976 35.2128 32.4186 35.5675 32.571C35.9254 32.7235 36.2453 32.9157 36.527 33.1477C36.812 33.3797 37.0374 33.6598 37.2031 33.9879C37.3688 34.3161 37.4517 34.7005 37.4517 35.1413C37.4517 35.7379 37.2992 36.2633 36.9943 36.7173C36.6894 37.1681 36.2486 37.5211 35.6719 37.7763C35.0985 38.0282 34.4041 38.1541 33.5888 38.1541C32.7966 38.1541 32.1089 38.0315 31.5256 37.7862C30.9455 37.541 30.4915 37.183 30.1634 36.7124C29.8385 36.2417 29.6629 35.6683 29.6364 34.9922H31.451C31.4775 35.3468 31.5869 35.6418 31.7791 35.8771C31.9714 36.1125 32.2216 36.2881 32.5298 36.4041C32.8414 36.5201 33.1894 36.5781 33.5739 36.5781C33.9749 36.5781 34.3262 36.5185 34.6278 36.3991C34.9328 36.2765 35.1714 36.1075 35.3438 35.892C35.5161 35.6733 35.6039 35.4181 35.6072 35.1264C35.6039 34.8613 35.526 34.6425 35.3736 34.4702C35.2211 34.2945 35.0073 34.1487 34.7322 34.0327C34.4605 33.9134 34.1423 33.8073 33.7777 33.7145L32.6193 33.4162C31.7808 33.2008 31.1179 32.8743 30.6307 32.4368C30.1468 31.996 29.9048 31.411 29.9048 30.6818C29.9048 30.0819 30.0672 29.5566 30.392 29.1058C30.7202 28.6551 31.166 28.3054 31.7294 28.0568C32.2929 27.8049 32.9309 27.679 33.6435 27.679C34.366 27.679 34.9991 27.8049 35.5426 28.0568C36.0895 28.3054 36.5187 28.6518 36.8303 29.0959C37.1418 29.5367 37.3026 30.0438 37.3125 30.6172H35.5376ZM42.5497 30.3636V31.7557H38.1598V30.3636H42.5497ZM39.2436 28.5341H41.0433V35.7031C41.0433 35.9451 41.0798 36.1307 41.1527 36.2599C41.2289 36.3859 41.3284 36.4721 41.451 36.5185C41.5736 36.5649 41.7095 36.5881 41.8587 36.5881C41.9714 36.5881 42.0741 36.5798 42.1669 36.5632C42.263 36.5466 42.3359 36.5317 42.3857 36.5185L42.6889 37.9254C42.5928 37.9586 42.4553 37.995 42.2763 38.0348C42.1006 38.0746 41.8852 38.0978 41.63 38.1044C41.1792 38.1177 40.7732 38.0497 40.4119 37.9006C40.0507 37.7481 39.764 37.5128 39.5519 37.1946C39.343 36.8764 39.2403 36.4787 39.2436 36.0014V28.5341ZM43.7749 38V30.3636H45.5199V31.6364H45.5994C45.7387 31.1955 45.9773 30.8558 46.3154 30.6172C46.6567 30.3752 47.0462 30.2543 47.4837 30.2543C47.5831 30.2543 47.6941 30.2592 47.8168 30.2692C47.9427 30.2758 48.0471 30.2874 48.13 30.304V31.9595C48.0538 31.933 47.9328 31.9098 47.7671 31.8899C47.6047 31.8667 47.4472 31.8551 47.2948 31.8551C46.9666 31.8551 46.6717 31.9264 46.4098 32.0689C46.1513 32.2081 45.9475 32.402 45.7983 32.6506C45.6492 32.8991 45.5746 33.1858 45.5746 33.5107V38H43.7749ZM52.1119 38.1491C51.3463 38.1491 50.685 37.9901 50.1282 37.6719C49.5747 37.3504 49.1488 36.8963 48.8505 36.3097C48.5522 35.7197 48.4031 35.0253 48.4031 34.2266C48.4031 33.4411 48.5522 32.7517 48.8505 32.1584C49.1521 31.5618 49.5731 31.0978 50.1133 30.7663C50.6535 30.4316 51.2883 30.2642 52.0174 30.2642C52.4881 30.2642 52.9322 30.3404 53.3498 30.4929C53.7707 30.642 54.1419 30.8741 54.4634 31.1889C54.7883 31.5038 55.0435 31.9048 55.2291 32.392C55.4147 32.8759 55.5075 33.4527 55.5075 34.1222V34.674H49.2482V33.4609H53.7823C53.779 33.1162 53.7044 32.8097 53.5586 32.5412C53.4128 32.2694 53.2089 32.0556 52.9471 31.8999C52.6886 31.7441 52.387 31.6662 52.0423 31.6662C51.6744 31.6662 51.3512 31.7557 51.0728 31.9347C50.7944 32.1103 50.5773 32.3423 50.4215 32.6307C50.2691 32.9157 50.1912 33.2289 50.1879 33.5703V34.6293C50.1879 35.0734 50.2691 35.4545 50.4315 35.7727C50.5939 36.0876 50.8209 36.3295 51.1126 36.4986C51.4043 36.6643 51.7456 36.7472 52.1367 36.7472C52.3986 36.7472 52.6356 36.7107 52.8477 36.6378C53.0598 36.5616 53.2437 36.4505 53.3995 36.3047C53.5553 36.1589 53.673 35.9782 53.7525 35.7628L55.4329 35.9517C55.3268 36.3958 55.1247 36.7836 54.8264 37.1151C54.5314 37.4432 54.1535 37.6984 53.6928 37.8807C53.2321 38.0597 52.7052 38.1491 52.1119 38.1491ZM60.1307 38.1491C59.3651 38.1491 58.7039 37.9901 58.147 37.6719C57.5935 37.3504 57.1676 36.8963 56.8693 36.3097C56.5711 35.7197 56.4219 35.0253 56.4219 34.2266C56.4219 33.4411 56.5711 32.7517 56.8693 32.1584C57.171 31.5618 57.5919 31.0978 58.1321 30.7663C58.6724 30.4316 59.3071 30.2642 60.0362 30.2642C60.5069 30.2642 60.951 30.3404 61.3686 30.4929C61.7896 30.642 62.1608 30.8741 62.4823 31.1889C62.8071 31.5038 63.0623 31.9048 63.2479 32.392C63.4335 32.8759 63.5263 33.4527 63.5263 34.1222V34.674H57.2671V33.4609H61.8012C61.7978 33.1162 61.7233 32.8097 61.5774 32.5412C61.4316 32.2694 61.2278 32.0556 60.9659 31.8999C60.7074 31.7441 60.4058 31.6662 60.0611 31.6662C59.6932 31.6662 59.3701 31.7557 59.0916 31.9347C58.8132 32.1103 58.5961 32.3423 58.4404 32.6307C58.2879 32.9157 58.21 33.2289 58.2067 33.5703V34.6293C58.2067 35.0734 58.2879 35.4545 58.4503 35.7727C58.6127 36.0876 58.8398 36.3295 59.1314 36.4986C59.4231 36.6643 59.7645 36.7472 60.1556 36.7472C60.4174 36.7472 60.6544 36.7107 60.8665 36.6378C61.0786 36.5616 61.2626 36.4505 61.4184 36.3047C61.5741 36.1589 61.6918 35.9782 61.7713 35.7628L63.4517 35.9517C63.3457 36.3958 63.1435 36.7836 62.8452 37.1151C62.5502 37.4432 62.1724 37.6984 61.7117 37.8807C61.251 38.0597 60.724 38.1491 60.1307 38.1491ZM68.5821 30.3636V31.7557H64.1922V30.3636H68.5821ZM65.276 28.5341H67.0757V35.7031C67.0757 35.9451 67.1121 36.1307 67.185 36.2599C67.2613 36.3859 67.3607 36.4721 67.4833 36.5185C67.606 36.5649 67.7419 36.5881 67.891 36.5881C68.0037 36.5881 68.1064 36.5798 68.1993 36.5632C68.2954 36.5466 68.3683 36.5317 68.418 36.5185L68.7213 37.9254C68.6252 37.9586 68.4876 37.995 68.3086 38.0348C68.133 38.0746 67.9175 38.0978 67.6623 38.1044C67.2116 38.1177 66.8056 38.0497 66.4443 37.9006C66.083 37.7481 65.7963 37.5128 65.5842 37.1946C65.3754 36.8764 65.2726 36.4787 65.276 36.0014V28.5341ZM81.7946 31.2536H79.9352C79.8822 30.9486 79.7844 30.6785 79.6419 30.4432C79.4994 30.2045 79.3221 30.0024 79.11 29.8366C78.8978 29.6709 78.6559 29.5466 78.3841 29.4638C78.1156 29.3776 77.8256 29.3345 77.5141 29.3345C76.9606 29.3345 76.47 29.4737 76.0425 29.7521C75.6149 30.0272 75.2802 30.4316 75.0382 30.9652C74.7963 31.4955 74.6753 32.1435 74.6753 32.9091C74.6753 33.688 74.7963 34.3442 75.0382 34.8778C75.2835 35.4081 75.6182 35.8092 76.0425 36.081C76.47 36.3494 76.9589 36.4837 77.5091 36.4837C77.814 36.4837 78.0991 36.4439 78.3642 36.3643C78.6327 36.2815 78.873 36.1605 79.0851 36.0014C79.3005 35.8423 79.4812 35.6468 79.627 35.4148C79.7762 35.1828 79.8789 34.9176 79.9352 34.6193L81.7946 34.6293C81.725 35.1132 81.5742 35.5672 81.3422 35.9915C81.1135 36.4157 80.8136 36.7902 80.4423 37.1151C80.0711 37.4366 79.6369 37.6884 79.1398 37.8707C78.6426 38.0497 78.0908 38.1392 77.4842 38.1392C76.5894 38.1392 75.7906 37.9321 75.0879 37.5178C74.3853 37.1035 73.8318 36.5052 73.4274 35.723C73.0231 34.9408 72.8209 34.0028 72.8209 32.9091C72.8209 31.812 73.0247 30.8741 73.4324 30.0952C73.8401 29.313 74.3952 28.7147 75.0979 28.3004C75.8005 27.8861 76.596 27.679 77.4842 27.679C78.051 27.679 78.578 27.7585 79.0652 27.9176C79.5524 28.0767 79.9866 28.3104 80.3678 28.6186C80.7489 28.9235 81.0621 29.2981 81.3074 29.7422C81.556 30.183 81.7184 30.6868 81.7946 31.2536ZM84.9239 27.8182V38H83.1242V27.8182H84.9239ZM89.8255 38.1491C89.0798 38.1491 88.4335 37.9851 87.8866 37.657C87.3397 37.3288 86.9155 36.8698 86.6139 36.2798C86.3156 35.6899 86.1664 35.0005 86.1664 34.2116C86.1664 33.4228 86.3156 32.7318 86.6139 32.1385C86.9155 31.5452 87.3397 31.0845 87.8866 30.7564C88.4335 30.4283 89.0798 30.2642 89.8255 30.2642C90.5713 30.2642 91.2176 30.4283 91.7644 30.7564C92.3113 31.0845 92.7339 31.5452 93.0322 32.1385C93.3338 32.7318 93.4846 33.4228 93.4846 34.2116C93.4846 35.0005 93.3338 35.6899 93.0322 36.2798C92.7339 36.8698 92.3113 37.3288 91.7644 37.657C91.2176 37.9851 90.5713 38.1491 89.8255 38.1491ZM89.8355 36.7074C90.2398 36.7074 90.5779 36.5964 90.8497 36.3743C91.1215 36.1489 91.3236 35.8473 91.4562 35.4695C91.5921 35.0916 91.66 34.6707 91.66 34.2067C91.66 33.7393 91.5921 33.3168 91.4562 32.9389C91.3236 32.5578 91.1215 32.2545 90.8497 32.0291C90.5779 31.8037 90.2398 31.6911 89.8355 31.6911C89.4212 31.6911 89.0765 31.8037 88.8014 32.0291C88.5296 32.2545 88.3258 32.5578 88.1899 32.9389C88.0573 33.3168 87.991 33.7393 87.991 34.2067C87.991 34.6707 88.0573 35.0916 88.1899 35.4695C88.3258 35.8473 88.5296 36.1489 88.8014 36.3743C89.0765 36.5964 89.4212 36.7074 89.8355 36.7074ZM100.768 32.3821L99.127 32.5611C99.0806 32.3954 98.9994 32.2396 98.8834 32.0938C98.7707 31.9479 98.6183 31.8303 98.426 31.7408C98.2338 31.6513 97.9985 31.6065 97.7201 31.6065C97.3455 31.6065 97.0307 31.6877 96.7755 31.8501C96.5236 32.0125 96.3993 32.223 96.4026 32.4815C96.3993 32.7036 96.4805 32.8842 96.6462 33.0234C96.8152 33.1626 97.0936 33.277 97.4814 33.3665L98.784 33.6449C99.5065 33.8007 100.043 34.0476 100.395 34.3857C100.749 34.7237 100.928 35.1662 100.932 35.7131C100.928 36.1937 100.788 36.6179 100.509 36.9858C100.234 37.3504 99.8512 37.6354 99.3607 37.8409C98.8702 38.0464 98.3067 38.1491 97.6703 38.1491C96.7357 38.1491 95.9833 37.9536 95.4132 37.5625C94.8432 37.1681 94.5034 36.6196 94.3941 35.9169L96.149 35.7479C96.2286 36.0926 96.3976 36.3527 96.6561 36.5284C96.9147 36.7041 97.2511 36.7919 97.6654 36.7919C98.0929 36.7919 98.436 36.7041 98.6945 36.5284C98.9563 36.3527 99.0872 36.1357 99.0872 35.8771C99.0872 35.6584 99.0027 35.4777 98.8337 35.3352C98.668 35.1927 98.4095 35.0833 98.0581 35.0071L96.7556 34.7337C96.0231 34.5812 95.4812 34.3243 95.1299 33.9631C94.7785 33.5985 94.6045 33.1378 94.6078 32.581C94.6045 32.1103 94.7321 31.7027 94.9907 31.358C95.2525 31.0099 95.6154 30.7415 96.0794 30.5526C96.5468 30.3603 97.0854 30.2642 97.6952 30.2642C98.5901 30.2642 99.2944 30.4548 99.8081 30.8359C100.325 31.2171 100.645 31.7325 100.768 32.3821ZM105.516 38.1491C104.751 38.1491 104.09 37.9901 103.533 37.6719C102.979 37.3504 102.553 36.8963 102.255 36.3097C101.957 35.7197 101.808 35.0253 101.808 34.2266C101.808 33.4411 101.957 32.7517 102.255 32.1584C102.557 31.5618 102.978 31.0978 103.518 30.7663C104.058 30.4316 104.693 30.2642 105.422 30.2642C105.893 30.2642 106.337 30.3404 106.754 30.4929C107.175 30.642 107.546 30.8741 107.868 31.1889C108.193 31.5038 108.448 31.9048 108.634 32.392C108.819 32.8759 108.912 33.4527 108.912 34.1222V34.674H102.653V33.4609H107.187C107.184 33.1162 107.109 32.8097 106.963 32.5412C106.817 32.2694 106.613 32.0556 106.352 31.8999C106.093 31.7441 105.792 31.6662 105.447 31.6662C105.079 31.6662 104.756 31.7557 104.477 31.9347C104.199 32.1103 103.982 32.3423 103.826 32.6307C103.674 32.9157 103.596 33.2289 103.592 33.5703V34.6293C103.592 35.0734 103.674 35.4545 103.836 35.7727C103.998 36.0876 104.225 36.3295 104.517 36.4986C104.809 36.6643 105.15 36.7472 105.541 36.7472C105.803 36.7472 106.04 36.7107 106.252 36.6378C106.464 36.5616 106.648 36.4505 106.804 36.3047C106.96 36.1589 107.077 35.9782 107.157 35.7628L108.837 35.9517C108.731 36.3958 108.529 36.7836 108.231 37.1151C107.936 37.4432 107.558 37.6984 107.097 37.8807C106.637 38.0597 106.11 38.1491 105.516 38.1491ZM112.267 36.608L112.203 37.1548C112.156 37.5724 112.074 37.9967 111.954 38.4276C111.838 38.8617 111.716 39.2611 111.586 39.6257C111.457 39.9903 111.353 40.277 111.273 40.4858H110.06C110.107 40.2836 110.169 40.0085 110.249 39.6605C110.332 39.3125 110.411 38.9214 110.488 38.4872C110.564 38.053 110.615 37.6122 110.642 37.1648L110.677 36.608H112.267ZM118.269 38H116.3L119.885 27.8182H122.162L125.751 38H123.782L121.063 29.9062H120.983L118.269 38ZM118.333 34.0078H123.703V35.4893H118.333V34.0078ZM129.334 38.1342C128.734 38.1342 128.197 37.9801 127.723 37.6719C127.249 37.3636 126.875 36.9162 126.6 36.3295C126.324 35.7429 126.187 35.0303 126.187 34.1918C126.187 33.3433 126.326 32.6274 126.605 32.044C126.886 31.4574 127.266 31.0149 127.743 30.7166C128.22 30.415 128.752 30.2642 129.339 30.2642C129.786 30.2642 130.154 30.3404 130.443 30.4929C130.731 30.642 130.96 30.8227 131.129 31.0348C131.298 31.2436 131.429 31.4408 131.521 31.6264H131.596V27.8182H133.401V38H131.631V36.7969H131.521C131.429 36.9825 131.294 37.1797 131.119 37.3885C130.943 37.594 130.711 37.7696 130.423 37.9155C130.134 38.0613 129.771 38.1342 129.334 38.1342ZM129.836 36.6577C130.217 36.6577 130.542 36.5549 130.81 36.3494C131.079 36.1406 131.283 35.8506 131.422 35.4794C131.561 35.1082 131.631 34.6757 131.631 34.1818C131.631 33.688 131.561 33.2588 131.422 32.8942C131.286 32.5296 131.084 32.2462 130.815 32.044C130.55 31.8419 130.224 31.7408 129.836 31.7408C129.435 31.7408 129.1 31.8452 128.832 32.054C128.563 32.2628 128.361 32.5511 128.225 32.919C128.089 33.2869 128.021 33.7079 128.021 34.1818C128.021 34.6591 128.089 35.085 128.225 35.4595C128.364 35.8307 128.568 36.1241 128.837 36.3395C129.109 36.5516 129.442 36.6577 129.836 36.6577ZM135.038 38V30.3636H136.783V31.6364H136.863C137.002 31.1955 137.241 30.8558 137.579 30.6172C137.92 30.3752 138.31 30.2543 138.747 30.2543C138.847 30.2543 138.958 30.2592 139.08 30.2692C139.206 30.2758 139.311 30.2874 139.394 30.304V31.9595C139.317 31.933 139.196 31.9098 139.031 31.8899C138.868 31.8667 138.711 31.8551 138.558 31.8551C138.23 31.8551 137.935 31.9264 137.673 32.0689C137.415 32.2081 137.211 32.402 137.062 32.6506C136.913 32.8991 136.838 33.1858 136.838 33.5107V38H135.038ZM143.375 38.1491C142.61 38.1491 141.949 37.9901 141.392 37.6719C140.838 37.3504 140.412 36.8963 140.114 36.3097C139.816 35.7197 139.667 35.0253 139.667 34.2266C139.667 33.4411 139.816 32.7517 140.114 32.1584C140.416 31.5618 140.837 31.0978 141.377 30.7663C141.917 30.4316 142.552 30.2642 143.281 30.2642C143.752 30.2642 144.196 30.3404 144.613 30.4929C145.034 30.642 145.406 30.8741 145.727 31.1889C146.052 31.5038 146.307 31.9048 146.493 32.392C146.678 32.8759 146.771 33.4527 146.771 34.1222V34.674H140.512V33.4609H145.046C145.043 33.1162 144.968 32.8097 144.822 32.5412C144.676 32.2694 144.473 32.0556 144.211 31.8999C143.952 31.7441 143.651 31.6662 143.306 31.6662C142.938 31.6662 142.615 31.7557 142.336 31.9347C142.058 32.1103 141.841 32.3423 141.685 32.6307C141.533 32.9157 141.455 33.2289 141.451 33.5703V34.6293C141.451 35.0734 141.533 35.4545 141.695 35.7727C141.857 36.0876 142.085 36.3295 142.376 36.4986C142.668 36.6643 143.009 36.7472 143.4 36.7472C143.662 36.7472 143.899 36.7107 144.111 36.6378C144.323 36.5616 144.507 36.4505 144.663 36.3047C144.819 36.1589 144.937 35.9782 145.016 35.7628L146.696 35.9517C146.59 36.3958 146.388 36.7836 146.09 37.1151C145.795 37.4432 145.417 37.6984 144.956 37.8807C144.496 38.0597 143.969 38.1491 143.375 38.1491ZM154.049 32.3821L152.409 32.5611C152.362 32.3954 152.281 32.2396 152.165 32.0938C152.052 31.9479 151.9 31.8303 151.708 31.7408C151.515 31.6513 151.28 31.6065 151.002 31.6065C150.627 31.6065 150.312 31.6877 150.057 31.8501C149.805 32.0125 149.681 32.223 149.684 32.4815C149.681 32.7036 149.762 32.8842 149.928 33.0234C150.097 33.1626 150.375 33.277 150.763 33.3665L152.065 33.6449C152.788 33.8007 153.325 34.0476 153.676 34.3857C154.031 34.7237 154.21 35.1662 154.213 35.7131C154.21 36.1937 154.069 36.6179 153.791 36.9858C153.516 37.3504 153.133 37.6354 152.642 37.8409C152.152 38.0464 151.588 38.1491 150.952 38.1491C150.017 38.1491 149.265 37.9536 148.695 37.5625C148.125 37.1681 147.785 36.6196 147.676 35.9169L149.431 35.7479C149.51 36.0926 149.679 36.3527 149.938 36.5284C150.196 36.7041 150.533 36.7919 150.947 36.7919C151.374 36.7919 151.717 36.7041 151.976 36.5284C152.238 36.3527 152.369 36.1357 152.369 35.8771C152.369 35.6584 152.284 35.4777 152.115 35.3352C151.949 35.1927 151.691 35.0833 151.34 35.0071L150.037 34.7337C149.305 34.5812 148.763 34.3243 148.411 33.9631C148.06 33.5985 147.886 33.1378 147.889 32.581C147.886 32.1103 148.014 31.7027 148.272 31.358C148.534 31.0099 148.897 30.7415 149.361 30.5526C149.828 30.3603 150.367 30.2642 150.977 30.2642C151.872 30.2642 152.576 30.4548 153.09 30.8359C153.607 31.2171 153.927 31.7325 154.049 32.3821ZM161.453 32.3821L159.812 32.5611C159.766 32.3954 159.684 32.2396 159.568 32.0938C159.456 31.9479 159.303 31.8303 159.111 31.7408C158.919 31.6513 158.684 31.6065 158.405 31.6065C158.031 31.6065 157.716 31.6877 157.461 31.8501C157.209 32.0125 157.084 32.223 157.088 32.4815C157.084 32.7036 157.166 32.8842 157.331 33.0234C157.5 33.1626 157.779 33.277 158.167 33.3665L159.469 33.6449C160.192 33.8007 160.729 34.0476 161.08 34.3857C161.434 34.7237 161.613 35.1662 161.617 35.7131C161.613 36.1937 161.473 36.6179 161.194 36.9858C160.919 37.3504 160.536 37.6354 160.046 37.8409C159.555 38.0464 158.992 38.1491 158.355 38.1491C157.421 38.1491 156.668 37.9536 156.098 37.5625C155.528 37.1681 155.189 36.6196 155.079 35.9169L156.834 35.7479C156.914 36.0926 157.083 36.3527 157.341 36.5284C157.6 36.7041 157.936 36.7919 158.35 36.7919C158.778 36.7919 159.121 36.7041 159.38 36.5284C159.641 36.3527 159.772 36.1357 159.772 35.8771C159.772 35.6584 159.688 35.4777 159.519 35.3352C159.353 35.1927 159.095 35.0833 158.743 35.0071L157.441 34.7337C156.708 34.5812 156.166 34.3243 155.815 33.9631C155.464 33.5985 155.29 33.1378 155.293 32.581C155.29 32.1103 155.417 31.7027 155.676 31.358C155.938 31.0099 156.301 30.7415 156.765 30.5526C157.232 30.3603 157.77 30.2642 158.38 30.2642C159.275 30.2642 159.979 30.4548 160.493 30.8359C161.01 31.2171 161.33 31.7325 161.453 32.3821ZM164.934 36.608L164.869 37.1548C164.823 37.5724 164.74 37.9967 164.621 38.4276C164.505 38.8617 164.382 39.2611 164.253 39.6257C164.123 39.9903 164.019 40.277 163.939 40.4858H162.726C162.773 40.2836 162.836 40.0085 162.915 39.6605C162.998 39.3125 163.078 38.9214 163.154 38.4872C163.23 38.053 163.282 37.6122 163.308 37.1648L163.343 36.608H164.934ZM178.343 31.2536H176.483C176.43 30.9486 176.332 30.6785 176.19 30.4432C176.047 30.2045 175.87 30.0024 175.658 29.8366C175.446 29.6709 175.204 29.5466 174.932 29.4638C174.664 29.3776 174.374 29.3345 174.062 29.3345C173.509 29.3345 173.018 29.4737 172.591 29.7521C172.163 30.0272 171.828 30.4316 171.586 30.9652C171.344 31.4955 171.223 32.1435 171.223 32.9091C171.223 33.688 171.344 34.3442 171.586 34.8778C171.832 35.4081 172.166 35.8092 172.591 36.081C173.018 36.3494 173.507 36.4837 174.057 36.4837C174.362 36.4837 174.647 36.4439 174.912 36.3643C175.181 36.2815 175.421 36.1605 175.633 36.0014C175.849 35.8423 176.029 35.6468 176.175 35.4148C176.324 35.1828 176.427 34.9176 176.483 34.6193L178.343 34.6293C178.273 35.1132 178.122 35.5672 177.89 35.9915C177.662 36.4157 177.362 36.7902 176.99 37.1151C176.619 37.4366 176.185 37.6884 175.688 37.8707C175.191 38.0497 174.639 38.1392 174.032 38.1392C173.137 38.1392 172.339 37.9321 171.636 37.5178C170.933 37.1035 170.38 36.5052 169.975 35.723C169.571 34.9408 169.369 34.0028 169.369 32.9091C169.369 31.812 169.573 30.8741 169.98 30.0952C170.388 29.313 170.943 28.7147 171.646 28.3004C172.349 27.8861 173.144 27.679 174.032 27.679C174.599 27.679 175.126 27.7585 175.613 27.9176C176.1 28.0767 176.535 28.3104 176.916 28.6186C177.297 28.9235 177.61 29.2981 177.855 29.7422C178.104 30.183 178.266 30.6868 178.343 31.2536ZM179.672 38V30.3636H181.472V38H179.672ZM180.577 29.2798C180.292 29.2798 180.047 29.1854 179.841 28.9964C179.636 28.8042 179.533 28.5739 179.533 28.3054C179.533 28.0336 179.636 27.8033 179.841 27.6143C180.047 27.4221 180.292 27.326 180.577 27.326C180.865 27.326 181.111 27.4221 181.313 27.6143C181.518 27.8033 181.621 28.0336 181.621 28.3054C181.621 28.5739 181.518 28.8042 181.313 28.9964C181.111 29.1854 180.865 29.2798 180.577 29.2798ZM186.856 30.3636V31.7557H182.466V30.3636H186.856ZM183.55 28.5341H185.349V35.7031C185.349 35.9451 185.386 36.1307 185.459 36.2599C185.535 36.3859 185.634 36.4721 185.757 36.5185C185.88 36.5649 186.016 36.5881 186.165 36.5881C186.277 36.5881 186.38 36.5798 186.473 36.5632C186.569 36.5466 186.642 36.5317 186.692 36.5185L186.995 37.9254C186.899 37.9586 186.761 37.995 186.582 38.0348C186.407 38.0746 186.191 38.0978 185.936 38.1044C185.485 38.1177 185.079 38.0497 184.718 37.9006C184.357 37.7481 184.07 37.5128 183.858 37.1946C183.649 36.8764 183.546 36.4787 183.55 36.0014V28.5341ZM189.2 40.8636C188.954 40.8636 188.727 40.8438 188.518 40.804C188.313 40.7675 188.149 40.7244 188.026 40.6747L188.444 39.2727C188.706 39.349 188.939 39.3854 189.145 39.3821C189.35 39.3788 189.531 39.3142 189.687 39.1882C189.846 39.0656 189.98 38.8601 190.089 38.5717L190.244 38.1591L187.474 30.3636H189.384L191.143 36.1307H191.223L192.988 30.3636H194.902L191.844 38.9247C191.702 39.3291 191.513 39.6754 191.278 39.9638C191.042 40.2554 190.754 40.4775 190.413 40.63C190.075 40.7857 189.67 40.8636 189.2 40.8636Z" fill="black"/>
</svg>
