<svg width="173" height="53" viewBox="0 0 173 53" fill="none" xmlns="http://www.w3.org/2000/svg">
<g clip-path="url(#clip0_587_25057)">
<path d="M166.339 52.7705H7.25271C3.57229 52.7705 0.585083 49.7833 0.585083 46.1029V7.00478C0.585083 3.32437 3.57229 0.337158 7.25271 0.337158H166.339C170.02 0.337158 173.007 3.32437 173.007 7.00478V46.1101C173 49.7833 170.02 52.7705 166.339 52.7705Z" fill="black"/>
<path d="M11.2901 21.759C8.49587 26.6114 10.2682 33.9794 13.3626 38.4459C14.9062 40.6756 16.4713 42.6837 18.6081 42.6837C18.651 42.6837 18.6867 42.6837 18.7296 42.6837C19.7372 42.6408 20.459 42.3335 21.1665 42.0334C21.9526 41.6975 22.7745 41.3473 24.0537 41.3473C25.2686 41.3473 26.0475 41.6832 26.7979 42.012C27.5411 42.3335 28.2986 42.6623 29.4278 42.6408C31.8361 42.598 33.3226 40.4326 34.6232 38.5245C35.9882 36.5306 36.6671 34.6011 36.903 33.8579L36.9101 33.8293C36.953 33.7006 36.8887 33.5577 36.7672 33.4934C36.7672 33.4934 36.7529 33.4863 36.7457 33.4863C36.3241 33.3147 32.5937 31.6568 32.5579 27.1545C32.5222 23.4955 35.3522 21.5589 35.9167 21.2087L35.9453 21.1944C36.0096 21.1515 36.0525 21.0943 36.0668 21.0229C36.0811 20.9514 36.0668 20.8728 36.0239 20.8156C34.073 17.957 31.0786 17.5283 29.8709 17.4711C29.6993 17.4568 29.5135 17.4425 29.3349 17.4425C27.9199 17.4425 26.5621 17.9785 25.4687 18.4073C24.7183 18.7074 24.068 18.9576 23.6177 18.9576C23.1103 18.9576 22.46 18.7003 21.7025 18.4001C20.6877 17.9999 19.5443 17.5426 18.3294 17.5426C18.3008 17.5426 18.2722 17.5426 18.2436 17.5426C15.4279 17.5854 12.7623 19.2005 11.2901 21.759Z" fill="white"/>
<path d="M29.878 9.59628C28.17 9.66775 26.119 10.7183 24.8898 12.1547C23.8465 13.3625 22.8317 15.3706 23.0961 17.4002C23.1104 17.5288 23.2176 17.6217 23.3462 17.636C23.4605 17.6432 23.582 17.6503 23.6964 17.6503C25.3686 17.6503 27.1695 16.7284 28.4059 15.2348C29.6994 13.6626 30.3569 11.6473 30.1568 9.83926C30.1425 9.69633 30.0138 9.58914 29.878 9.59628Z" fill="white"/>
<path d="M49.5517 9.45813H52.7962C53.6466 9.45813 54.4041 9.63679 55.0616 9.98697C55.7191 10.3371 56.2336 10.8231 56.5981 11.4448C56.9625 12.0666 57.1484 12.7669 57.1484 13.5602C57.1484 14.3463 56.9625 15.0538 56.5981 15.6755C56.2336 16.2973 55.7191 16.7832 55.0616 17.1334C54.4041 17.4836 53.6466 17.6622 52.7962 17.6622H49.5517V9.45813ZM52.7462 17.112C53.5037 17.112 54.1683 16.9619 54.7472 16.6617C55.326 16.3616 55.7691 15.9399 56.0835 15.404C56.398 14.868 56.5552 14.2462 56.5552 13.553C56.5552 12.8598 56.398 12.2452 56.0835 11.7021C55.7691 11.1661 55.326 10.7445 54.7472 10.4443C54.1683 10.1442 53.5037 9.99411 52.7462 9.99411H50.1449V17.112H52.7462Z" fill="white"/>
<path d="M59.8568 17.2982C59.3923 17.0337 59.0278 16.6621 58.7634 16.1905C58.499 15.7188 58.3632 15.1828 58.3632 14.5897C58.3632 13.9965 58.499 13.4605 58.7634 12.9889C59.0278 12.5172 59.3923 12.1456 59.8568 11.8812C60.3213 11.6167 60.843 11.481 61.4219 11.481C62.0008 11.481 62.5224 11.6167 62.987 11.8812C63.4515 12.1456 63.816 12.5172 64.0804 12.9889C64.3448 13.4605 64.4806 13.9965 64.4806 14.5897C64.4806 15.1828 64.3448 15.7188 64.0804 16.1905C63.816 16.6621 63.4515 17.0337 62.987 17.2982C62.5224 17.5626 62.0008 17.6984 61.4219 17.6984C60.843 17.6984 60.3213 17.5626 59.8568 17.2982ZM62.6797 16.8408C63.0513 16.6192 63.3443 16.3191 63.5587 15.926C63.7731 15.533 63.8803 15.0899 63.8803 14.5897C63.8803 14.0894 63.7731 13.6463 63.5587 13.2533C63.3443 12.8602 63.0513 12.5601 62.6797 12.3385C62.3081 12.117 61.8864 12.0098 61.4219 12.0098C60.9502 12.0098 60.5357 12.117 60.1641 12.3385C59.7925 12.5601 59.4995 12.8602 59.2851 13.2533C59.0707 13.6463 58.9635 14.0894 58.9635 14.5897C58.9635 15.0899 59.0707 15.533 59.2851 15.926C59.4995 16.3191 59.7925 16.6192 60.1641 16.8408C60.5357 17.0623 60.9574 17.1695 61.4219 17.1695C61.8864 17.1695 62.3081 17.0623 62.6797 16.8408Z" fill="white"/>
<path d="M74.8433 11.5409L72.5279 17.6511H71.9776L69.9194 12.3484L67.847 17.6511H67.311L64.9955 11.5409H65.5601L67.5968 16.9936L69.6836 11.5409H70.1839L72.2563 16.9865L74.3145 11.5409H74.8433Z" fill="white"/>
<path d="M81.0032 12.1648C81.4462 12.6079 81.6678 13.2511 81.6678 14.0872V17.6604H81.0818V14.1301C81.0818 13.444 80.9102 12.9223 80.5601 12.565C80.2099 12.2077 79.7239 12.029 79.1022 12.029C78.3876 12.029 77.8158 12.2434 77.4014 12.6722C76.9869 13.101 76.7796 13.6799 76.7796 14.4016V17.6533H76.1936V11.5431H76.7582V12.8652C76.9654 12.4364 77.2799 12.1005 77.7015 11.8575C78.116 11.6145 78.6091 11.493 79.1808 11.493C79.9526 11.5002 80.5601 11.7217 81.0032 12.1648Z" fill="white"/>
<path d="M84.0835 8.96716H84.6695V17.6501H84.0835V8.96716Z" fill="white"/>
<path d="M87.9566 17.2982C87.492 17.0337 87.1276 16.6621 86.8632 16.1905C86.5987 15.7188 86.463 15.1828 86.463 14.5897C86.463 13.9965 86.5987 13.4605 86.8632 12.9889C87.1276 12.5172 87.492 12.1456 87.9566 11.8812C88.4211 11.6167 88.9428 11.481 89.5216 11.481C90.1005 11.481 90.6222 11.6167 91.0867 11.8812C91.5512 12.1456 91.9157 12.5172 92.1801 12.9889C92.4445 13.4605 92.5803 13.9965 92.5803 14.5897C92.5803 15.1828 92.4445 15.7188 92.1801 16.1905C91.9157 16.6621 91.5512 17.0337 91.0867 17.2982C90.6222 17.5626 90.1005 17.6984 89.5216 17.6984C88.9428 17.6984 88.4211 17.5626 87.9566 17.2982ZM90.7794 16.8408C91.151 16.6192 91.444 16.3191 91.6584 15.926C91.8728 15.533 91.98 15.0899 91.98 14.5897C91.98 14.0894 91.8728 13.6463 91.6584 13.2533C91.444 12.8602 91.151 12.5601 90.7794 12.3385C90.4078 12.117 89.9861 12.0098 89.5216 12.0098C89.0571 12.0098 88.6355 12.117 88.2639 12.3385C87.8922 12.5601 87.5992 12.8602 87.3848 13.2533C87.1705 13.6463 87.0633 14.0894 87.0633 14.5897C87.0633 15.0899 87.1705 15.533 87.3848 15.926C87.5992 16.3191 87.8922 16.6192 88.2639 16.8408C88.6355 17.0623 89.0571 17.1695 89.5216 17.1695C89.9861 17.1695 90.4078 17.0623 90.7794 16.8408Z" fill="white"/>
<path d="M98.1761 12.078C98.5834 12.4639 98.7835 13.0285 98.7835 13.7789V17.6522H98.219V16.566C98.026 16.9233 97.7402 17.202 97.3614 17.4021C96.9898 17.6022 96.5396 17.7023 96.0179 17.7023C95.339 17.7023 94.803 17.545 94.4099 17.2234C94.0169 16.9019 93.8168 16.4802 93.8168 15.9585C93.8168 15.4511 93.9954 15.0366 94.3599 14.7222C94.7244 14.4077 95.3032 14.2505 96.0965 14.2505H98.1904V13.7574C98.1904 13.1857 98.0332 12.7569 97.7259 12.4568C97.4186 12.1638 96.9684 12.0137 96.3752 12.0137C95.9679 12.0137 95.5819 12.0852 95.2103 12.2209C94.8387 12.3639 94.5243 12.5497 94.267 12.7855L93.974 12.3639C94.2813 12.0923 94.6458 11.8779 95.0745 11.7278C95.5033 11.5778 95.9536 11.4991 96.4181 11.4991C97.1827 11.4991 97.7687 11.6921 98.1761 12.078ZM97.3971 16.8661C97.7545 16.6303 98.0189 16.2944 98.1975 15.8513V14.7007H96.1108C95.5105 14.7007 95.0745 14.8079 94.803 15.0295C94.5314 15.251 94.3956 15.5512 94.3956 15.9299C94.3956 16.3301 94.5457 16.6446 94.8387 16.8733C95.1317 17.1019 95.5534 17.2163 96.0893 17.2163C96.611 17.2234 97.0398 17.102 97.3971 16.8661Z" fill="white"/>
<path d="M106.638 8.96716V17.6501H106.066V16.2136C105.823 16.6925 105.487 17.0569 105.051 17.3142C104.615 17.5715 104.122 17.7001 103.565 17.7001C102.993 17.7001 102.479 17.5643 102.021 17.2999C101.564 17.0355 101.199 16.671 100.935 16.1994C100.671 15.7277 100.542 15.1989 100.542 14.5986C100.542 13.9983 100.671 13.4623 100.935 12.9906C101.199 12.5189 101.557 12.1545 102.021 11.8901C102.479 11.6256 102.993 11.497 103.565 11.497C104.108 11.497 104.601 11.6256 105.037 11.8829C105.473 12.1402 105.809 12.4975 106.059 12.962V8.96716H106.638ZM104.851 16.8425C105.223 16.621 105.516 16.3208 105.73 15.9278C105.945 15.5347 106.052 15.0917 106.052 14.5914C106.052 14.0912 105.945 13.6481 105.73 13.255C105.516 12.862 105.223 12.5618 104.851 12.3403C104.48 12.1187 104.058 12.0115 103.593 12.0115C103.129 12.0115 102.707 12.1187 102.336 12.3403C101.964 12.5618 101.671 12.862 101.457 13.255C101.242 13.6481 101.135 14.0912 101.135 14.5914C101.135 15.0917 101.242 15.5347 101.457 15.9278C101.671 16.3208 101.964 16.621 102.336 16.8425C102.707 17.0641 103.129 17.1713 103.593 17.1713C104.058 17.1713 104.48 17.0641 104.851 16.8425Z" fill="white"/>
<path d="M112.941 17.2982C112.476 17.0337 112.112 16.6621 111.847 16.1905C111.583 15.7188 111.447 15.1828 111.447 14.5897C111.447 13.9965 111.583 13.4605 111.847 12.9889C112.112 12.5172 112.476 12.1456 112.941 11.8812C113.405 11.6167 113.927 11.481 114.506 11.481C115.085 11.481 115.606 11.6167 116.071 11.8812C116.535 12.1456 116.9 12.5172 117.164 12.9889C117.429 13.4605 117.564 13.9965 117.564 14.5897C117.564 15.1828 117.429 15.7188 117.164 16.1905C116.9 16.6621 116.535 17.0337 116.071 17.2982C115.606 17.5626 115.085 17.6984 114.506 17.6984C113.927 17.6984 113.405 17.5626 112.941 17.2982ZM115.756 16.8408C116.128 16.6192 116.421 16.3191 116.635 15.926C116.85 15.533 116.957 15.0899 116.957 14.5897C116.957 14.0894 116.85 13.6463 116.635 13.2533C116.421 12.8602 116.128 12.5601 115.756 12.3385C115.385 12.117 114.963 12.0098 114.499 12.0098C114.034 12.0098 113.612 12.117 113.241 12.3385C112.869 12.5601 112.576 12.8602 112.362 13.2533C112.147 13.6463 112.04 14.0894 112.04 14.5897C112.04 15.0899 112.147 15.533 112.362 15.926C112.576 16.3191 112.869 16.6192 113.241 16.8408C113.612 17.0623 114.034 17.1695 114.499 17.1695C114.963 17.1695 115.392 17.0623 115.756 16.8408Z" fill="white"/>
<path d="M124.167 12.1648C124.61 12.6079 124.832 13.2511 124.832 14.0872V17.6604H124.246V14.1301C124.246 13.444 124.074 12.9223 123.724 12.565C123.374 12.2077 122.888 12.029 122.266 12.029C121.552 12.029 120.98 12.2434 120.566 12.6722C120.151 13.101 119.944 13.6799 119.944 14.4016V17.6533H119.358V11.5431H119.922V12.8652C120.13 12.4364 120.444 12.1005 120.866 11.8575C121.28 11.6145 121.773 11.493 122.345 11.493C123.117 11.5002 123.724 11.7217 124.167 12.1648Z" fill="white"/>
<path d="M133.286 17.2657C133.136 17.4086 132.95 17.5158 132.728 17.5873C132.507 17.6587 132.271 17.7016 132.035 17.7016C131.506 17.7016 131.092 17.5587 130.806 17.2657C130.52 16.9727 130.37 16.5653 130.37 16.0436V12.0488H129.248V11.5485H130.37V10.2122H130.956V11.5485H132.9V12.0488H130.956V15.9793C130.956 16.3795 131.049 16.6797 131.242 16.8869C131.435 17.0942 131.714 17.1942 132.092 17.1942C132.471 17.1942 132.793 17.0799 133.043 16.8512L133.286 17.2657Z" fill="white"/>
<path d="M139.711 12.1619C140.154 12.6049 140.375 13.2481 140.375 14.0843V17.6575H139.789V14.1271C139.789 13.4411 139.618 12.9194 139.268 12.5621C138.917 12.2047 138.431 12.0261 137.81 12.0261C137.095 12.0261 136.523 12.2405 136.109 12.6693C135.694 13.098 135.487 13.6769 135.487 14.3987V17.6503H134.901V8.96741H135.487V12.8193C135.694 12.3977 136.009 12.069 136.423 11.8403C136.838 11.6116 137.324 11.4972 137.888 11.4972C138.667 11.4972 139.268 11.7188 139.711 12.1619Z" fill="white"/>
<path d="M147.965 14.7379H142.713C142.727 15.2167 142.848 15.6383 143.077 16.01C143.306 16.3816 143.613 16.6674 143.999 16.8675C144.385 17.0676 144.821 17.1748 145.307 17.1748C145.707 17.1748 146.072 17.1034 146.415 16.9604C146.758 16.8175 147.036 16.6031 147.265 16.3244L147.608 16.7103C147.344 17.0319 147.008 17.2749 146.608 17.4464C146.207 17.6179 145.771 17.7037 145.3 17.7037C144.692 17.7037 144.149 17.5679 143.67 17.3035C143.192 17.039 142.82 16.6746 142.555 16.2029C142.284 15.7312 142.148 15.2024 142.148 14.6021C142.148 14.009 142.277 13.473 142.527 13.0013C142.777 12.5296 143.127 12.158 143.577 11.8936C144.02 11.6292 144.521 11.4934 145.078 11.4934C145.636 11.4934 146.129 11.622 146.572 11.8865C147.015 12.1509 147.358 12.5153 147.615 12.9799C147.865 13.4515 147.994 13.9804 147.994 14.5735L147.965 14.7379ZM143.906 12.301C143.563 12.4939 143.284 12.7583 143.084 13.1085C142.877 13.4587 142.756 13.8446 142.727 14.2877H147.408C147.386 13.8517 147.265 13.4587 147.058 13.1156C146.85 12.7726 146.572 12.5011 146.229 12.3081C145.886 12.1151 145.5 12.0151 145.071 12.0151C144.635 12.0151 144.249 12.108 143.906 12.301Z" fill="white"/>
<path d="M58.2136 35.764H51.2101L49.8308 39.0013H47.1509L53.454 25.0015H56.0125L62.3371 39.0013H59.6143L58.2136 35.764ZM57.356 33.7201L54.719 27.5956L52.0962 33.7201H57.356Z" fill="white"/>
<path d="M72.5855 28.8825C73.4074 29.3327 74.0505 29.9759 74.5151 30.8049C74.9796 31.6339 75.2154 32.5844 75.2154 33.6635C75.2154 34.7426 74.9796 35.7002 74.5151 36.5364C74.0505 37.3725 73.4074 38.0157 72.5855 38.4659C71.7637 38.9161 70.8347 39.1448 69.7984 39.1448C68.3548 39.1448 67.2186 38.666 66.3753 37.7012V42.8824H63.874V28.3251H66.2609V29.7258C66.6754 29.2184 67.1828 28.8396 67.7903 28.5824C68.3977 28.3322 69.0695 28.2036 69.7984 28.2036C70.8418 28.2036 71.7708 28.4323 72.5855 28.8825ZM71.7851 36.0861C72.3783 35.4715 72.6784 34.664 72.6784 33.6635C72.6784 32.663 72.3783 31.8554 71.7851 31.2408C71.192 30.6263 70.4345 30.319 69.5126 30.319C68.9123 30.319 68.3691 30.4547 67.8903 30.7263C67.4115 30.9979 67.0327 31.3909 66.7469 31.8983C66.4682 32.4057 66.3253 32.9917 66.3253 33.6563C66.3253 34.321 66.4682 34.907 66.7469 35.4144C67.0256 35.9218 67.4044 36.3148 67.8903 36.5864C68.3691 36.8579 68.9123 36.9937 69.5126 36.9937C70.4416 37.0009 71.192 36.6936 71.7851 36.0861Z" fill="white"/>
<path d="M86.3139 28.8825C87.1358 29.3327 87.7789 29.9759 88.2435 30.8049C88.708 31.6339 88.9438 32.5844 88.9438 33.6635C88.9438 34.7426 88.708 35.7002 88.2435 36.5364C87.7789 37.3725 87.1358 38.0157 86.3139 38.4659C85.4921 38.9161 84.563 39.1448 83.5268 39.1448C82.0832 39.1448 80.9469 38.666 80.1037 37.7012V42.8824H77.6024V28.3251H79.9822V29.7258C80.3967 29.2184 80.9041 28.8396 81.5115 28.5824C82.119 28.3322 82.7907 28.2036 83.5197 28.2036C84.563 28.2036 85.4921 28.4323 86.3139 28.8825ZM85.5135 36.0861C86.1067 35.4715 86.4068 34.664 86.4068 33.6635C86.4068 32.663 86.1067 31.8554 85.5135 31.2408C84.9204 30.6263 84.1628 30.319 83.241 30.319C82.6407 30.319 82.0975 30.4547 81.6187 30.7263C81.1399 30.9979 80.7611 31.3909 80.4753 31.8983C80.1966 32.4057 80.0536 32.9917 80.0536 33.6563C80.0536 34.321 80.1966 34.907 80.4753 35.4144C80.754 35.9218 81.1328 36.3148 81.6187 36.5864C82.0975 36.8579 82.6407 36.9937 83.241 36.9937C84.1628 37.0009 84.9204 36.6936 85.5135 36.0861Z" fill="white"/>
<path d="M98.2902 38.747C97.2826 38.4397 96.4893 38.0324 95.9033 37.525L96.8038 35.5025C97.3755 35.9528 98.083 36.3244 98.912 36.6102C99.7481 36.8961 100.584 37.039 101.42 37.039C102.464 37.039 103.236 36.8746 103.75 36.5388C104.265 36.2029 104.522 35.767 104.522 35.2167C104.522 34.8165 104.379 34.4877 104.093 34.2233C103.807 33.9661 103.443 33.7588 103 33.6159C102.557 33.4658 101.956 33.3014 101.199 33.1156C100.134 32.8655 99.2693 32.6082 98.6118 32.3581C97.9543 32.108 97.3826 31.7078 96.911 31.1646C96.4393 30.6215 96.2035 29.8926 96.2035 28.9778C96.2035 28.206 96.4107 27.4985 96.8324 26.8696C97.254 26.2336 97.8829 25.7334 98.7333 25.3617C99.5766 24.9901 100.62 24.8043 101.842 24.8043C102.692 24.8043 103.536 24.9115 104.365 25.1259C105.194 25.3403 105.908 25.6476 106.501 26.0478L105.68 28.0702C105.065 27.7129 104.429 27.4342 103.757 27.2484C103.093 27.0626 102.442 26.9697 101.813 26.9697C100.784 26.9697 100.02 27.1412 99.5266 27.4914C99.0263 27.8416 98.7762 28.2989 98.7762 28.8706C98.7762 29.2708 98.9191 29.5996 99.205 29.8497C99.4908 30.0998 99.8553 30.2999 100.298 30.45C100.741 30.6001 101.342 30.7644 102.099 30.9503C103.143 31.1932 103.993 31.4434 104.658 31.7006C105.322 31.9579 105.894 32.3581 106.366 32.8941C106.837 33.4301 107.073 34.1447 107.073 35.0523C107.073 35.8241 106.866 36.5245 106.444 37.1534C106.023 37.7822 105.387 38.2825 104.536 38.6541C103.686 39.0257 102.642 39.2115 101.413 39.2115C100.341 39.2044 99.2979 39.0543 98.2902 38.747Z" fill="white"/>
<path d="M115.843 38.4272C115.55 38.6702 115.192 38.8488 114.771 38.9703C114.349 39.0918 113.906 39.149 113.441 39.149C112.269 39.149 111.362 38.8417 110.719 38.2271C110.075 37.6125 109.761 36.7192 109.761 35.5472V30.4089H108.003V28.4079H109.761V25.9709H112.262V28.4079H115.121V30.4089H112.262V35.49C112.262 36.0117 112.391 36.4047 112.641 36.6835C112.891 36.955 113.263 37.0908 113.742 37.0908C114.299 37.0908 114.771 36.9407 115.142 36.6477L115.843 38.4272Z" fill="white"/>
<path d="M119.423 38.4455C118.558 37.981 117.879 37.3307 117.393 36.4945C116.907 35.6584 116.664 34.7151 116.664 33.6645C116.664 32.614 116.907 31.6707 117.393 30.8417C117.879 30.0127 118.558 29.3695 119.423 28.8979C120.287 28.4333 121.267 28.1975 122.346 28.1975C123.439 28.1975 124.418 28.4333 125.283 28.8979C126.148 29.3624 126.826 30.0127 127.312 30.8417C127.798 31.6707 128.041 32.6069 128.041 33.6645C128.041 34.7151 127.798 35.6584 127.312 36.4945C126.826 37.3307 126.148 37.981 125.283 38.4455C124.418 38.91 123.439 39.1458 122.346 39.1458C121.267 39.1458 120.295 38.91 119.423 38.4455ZM124.625 36.0872C125.226 35.4726 125.526 34.665 125.526 33.6645C125.526 32.664 125.226 31.8565 124.625 31.2419C124.025 30.6273 123.268 30.32 122.346 30.32C121.424 30.32 120.666 30.6273 120.073 31.2419C119.48 31.8565 119.18 32.664 119.18 33.6645C119.18 34.665 119.48 35.4726 120.073 36.0872C120.666 36.7018 121.424 37.0091 122.346 37.0091C123.268 37.0019 124.025 36.6946 124.625 36.0872Z" fill="white"/>
<path d="M136.624 28.2036V30.5834C136.41 30.5405 136.217 30.5262 136.045 30.5262C135.074 30.5262 134.309 30.8121 133.766 31.3766C133.216 31.9412 132.944 32.763 132.944 33.8279V39.009H130.443V28.3251H132.822V29.883C133.544 28.761 134.816 28.2036 136.624 28.2036Z" fill="white"/>
<path d="M148.652 34.4674H140.269C140.42 35.2535 140.798 35.8753 141.42 36.3398C142.042 36.7972 142.814 37.033 143.728 37.033C144.9 37.033 145.865 36.6471 146.63 35.8753L147.973 37.4189C147.494 37.9906 146.887 38.4265 146.151 38.7195C145.415 39.0125 144.593 39.1626 143.671 39.1626C142.499 39.1626 141.463 38.9268 140.57 38.4623C139.676 37.9978 138.983 37.3474 138.497 36.5113C138.011 35.6752 137.768 34.7318 137.768 33.6813C137.768 32.6379 138.004 31.7017 138.476 30.8728C138.947 30.0366 139.605 29.3863 140.448 28.9218C141.291 28.4573 142.235 28.2214 143.285 28.2214C144.329 28.2214 145.258 28.4501 146.072 28.9146C146.894 29.372 147.53 30.0223 147.995 30.8585C148.452 31.6946 148.688 32.6522 148.688 33.7456C148.688 33.9029 148.674 34.1458 148.652 34.4674ZM141.256 30.9156C140.705 31.3873 140.362 32.0162 140.248 32.8094H146.308C146.201 32.0376 145.872 31.4087 145.329 30.9299C144.779 30.4511 144.1 30.2081 143.292 30.2081C142.492 30.2081 141.813 30.444 141.256 30.9156Z" fill="white"/>
</g>
<defs>
<clipPath id="clip0_587_25057">
<rect width="172.415" height="52.4334" fill="white" transform="translate(0.585083 0.337158)"/>
</clipPath>
</defs>
</svg>
