<svg width="420" height="397" viewBox="0 0 420 397" fill="none" xmlns="http://www.w3.org/2000/svg">
<g clip-path="url(#clip0_713_10341)">
<rect width="420" height="397" rx="10" fill="white"/>
<rect x="5.04053" y="61.3334" width="171.131" height="197.565" rx="8.49971" transform="rotate(39.2151 5.04053 61.3334)" fill="#EEEEEE"/>
<rect x="103.559" y="-59.3973" width="171.131" height="127.761" rx="8.49971" transform="rotate(39.2151 103.559 -59.3973)" fill="#EEEEEE"/>
<rect x="138.478" y="-232.026" width="335.305" height="127.761" rx="8.49971" transform="rotate(39.2151 138.478 -232.026)" fill="#EEEEEE"/>
<rect x="477.457" y="-74.1703" width="93.9135" height="219.772" rx="8.49971" transform="rotate(39.2151 477.457 -74.1703)" fill="#EEEEEE"/>
<rect x="19.771" y="364.573" width="171.131" height="177" rx="8.49971" transform="rotate(39.2151 19.771 364.573)" fill="#EEEEEE"/>
<rect x="260.94" y="69.0286" width="171.131" height="353.392" rx="8.49971" transform="rotate(39.2151 260.94 69.0286)" fill="#EEEEEE"/>
<rect x="467.271" y="124.266" width="131.237" height="441.044" rx="8.49971" transform="rotate(39.2151 467.271 124.266)" fill="#EEEEEE"/>
<rect x="-53.8228" y="-187.823" width="171.131" height="353.392" rx="8.49971" transform="rotate(39.2151 -53.8228 -187.823)" fill="#EEEEEE"/>
<rect x="5.42773" y="88.5859" width="136.071" height="155.827" rx="16.9994" transform="rotate(39.2151 5.42773 88.5859)" fill="#DDDDDD"/>
<rect x="103.59" y="-39.6805" width="91.2638" height="97.2492" rx="16.9994" transform="rotate(39.2151 103.59 -39.6805)" fill="#DDDDDD"/>
<rect x="186.37" y="27.8691" width="40.1908" height="54.7415" rx="16.9994" transform="rotate(39.2151 186.37 27.8691)" fill="#DDDDDD"/>
<rect x="142.401" y="-209.89" width="301.236" height="98.4192" rx="16.9994" transform="rotate(39.2151 142.401 -209.89)" fill="#DDDDDD"/>
<rect x="480.438" y="-55.8196" width="66.0914" height="195.105" rx="16.9994" transform="rotate(39.2151 480.438 -55.8196)" fill="#DDDDDD"/>
<rect x="261.201" y="90.7113" width="143.309" height="111.128" rx="16.9994" transform="rotate(39.2151 261.201 90.7113)" fill="#DDDDDD"/>
<rect x="181.004" y="188.99" width="143.309" height="111.128" rx="16.9994" transform="rotate(39.2151 181.004 188.99)" fill="#DDDDDD"/>
<rect x="100.807" y="287.269" width="85.9094" height="66.6176" rx="16.9994" transform="rotate(39.2151 100.807 287.269)" fill="#DDDDDD"/>
<rect x="176.911" y="349.372" width="45.082" height="66.6176" rx="16.9994" transform="rotate(39.2151 176.911 349.372)" fill="#DDDDDD"/>
<rect x="471.707" y="149.111" width="92.9473" height="148.774" rx="16.9994" transform="rotate(39.2151 471.707 149.111)" fill="#DDDDDD"/>
<rect x="362.003" y="283.548" width="92.9473" height="148.774" rx="16.9994" transform="rotate(39.2151 362.003 283.548)" fill="#DDDDDD"/>
<rect x="-50.3394" y="-163.512" width="134.993" height="171.898" rx="16.9994" transform="rotate(39.2151 -50.3394 -163.512)" fill="#DDDDDD"/>
<path d="M320.95 98.2407L258.941 47.5994L53.2773 302.87" stroke="#999999" stroke-width="9.52207" stroke-linecap="round" stroke-linejoin="round"/>
<circle cx="332.745" cy="106.78" r="24.4679" fill="#007AFF"/>
<g clip-path="url(#clip1_713_10341)">
<path d="M317.632 111.581L327.655 117.52L341.678 72.0634V67.4439L317.632 60.5243V111.581Z" fill="#9499AD"/>
<path d="M317.632 111.581L326.722 116.966V115.247L317.632 109.862V111.581Z" fill="#1C1C2F"/>
<path d="M317.632 60.5243L327.655 66.4631L341.678 58.155L331.655 52.2162L317.632 60.5243Z" fill="#E8ECFF"/>
<path d="M327.655 112.046V75.7482L341.678 67.4439V103.738L327.655 112.046Z" fill="#9A9C9E"/>
<path d="M340.111 65.9592L343.192 67.7863L349.197 88.9567V113.931L334.781 122.474L325.695 74.502L340.111 65.9592Z" fill="#36364D"/>
<path d="M325.695 74.502L328.776 76.329L334.781 97.4995V122.474L325.695 117.089V74.502Z" fill="#2C2C40"/>
<path d="M343.192 67.7863L328.776 76.329L334.781 97.4995L349.197 88.9567L343.192 67.7863Z" fill="#434361"/>
<path d="M349.197 113.931L334.781 122.474V118.585L349.197 110.042V113.931Z" fill="#23233B"/>
<path d="M325.695 117.089L334.781 122.474V118.585L325.695 113.2V117.089Z" fill="#1C1C2F"/>
<path d="M334.578 79.7253L331.34 81.6408L332.689 86.395L335.928 84.4795L334.578 79.7253Z" fill="#1C1C2F"/>
<path d="M336.801 87.3643L333.566 89.2836L334.664 93.1607L337.903 91.2452L336.801 87.3643Z" fill="#1C1C2F"/>
<path d="M336.749 88.1028L333.896 89.7913L334.777 92.8915L337.629 91.203L336.749 88.1028Z" fill="#BCBACF"/>
<path d="M336.835 89.1644L334.413 90.5991L334.544 91.076L336.969 89.6413L336.835 89.1644Z" fill="#20D14E"/>
<path d="M347.701 88.8336L339.451 93.7223L338.428 90.1221L335.339 79.2292L334.481 76.2059L341.558 72.0134L342.731 71.3172L347.701 88.8336Z" fill="#1F40A1"/>
<path d="M342.731 71.3172L341.558 72.0134V75.5444L344.151 86.7296L347.701 88.8336L342.731 71.3172Z" fill="#272738"/>
<path d="M347.701 88.8336L339.451 93.7224L338.428 90.1222L344.152 86.7297L347.701 88.8336Z" fill="#1754D6"/>
<path d="M347.701 88.8336L339.451 93.7224L339.365 93.4224L338.536 90.4953L338.428 90.1222L344.152 86.7297L347.701 88.8336Z" fill="#272738"/>
<path d="M341.557 75.5444L335.339 79.2292L338.428 90.1221L344.151 86.7296L341.557 75.5444Z" fill="#434361"/>
<path d="M343.578 84.2487L341.557 75.5444L335.339 79.2292L337.742 87.7028L343.578 84.2487Z" fill="#BCBACF"/>
<path d="M342.555 87.3836L342.172 85.7296L338.083 88.1528L338.469 89.8029L342.555 87.3836Z" fill="#BCBACF"/>
<path d="M342.738 83.0833L342.622 82.5871C342.607 82.5217 342.536 82.4909 342.476 82.5217L341.966 82.8217C341.895 82.864 341.861 82.9487 341.88 83.0294L341.996 83.5256C342.011 83.591 342.083 83.6218 342.142 83.591L342.652 83.291C342.723 83.2487 342.757 83.164 342.738 83.0833Z" fill="#D5D3EB"/>
<path d="M342.383 81.5524L342.266 81.0562C342.251 80.9908 342.18 80.96 342.12 80.9908L341.61 81.2908C341.539 81.3331 341.505 81.4178 341.524 81.4985L341.64 81.9947C341.655 82.0601 341.727 82.0909 341.787 82.0601L342.296 81.7601C342.368 81.7178 342.401 81.6332 342.383 81.5524Z" fill="#D5D3EB"/>
<path d="M342.027 80.0254L341.91 79.5292C341.895 79.4638 341.824 79.433 341.764 79.4638L341.254 79.7638C341.183 79.8061 341.149 79.8907 341.168 79.9715L341.284 80.4677C341.299 80.5331 341.371 80.5638 341.431 80.5331L341.94 80.2331C342.012 80.1907 342.045 80.1061 342.027 80.0254Z" fill="#D5D3EB"/>
<path d="M341.674 78.4945L341.558 77.9983C341.543 77.933 341.472 77.9022 341.412 77.933L340.902 78.233C340.831 78.2753 340.797 78.3599 340.816 78.4407L340.932 78.9369C340.947 79.0022 341.018 79.033 341.074 79.0022L341.584 78.7022C341.655 78.6599 341.689 78.5753 341.67 78.4945H341.674Z" fill="#D5D3EB"/>
<path d="M342.199 87.2488L341.955 86.2065L338.428 88.2951L338.671 89.3374L342.199 87.2488Z" fill="#797785"/>
<path d="M342.199 87.2489L342.135 86.9796L338.608 89.0682L338.672 89.3374L342.199 87.2489Z" fill="#3C3C42"/>
<path d="M341.618 84.1718L340.235 78.2214L335.8 80.8524L337.442 86.645L341.618 84.1718Z" fill="#46444D"/>
<path d="M341.4 84.041L340.122 78.5369L335.86 81.0601L337.382 86.4258L341.4 84.041Z" fill="#305AFF"/>
<path d="M341.892 91.9261L345.824 89.5952C345.917 89.5375 345.917 89.399 345.824 89.3413L343.477 87.9528C343.275 87.8335 343.027 87.8335 342.825 87.9528L338.889 90.2837C338.795 90.3414 338.795 90.4798 338.889 90.5375L341.236 91.9261C341.438 92.0453 341.685 92.0453 341.888 91.9261H341.892Z" fill="#A4A2B5"/>
<path d="M341.558 72.0134V75.5444L335.339 79.2292L334.481 76.206L341.558 72.0134Z" fill="#272738"/>
<path d="M340.834 90.3184L340.587 90.4645C340.523 90.503 340.426 90.5068 340.369 90.4722L340.088 90.3068C340.032 90.2722 340.039 90.2145 340.103 90.1761L340.351 90.0299C340.414 89.9914 340.512 89.9876 340.568 90.0222L340.849 90.1876C340.905 90.2222 340.898 90.2799 340.834 90.3184Z" fill="#797785"/>
<path d="M341.509 90.7183L341.262 90.8645C341.198 90.903 341.1 90.9068 341.044 90.8722L340.763 90.7068C340.707 90.6722 340.714 90.6145 340.778 90.576L341.025 90.4299C341.089 90.3914 341.187 90.3876 341.243 90.4222L341.524 90.5876C341.58 90.6222 341.573 90.6799 341.509 90.7183Z" fill="#797785"/>
<path d="M342.188 91.1184L341.94 91.2645C341.876 91.303 341.779 91.3068 341.723 91.2722L341.442 91.1068C341.385 91.0722 341.393 91.0145 341.457 90.976L341.704 90.8299C341.768 90.7914 341.865 90.7876 341.921 90.8222L342.203 90.9876C342.259 91.0222 342.251 91.0799 342.188 91.1184Z" fill="#797785"/>
<path d="M341.557 89.8914L341.31 90.0375C341.246 90.076 341.149 90.0798 341.092 90.0452L340.811 89.8798C340.755 89.8452 340.763 89.7875 340.826 89.7491L341.074 89.6029C341.137 89.5644 341.235 89.5606 341.291 89.5952L341.572 89.7606C341.628 89.7952 341.621 89.8529 341.557 89.8914Z" fill="#797785"/>
<path d="M342.232 90.2914L341.985 90.4376C341.921 90.476 341.823 90.4799 341.767 90.4453L341.486 90.2799C341.43 90.2452 341.437 90.1875 341.501 90.1491L341.749 90.0029C341.812 89.9645 341.91 89.9606 341.966 89.9952L342.247 90.1606C342.303 90.1952 342.296 90.2529 342.232 90.2914Z" fill="#797785"/>
<path d="M342.911 90.6914L342.663 90.8376C342.6 90.876 342.502 90.8799 342.446 90.8453L342.165 90.6799C342.109 90.6453 342.116 90.5876 342.18 90.5491L342.427 90.4029C342.491 90.3645 342.588 90.3606 342.645 90.3953L342.926 90.5606C342.982 90.5953 342.974 90.653 342.911 90.6914Z" fill="#797785"/>
<path d="M342.281 89.4606L342.033 89.6067C341.97 89.6452 341.872 89.6491 341.816 89.6144L341.535 89.449C341.479 89.4144 341.486 89.3567 341.55 89.3183L341.797 89.1721C341.861 89.1336 341.959 89.1298 342.015 89.1644L342.296 89.3298C342.352 89.3644 342.345 89.4221 342.281 89.4606Z" fill="#797785"/>
<path d="M342.956 89.8606L342.708 90.0068C342.645 90.0452 342.547 90.0491 342.491 90.0145L342.21 89.8491C342.154 89.8145 342.161 89.7568 342.225 89.7183L342.472 89.5721C342.536 89.5337 342.633 89.5298 342.69 89.5644L342.971 89.7298C343.027 89.7645 343.019 89.8221 342.956 89.8606Z" fill="#797785"/>
<path d="M343.634 90.2606L343.387 90.4068C343.323 90.4453 343.226 90.4491 343.17 90.4145L342.888 90.2491C342.832 90.2145 342.84 90.1568 342.903 90.1183L343.151 89.9722C343.215 89.9337 343.312 89.9298 343.368 89.9645L343.649 90.1299C343.706 90.1645 343.698 90.2222 343.634 90.2606Z" fill="#797785"/>
<path d="M343.293 88.8605L342.757 89.1798C342.693 89.2183 342.596 89.2221 342.54 89.1875L342.259 89.0221C342.202 88.9875 342.21 88.9298 342.274 88.8913L342.81 88.5721C342.873 88.5336 342.971 88.5298 343.027 88.5644L343.308 88.7298C343.364 88.7644 343.357 88.8221 343.293 88.8605Z" fill="#797785"/>
<path d="M343.971 89.2606L343.435 89.5798C343.372 89.6183 343.274 89.6221 343.218 89.5875L342.937 89.4221C342.881 89.3875 342.888 89.3298 342.952 89.2913L343.488 88.9721C343.552 88.9336 343.649 88.9298 343.705 88.9644L343.986 89.1298C344.043 89.1644 344.035 89.2221 343.971 89.2606Z" fill="#797785"/>
<path d="M344.646 89.6606L344.11 89.9798C344.046 90.0183 343.949 90.0222 343.893 89.9875L343.612 89.8221C343.555 89.7875 343.563 89.7298 343.627 89.6914L344.163 89.3721C344.226 89.3337 344.324 89.3298 344.38 89.3644L344.661 89.5298C344.717 89.5644 344.71 89.6221 344.646 89.6606Z" fill="#797785"/>
<path d="M340.834 90.2183L340.587 90.3644C340.523 90.4029 340.426 90.4067 340.369 90.3721L340.088 90.2067C340.032 90.1721 340.039 90.1144 340.103 90.076L340.351 89.9298C340.414 89.8913 340.512 89.8875 340.568 89.9221L340.849 90.0875C340.905 90.1221 340.898 90.1798 340.834 90.2183Z" fill="#BCBACF"/>
<path d="M341.509 90.6183L341.262 90.7645C341.198 90.8029 341.1 90.8068 341.044 90.7722L340.763 90.6068C340.707 90.5721 340.714 90.5145 340.778 90.476L341.025 90.3298C341.089 90.2914 341.187 90.2875 341.243 90.3221L341.524 90.4875C341.58 90.5221 341.573 90.5798 341.509 90.6183Z" fill="#BCBACF"/>
<path d="M342.188 91.0183L341.94 91.1645C341.876 91.203 341.779 91.2068 341.723 91.1722L341.442 91.0068C341.385 90.9722 341.393 90.9145 341.457 90.876L341.704 90.7298C341.768 90.6914 341.865 90.6875 341.921 90.7222L342.203 90.8875C342.259 90.9222 342.251 90.9799 342.188 91.0183Z" fill="#BCBACF"/>
<path d="M341.557 89.7913L341.31 89.9375C341.246 89.976 341.149 89.9798 341.092 89.9452L340.811 89.7798C340.755 89.7452 340.763 89.6875 340.826 89.649L341.074 89.5029C341.137 89.4644 341.235 89.4605 341.291 89.4952L341.572 89.6606C341.628 89.6952 341.621 89.7529 341.557 89.7913Z" fill="#BCBACF"/>
<path d="M342.232 90.1913L341.985 90.3375C341.921 90.3759 341.823 90.3798 341.767 90.3452L341.486 90.1798C341.43 90.1451 341.437 90.0874 341.501 90.049L341.749 89.9028C341.812 89.8644 341.91 89.8605 341.966 89.8951L342.247 90.0605C342.303 90.0951 342.296 90.1528 342.232 90.1913Z" fill="#BCBACF"/>
<path d="M342.911 90.5914L342.663 90.7375C342.6 90.776 342.502 90.7799 342.446 90.7452L342.165 90.5798C342.109 90.5452 342.116 90.4875 342.18 90.4491L342.427 90.3029C342.491 90.2644 342.588 90.2606 342.645 90.2952L342.926 90.4606C342.982 90.4952 342.974 90.5529 342.911 90.5914Z" fill="#BCBACF"/>
<path d="M342.281 89.3605L342.033 89.5067C341.97 89.5452 341.872 89.549 341.816 89.5144L341.535 89.349C341.479 89.3144 341.486 89.2567 341.55 89.2182L341.797 89.0721C341.861 89.0336 341.959 89.0298 342.015 89.0644L342.296 89.2298C342.352 89.2644 342.345 89.3221 342.281 89.3605Z" fill="#BCBACF"/>
<path d="M342.956 89.7606L342.708 89.9067C342.645 89.9452 342.547 89.949 342.491 89.9144L342.21 89.749C342.154 89.7144 342.161 89.6567 342.225 89.6183L342.472 89.4721C342.536 89.4336 342.633 89.4298 342.69 89.4644L342.971 89.6298C343.027 89.6644 343.019 89.7221 342.956 89.7606Z" fill="#BCBACF"/>
<path d="M343.634 90.1605L343.387 90.3067C343.323 90.3452 343.226 90.349 343.17 90.3144L342.888 90.149C342.832 90.1144 342.84 90.0567 342.903 90.0182L343.151 89.8721C343.215 89.8336 343.312 89.8297 343.368 89.8644L343.649 90.0298C343.706 90.0644 343.698 90.1221 343.634 90.1605Z" fill="#BCBACF"/>
<path d="M343.293 88.7605L342.757 89.0798C342.693 89.1182 342.596 89.1221 342.54 89.0875L342.259 88.9221C342.202 88.8874 342.21 88.8297 342.274 88.7913L342.81 88.472C342.873 88.4336 342.971 88.4297 343.027 88.4643L343.308 88.6297C343.364 88.6644 343.357 88.7221 343.293 88.7605Z" fill="#BCBACF"/>
<path d="M343.971 89.1605L343.435 89.4798C343.372 89.5182 343.274 89.5221 343.218 89.4875L342.937 89.3221C342.881 89.2875 342.888 89.2298 342.952 89.1913L343.488 88.8721C343.552 88.8336 343.649 88.8297 343.705 88.8644L343.986 89.0298C344.043 89.0644 344.035 89.1221 343.971 89.1605Z" fill="#BCBACF"/>
<path d="M344.646 89.5605L344.11 89.8797C344.046 89.9182 343.949 89.9221 343.893 89.8874L343.612 89.722C343.555 89.6874 343.563 89.6297 343.627 89.5913L344.163 89.272C344.226 89.2336 344.324 89.2297 344.38 89.2643L344.661 89.4297C344.717 89.4643 344.71 89.522 344.646 89.5605Z" fill="#BCBACF"/>
<path d="M336.918 90.2723L334.89 91.4723L334.95 91.6877L336.977 90.4877L336.918 90.2723Z" fill="#143233"/>
<path d="M337.168 90.226L334.687 91.6953L334.706 91.753L337.187 90.2836L337.168 90.226Z" fill="#143233"/>
<path d="M341.618 57.5664L327.202 66.1054L325.695 65.213L340.111 56.6741L341.618 57.5664Z" fill="#434361"/>
<path d="M341.618 57.5665L327.202 66.1054L328.776 76.3291L343.192 67.7863L341.618 57.5665Z" fill="#3B3B54"/>
<path d="M328.142 66.5669L340.965 58.9703L342.251 67.3247L329.428 74.9251L328.142 66.5669Z" fill="#E2E5E8"/>
<path d="M325.695 65.2131L327.202 66.1054L328.776 76.3291L325.695 74.5021V65.2131Z" fill="#2C2C40"/>
<path d="M333.926 69.7094L333.015 70.2479L332.674 69.5825L331.778 70.1133L331.692 71.0326L330.781 71.5711L331.336 66.9131L332.108 66.4554L333.926 69.7094ZM332.333 68.8132L331.921 67.7939L331.898 67.8093L331.831 69.1132L332.333 68.8171V68.8132Z" fill="#007AFF"/>
<path d="M334.867 65.8554L335.335 68.8748L334.477 69.3825L334.008 66.3631L333.116 66.89L332.966 65.94L335.609 64.3745L335.759 65.3246L334.867 65.8515V65.8554Z" fill="#007AFF"/>
<path d="M335.943 64.1822L336.79 63.6783L337.798 65.1976L338.207 62.8398L339.054 62.3359L339.672 66.2977L338.818 66.8016L338.645 65.6554L338.574 64.8245L338.544 64.8361L338.315 66.4592L337.731 66.8054L337.067 65.7131L337.045 65.7323L337.225 66.4977L337.401 67.6401L336.554 68.144L335.935 64.1822H335.943Z" fill="#007AFF"/>
</g>
<path fill-rule="evenodd" clip-rule="evenodd" d="M56.7914 305.092L48.9701 299.326C46.8969 297.797 43.5507 298.819 42.0527 300.85L25.3271 323.537C23.8296 325.568 24.2949 328.454 26.3681 329.983L34.1894 335.749C36.2619 337.277 39.1578 336.87 40.6557 334.838L57.3813 312.151C58.8779 310.119 58.864 306.62 56.7914 305.092ZM53.0692 316.623L47.4634 324.227L45.4795 323.117L47.7891 319.984L53.0692 316.623ZM48.1925 318.154C48.1925 318.154 51.2081 315.739 53.7581 313.695C49.0409 307.203 41.7551 304.801 41.6479 304.766L41.6467 304.766L39.035 311.402L48.1925 318.154ZM37.2749 312.55L35.1161 315.478L33.4681 313.912L38.9244 306.511L37.2749 312.55ZM32.6405 315.035L27.6623 321.787L30.3528 321.94L34.2915 316.597L32.6405 315.035ZM27.2831 324.47L30.3616 323.383L39.5211 330.136L39.3938 333.398L27.2831 324.47ZM44.6489 324.244L40.8659 329.375L41.8059 331.901L46.6346 325.351L44.6489 324.244Z" fill="black"/>
</g>
<defs>
<clipPath id="clip0_713_10341">
<rect width="420" height="397" rx="10" fill="white"/>
</clipPath>
<clipPath id="clip1_713_10341">
<rect width="31.5651" height="70.2578" fill="white" transform="translate(317.632 52.2162)"/>
</clipPath>
</defs>
</svg>
