<svg width="650" height="496" viewBox="0 0 650 496" fill="none" xmlns="http://www.w3.org/2000/svg">
<g filter="url(#filter0_bd_587_5821)">
<g clip-path="url(#clip0_587_5821)">
<rect x="75" y="197.96" width="366.56" height="213.271" transform="rotate(-9.52 75 197.96)" fill="#007AFF"/>
<circle cx="406.265" cy="350.652" r="109.301" transform="rotate(35.48 406.265 350.652)" fill="#2C91FF"/>
<g style="mix-blend-mode:lighten">
<circle cx="372.166" cy="187.212" r="109.301" transform="rotate(35.48 372.166 187.212)" fill="#002994"/>
</g>
<path d="M128.927 376.788L127.449 367.975L130.53 367.458C131.144 367.355 131.668 367.376 132.103 367.522C132.537 367.664 132.881 367.897 133.136 368.22C133.39 368.54 133.553 368.916 133.625 369.346C133.689 369.725 133.674 370.049 133.58 370.318C133.49 370.587 133.348 370.811 133.154 370.991C132.963 371.171 132.747 371.316 132.506 371.427L132.52 371.513C132.793 371.485 133.08 371.535 133.381 371.661C133.682 371.787 133.952 371.996 134.189 372.286C134.427 372.577 134.584 372.954 134.662 373.419C134.737 373.861 134.703 374.275 134.561 374.662C134.419 375.048 134.149 375.381 133.751 375.66C133.352 375.94 132.806 376.137 132.112 376.254L128.927 376.788ZM129.836 375.662L131.953 375.307C132.65 375.19 133.122 374.972 133.37 374.654C133.619 374.332 133.712 373.977 133.647 373.59C133.597 373.291 133.475 373.029 133.28 372.802C133.085 372.572 132.835 372.404 132.528 372.3C132.221 372.192 131.875 372.17 131.491 372.235L129.322 372.598L129.836 375.662ZM129.166 371.669L131.145 371.337C131.467 371.283 131.746 371.171 131.983 371.002C132.223 370.832 132.4 370.619 132.513 370.364C132.63 370.109 132.662 369.826 132.61 369.516C132.545 369.129 132.355 368.823 132.04 368.599C131.725 368.371 131.274 368.307 130.689 368.405L128.675 368.743L129.166 371.669ZM137.17 375.405L136.051 375.593L137.809 366.238L138.911 366.053L143.625 374.323L142.506 374.511L138.628 367.534L138.559 367.545L137.17 375.405ZM137.006 371.894L141.516 371.137L141.674 372.084L137.165 372.84L137.006 371.894ZM144.997 374.093L143.52 365.28L146.601 364.763C147.215 364.66 147.739 364.681 148.173 364.827C148.607 364.969 148.951 365.202 149.206 365.525C149.46 365.845 149.623 366.221 149.696 366.651C149.759 367.03 149.744 367.354 149.651 367.623C149.56 367.892 149.418 368.116 149.224 368.296C149.033 368.476 148.817 368.621 148.576 368.732L148.59 368.818C148.863 368.79 149.15 368.84 149.451 368.966C149.753 369.092 150.022 369.301 150.259 369.591C150.497 369.882 150.655 370.26 150.733 370.724C150.807 371.166 150.773 371.58 150.631 371.967C150.49 372.353 150.22 372.686 149.821 372.965C149.422 373.245 148.876 373.442 148.182 373.559L144.997 374.093ZM145.906 372.967L148.023 372.612C148.72 372.495 149.192 372.277 149.44 371.959C149.69 371.637 149.782 371.282 149.717 370.895C149.667 370.596 149.545 370.334 149.35 370.107C149.156 369.877 148.905 369.709 148.598 369.605C148.291 369.497 147.945 369.475 147.561 369.54L145.392 369.903L145.906 372.967ZM145.236 368.974L147.216 368.642C147.537 368.588 147.816 368.476 148.053 368.307C148.293 368.137 148.47 367.924 148.583 367.669C148.7 367.414 148.732 367.131 148.68 366.821C148.615 366.434 148.425 366.128 148.11 365.904C147.795 365.676 147.345 365.612 146.759 365.71L144.745 366.048L145.236 368.974ZM153.24 372.71L152.121 372.898L153.879 363.543L154.981 363.358L159.695 371.628L158.576 371.816L154.698 364.839L154.63 364.85L153.24 372.71ZM153.076 369.199L157.586 368.442L157.744 369.389L153.235 370.145L153.076 369.199ZM158.237 363.785L158.078 362.838L164.688 361.73L164.847 362.677L162.075 363.141L163.395 371.008L162.327 371.187L161.008 363.32L158.237 363.785ZM172.118 360.484L173.186 360.305L174.164 366.14C174.265 366.742 174.213 367.304 174.009 367.825C173.806 368.343 173.471 368.781 173.004 369.14C172.535 369.495 171.955 369.731 171.264 369.847C170.573 369.963 169.948 369.929 169.389 369.746C168.83 369.559 168.369 369.255 168.006 368.832C167.645 368.406 167.414 367.891 167.313 367.289L166.335 361.454L167.402 361.275L168.366 367.024C168.438 367.454 168.597 367.821 168.843 368.125C169.088 368.426 169.402 368.643 169.784 368.777C170.169 368.907 170.606 368.931 171.097 368.849C171.587 368.767 171.993 368.601 172.314 368.353C172.635 368.101 172.86 367.793 172.991 367.429C173.124 367.062 173.155 366.663 173.082 366.233L172.118 360.484ZM182.305 358.776L183.783 367.588L182.75 367.762L176.787 361.647L176.701 361.662L177.862 368.581L176.795 368.76L175.317 359.947L176.349 359.774L182.332 365.903L182.418 365.888L181.255 358.952L182.305 358.776ZM188.638 366.774L185.918 367.23L184.44 358.417L187.281 357.941C188.135 357.798 188.897 357.852 189.564 358.102C190.231 358.35 190.781 358.776 191.216 359.378C191.65 359.978 191.943 360.734 192.096 361.646C192.25 362.564 192.219 363.382 192.003 364.1C191.787 364.814 191.396 365.402 190.83 365.862C190.264 366.32 189.533 366.624 188.638 366.774ZM186.827 366.105L188.41 365.839C189.139 365.717 189.719 365.475 190.151 365.114C190.583 364.752 190.873 364.292 191.021 363.733C191.17 363.175 191.184 362.537 191.063 361.819C190.944 361.108 190.725 360.515 190.407 360.04C190.088 359.563 189.674 359.225 189.166 359.027C188.657 358.827 188.059 358.784 187.37 358.899L185.666 359.185L186.827 366.105ZM194.628 365.77L193.15 356.957L198.469 356.065L198.627 357.012L194.376 357.725L194.875 360.702L198.851 360.036L199.01 360.982L195.034 361.649L195.536 364.644L199.857 363.919L200.016 364.866L194.628 365.77ZM205.64 363.923L204.521 364.111L206.279 354.755L207.381 354.57L212.094 362.841L210.976 363.028L207.098 356.051L207.029 356.063L205.64 363.923ZM205.476 360.411L209.985 359.655L210.144 360.602L205.634 361.358L205.476 360.411ZM216.187 362.154L213.467 362.61L211.989 353.797L214.829 353.321C215.684 353.178 216.445 353.232 217.113 353.482C217.78 353.73 218.33 354.156 218.765 354.758C219.198 355.358 219.492 356.114 219.645 357.026C219.799 357.944 219.768 358.762 219.552 359.48C219.336 360.194 218.944 360.782 218.379 361.242C217.813 361.7 217.082 362.004 216.187 362.154ZM214.376 361.485L215.959 361.219C216.688 361.097 217.268 360.855 217.7 360.494C218.132 360.132 218.422 359.672 218.57 359.113C218.718 358.555 218.732 357.917 218.612 357.199C218.493 356.488 218.274 355.895 217.955 355.42C217.636 354.943 217.223 354.605 216.715 354.407C216.206 354.207 215.608 354.164 214.919 354.279L213.215 354.565L214.376 361.485ZM222.177 361.15L220.699 352.337L226.018 351.445L226.176 352.392L221.925 353.105L222.424 356.082L226.4 355.416L226.559 356.362L222.583 357.029L223.085 360.024L227.406 359.3L227.564 360.246L222.177 361.15ZM229.419 359.935L227.941 351.122L231.022 350.606C231.636 350.503 232.16 350.524 232.595 350.669C233.028 350.812 233.373 351.045 233.627 351.368C233.882 351.688 234.045 352.063 234.117 352.493C234.181 352.872 234.166 353.196 234.072 353.465C233.982 353.734 233.839 353.959 233.645 354.139C233.454 354.318 233.238 354.463 232.997 354.575L233.012 354.661C233.284 354.633 233.571 354.682 233.873 354.808C234.174 354.935 234.444 355.143 234.681 355.434C234.919 355.724 235.076 356.102 235.154 356.567C235.228 357.008 235.194 357.423 235.053 357.809C234.911 358.196 234.641 358.529 234.243 358.808C233.844 359.087 233.298 359.285 232.603 359.401L229.419 359.935ZM230.327 358.81L232.445 358.454C233.142 358.338 233.614 358.12 233.861 357.801C234.111 357.479 234.204 357.124 234.139 356.737C234.089 356.439 233.966 356.176 233.772 355.949C233.577 355.719 233.326 355.552 233.02 355.447C232.713 355.339 232.367 355.317 231.982 355.382L229.814 355.746L230.327 358.81ZM229.658 354.816L231.637 354.484C231.959 354.43 232.238 354.319 232.475 354.149C232.715 353.979 232.891 353.767 233.005 353.512C233.121 353.256 233.154 352.973 233.102 352.664C233.037 352.276 232.847 351.97 232.532 351.746C232.216 351.519 231.766 351.454 231.181 351.552L229.167 351.89L229.658 354.816ZM237.662 358.553L236.543 358.74L238.301 349.385L239.403 349.2L244.116 357.47L242.998 357.658L239.12 350.681L239.051 350.693L237.662 358.553ZM237.498 355.041L242.007 354.285L242.166 355.231L237.656 355.988L237.498 355.041ZM242.355 348.705L243.577 348.5L246.711 352.204L246.814 352.187L248.568 347.663L249.79 347.458L247.475 353.173L248.084 356.805L247.017 356.984L246.408 353.352L242.355 348.705ZM258.931 350.456C259.087 351.385 259.054 352.216 258.832 352.95C258.61 353.683 258.237 354.282 257.713 354.748C257.19 355.213 256.552 355.509 255.8 355.635C255.049 355.761 254.35 355.689 253.703 355.42C253.056 355.151 252.508 354.706 252.059 354.086C251.61 353.465 251.307 352.69 251.151 351.76C250.995 350.831 251.028 349.999 251.251 349.266C251.473 348.533 251.846 347.933 252.369 347.468C252.893 347.003 253.53 346.707 254.282 346.581C255.034 346.455 255.733 346.526 256.38 346.796C257.027 347.065 257.575 347.509 258.024 348.13C258.473 348.751 258.775 349.526 258.931 350.456ZM257.899 350.629C257.771 349.866 257.535 349.243 257.192 348.761C256.851 348.278 256.442 347.938 255.963 347.741C255.488 347.544 254.983 347.49 254.449 347.579C253.916 347.669 253.455 347.885 253.067 348.227C252.682 348.569 252.406 349.024 252.239 349.591C252.074 350.159 252.056 350.824 252.184 351.587C252.312 352.35 252.546 352.973 252.887 353.456C253.23 353.938 253.639 354.278 254.115 354.475C254.593 354.672 255.099 354.726 255.633 354.637C256.167 354.547 256.626 354.331 257.011 353.99C257.399 353.647 257.675 353.192 257.84 352.625C258.007 352.057 258.026 351.392 257.899 350.629Z" fill="white"/>
<path d="M323.559 340.184L323.31 338.279L321.88 339.563L321.346 338.909L322.885 337.748L321.051 337.153L321.343 336.361L323.114 337.108L322.728 335.226L323.554 335.088L323.803 336.993L325.233 335.709L325.767 336.362L324.228 337.523L326.062 338.118L325.77 338.91L323.999 338.163L324.385 340.045L323.559 340.184ZM329.618 339.168L329.369 337.263L327.939 338.547L327.404 337.893L328.944 336.732L327.11 336.137L327.402 335.345L329.173 336.092L328.787 334.21L329.613 334.072L329.862 335.977L331.292 334.693L331.826 335.346L330.287 336.507L332.121 337.102L331.829 337.894L330.058 337.147L330.444 339.029L329.618 339.168ZM335.677 338.151L335.428 336.246L333.998 337.53L333.463 336.877L335.003 335.716L333.169 335.121L333.461 334.329L335.232 335.076L334.845 333.194L335.672 333.056L335.92 334.961L337.351 333.677L337.885 334.33L336.346 335.491L338.18 336.086L337.888 336.878L336.117 336.131L336.503 338.013L335.677 338.151Z" fill="white"/>
<path d="M413.428 333.79L408.871 334.555L408.761 316.426L413.318 315.662L413.428 333.79Z" fill="white"/>
<path d="M427.06 313.801C426.102 313.595 424.61 313.439 422.847 313.735C418.346 314.49 415.58 317.424 416.137 320.864C416.525 323.405 419.067 324.426 420.934 324.982C422.842 325.55 423.536 326.014 423.665 326.784C423.846 327.969 422.53 328.75 421.218 328.97C419.399 329.275 418.377 329.158 416.785 328.748L416.137 328.567L416.164 332.636C417.315 332.944 419.357 333.047 421.404 332.723C426.186 331.921 428.902 329.033 428.325 325.365C428.006 323.353 426.53 322.017 423.694 321.2C421.964 320.659 420.897 320.279 420.758 319.452C420.651 318.698 421.329 317.793 423.128 317.491C424.603 317.205 425.752 317.379 426.636 317.598L427.08 317.716L427.06 313.801Z" fill="white"/>
<path d="M434.956 323.75C435.161 322.673 435.947 318.506 435.947 318.506C435.935 318.547 436.149 317.411 436.263 316.716L436.837 318.183C436.837 318.183 438.408 322.264 438.744 323.115C438.032 323.234 435.856 323.599 434.956 323.75ZM438.67 311.409L435.145 312C434.058 312.183 433.285 312.64 433.009 313.864L428.954 331.185L433.735 330.383C433.735 330.383 434.157 328.073 434.248 327.575C434.772 327.487 439.424 326.707 440.099 326.594C440.334 327.191 441.087 329.15 441.087 329.15L445.306 328.443L438.67 311.409Z" fill="white"/>
<path d="M402.104 317.542L399.659 330.327L398.762 327.967C397.465 325.289 394.364 322.663 391.221 321.626L397.897 336.375L402.716 335.567L406.923 316.734L402.104 317.542Z" fill="white"/>
<path d="M393.497 318.984L386.165 320.214L386.15 320.583C392.115 321.089 396.495 323.984 398.763 327.967L395.808 320.122C395.357 319.039 394.497 318.855 393.497 318.984Z" fill="white"/>
<path d="M117.484 299.056L117.235 297.151L115.805 298.435L115.27 297.781L116.81 296.62L114.976 296.025L115.268 295.233L117.039 295.98L116.653 294.098L117.479 293.96L117.727 295.865L119.158 294.581L119.692 295.234L118.153 296.395L119.987 296.99L119.695 297.782L117.924 297.035L118.31 298.917L117.484 299.056ZM123.543 298.04L123.294 296.135L121.864 297.419L121.329 296.765L122.869 295.604L121.035 295.009L121.327 294.217L123.098 294.964L122.711 293.082L123.538 292.944L123.786 294.849L125.217 293.565L125.751 294.218L124.211 295.379L126.045 295.974L125.754 296.766L123.983 296.019L124.369 297.901L123.543 298.04ZM129.602 297.023L129.353 295.119L127.922 296.403L127.388 295.749L128.928 294.588L127.094 293.993L127.386 293.201L129.157 293.948L128.77 292.066L129.596 291.928L129.845 293.833L131.276 292.549L131.81 293.202L130.27 294.363L132.104 294.958L131.812 295.75L130.041 295.003L130.428 296.885L129.602 297.023ZM135.66 296.007L135.412 294.102L133.981 295.386L133.447 294.733L134.987 293.572L133.153 292.977L133.444 292.185L135.215 292.932L134.829 291.05L135.655 290.912L135.904 292.817L137.334 291.533L137.869 292.186L136.329 293.347L138.163 293.942L137.871 294.734L136.1 293.987L136.487 295.869L135.66 296.007ZM145.127 294.42L144.879 292.515L143.448 293.799L142.914 293.145L144.454 291.984L142.619 291.39L142.911 290.597L144.682 291.344L144.296 289.463L145.122 289.324L145.371 291.229L146.801 289.945L147.336 290.599L145.796 291.759L147.63 292.354L147.338 293.146L145.567 292.399L145.954 294.281L145.127 294.42ZM151.186 293.404L150.938 291.499L149.507 292.783L148.973 292.129L150.512 290.968L148.678 290.373L148.97 289.581L150.741 290.328L150.355 288.446L151.181 288.308L151.43 290.213L152.86 288.929L153.395 289.583L151.855 290.743L153.689 291.338L153.397 292.13L151.626 291.383L152.012 293.265L151.186 293.404ZM157.245 292.388L156.996 290.483L155.566 291.767L155.032 291.113L156.571 289.952L154.737 289.357L155.029 288.565L156.8 289.312L156.414 287.43L157.24 287.292L157.489 289.197L158.919 287.913L159.453 288.566L157.914 289.727L159.748 290.322L159.456 291.114L157.685 290.367L158.071 292.249L157.245 292.388ZM163.304 291.372L163.055 289.467L161.625 290.751L161.09 290.097L162.63 288.936L160.796 288.341L161.088 287.549L162.859 288.296L162.473 286.414L163.299 286.276L163.547 288.181L164.978 286.897L165.512 287.55L163.973 288.711L165.807 289.306L165.515 290.098L163.744 289.351L164.13 291.233L163.304 291.372ZM172.771 289.784L172.522 287.879L171.092 289.163L170.557 288.509L172.097 287.349L170.263 286.754L170.555 285.961L172.326 286.709L171.94 284.827L172.766 284.688L173.014 286.593L174.445 285.309L174.979 285.963L173.44 287.123L175.274 287.718L174.982 288.511L173.211 287.764L173.597 289.645L172.771 289.784ZM178.83 288.768L178.581 286.863L177.151 288.147L176.616 287.493L178.156 286.333L176.322 285.738L176.614 284.945L178.385 285.692L177.998 283.811L178.825 283.672L179.073 285.577L180.504 284.293L181.038 284.947L179.498 286.107L181.333 286.702L181.041 287.495L179.27 286.747L179.656 288.629L178.83 288.768ZM184.889 287.752L184.64 285.847L183.209 287.131L182.675 286.477L184.215 285.316L182.381 284.722L182.673 283.929L184.444 284.676L184.057 282.795L184.883 282.656L185.132 284.561L186.563 283.277L187.097 283.931L185.557 285.091L187.391 285.686L187.099 286.478L185.328 285.731L185.715 287.613L184.889 287.752ZM190.947 286.736L190.699 284.831L189.268 286.115L188.734 285.461L190.274 284.3L188.44 283.705L188.731 282.913L190.502 283.66L190.116 281.778L190.942 281.64L191.191 283.545L192.621 282.261L193.156 282.914L191.616 284.075L193.45 284.67L193.158 285.462L191.387 284.715L191.774 286.597L190.947 286.736ZM202.765 288.718L202.635 287.943L205.01 284.271C205.289 283.841 205.516 283.47 205.69 283.157C205.865 282.842 205.984 282.553 206.05 282.292C206.117 282.027 206.128 281.759 206.083 281.49C206.031 281.18 205.912 280.924 205.725 280.723C205.54 280.521 205.31 280.379 205.034 280.299C204.758 280.218 204.461 280.205 204.142 280.258C203.804 280.315 203.52 280.435 203.291 280.617C203.065 280.797 202.904 281.023 202.808 281.296C202.715 281.568 202.696 281.872 202.753 282.208L201.737 282.378C201.651 281.862 201.694 281.388 201.866 280.958C202.039 280.528 202.312 280.17 202.686 279.883C203.062 279.596 203.507 279.409 204.021 279.323C204.537 279.236 205.013 279.268 205.448 279.42C205.884 279.571 206.246 279.812 206.535 280.144C206.823 280.476 207.006 280.869 207.082 281.322C207.136 281.647 207.13 281.973 207.065 282.303C207.001 282.629 206.858 283.006 206.635 283.432C206.414 283.856 206.096 284.381 205.682 285.008L204.058 287.457L204.069 287.526L208.166 286.839L208.325 287.786L202.765 288.718ZM211.722 278.155L213.2 286.968L212.133 287.147L210.843 279.453L210.791 279.462L208.879 281.251L208.697 280.167L210.655 278.334L211.722 278.155ZM218.578 286.19C217.987 286.289 217.447 286.272 216.959 286.139C216.473 286.002 216.073 285.77 215.758 285.442C215.443 285.111 215.247 284.708 215.17 284.231C215.105 283.858 215.12 283.502 215.216 283.161C215.312 282.818 215.471 282.518 215.694 282.263C215.919 282.004 216.187 281.819 216.499 281.707L216.49 281.656C216.05 281.618 215.675 281.437 215.364 281.115C215.053 280.789 214.86 280.393 214.784 279.924C214.706 279.477 214.752 279.058 214.923 278.667C215.093 278.276 215.362 277.944 215.729 277.673C216.1 277.402 216.543 277.223 217.059 277.136C217.57 277.051 218.043 277.076 218.479 277.212C218.915 277.349 219.277 277.574 219.566 277.888C219.857 278.202 220.042 278.583 220.12 279.03C220.196 279.498 220.138 279.937 219.947 280.346C219.759 280.752 219.467 281.045 219.072 281.223L219.081 281.274C219.409 281.278 219.719 281.367 220.01 281.539C220.301 281.708 220.549 281.94 220.754 282.233C220.959 282.523 221.095 282.854 221.16 283.226C221.237 283.703 221.179 284.149 220.986 284.565C220.796 284.977 220.493 285.328 220.079 285.615C219.666 285.9 219.166 286.091 218.578 286.19ZM218.419 285.243C218.818 285.176 219.151 285.054 219.419 284.876C219.687 284.699 219.881 284.479 219.999 284.217C220.117 283.956 220.151 283.667 220.101 283.351C220.043 283.018 219.907 282.739 219.695 282.512C219.483 282.285 219.219 282.123 218.901 282.026C218.587 281.928 218.244 281.91 217.871 281.973C217.495 282.036 217.171 282.165 216.9 282.361C216.632 282.557 216.435 282.796 216.309 283.08C216.185 283.363 216.153 283.671 216.211 284.003C216.261 284.319 216.384 284.582 216.578 284.791C216.775 285 217.031 285.144 217.345 285.224C217.66 285.304 218.017 285.311 218.419 285.243ZM217.718 281.061C218.033 281.008 218.302 280.898 218.525 280.731C218.751 280.563 218.915 280.354 219.017 280.104C219.12 279.854 219.147 279.576 219.099 279.272C219.046 278.974 218.932 278.726 218.757 278.528C218.582 278.327 218.362 278.187 218.098 278.108C217.834 278.025 217.54 278.011 217.215 278.066C216.885 278.121 216.607 278.231 216.381 278.396C216.155 278.558 215.993 278.762 215.896 279.008C215.798 279.252 215.776 279.522 215.828 279.82C215.877 280.125 215.988 280.379 216.164 280.582C216.343 280.785 216.566 280.929 216.834 281.014C217.102 281.099 217.396 281.115 217.718 281.061ZM226.2 284.912C225.632 285.007 225.109 284.994 224.632 284.874C224.157 284.753 223.76 284.541 223.441 284.237C223.124 283.931 222.916 283.548 222.815 283.09L223.9 282.908C223.97 283.189 224.109 283.418 224.316 283.595C224.522 283.77 224.773 283.89 225.071 283.955C225.368 284.021 225.685 284.025 226.024 283.968C226.403 283.904 226.727 283.782 226.998 283.601C227.268 283.42 227.467 283.198 227.594 282.935C227.721 282.672 227.758 282.385 227.706 282.075C227.652 281.751 227.524 281.479 227.322 281.26C227.119 281.037 226.851 280.881 226.518 280.793C226.184 280.704 225.794 280.697 225.346 280.772L224.641 280.891L224.482 279.944L225.188 279.826C225.538 279.767 225.834 279.652 226.077 279.482C226.322 279.311 226.5 279.098 226.611 278.844C226.725 278.589 226.756 278.306 226.704 277.996C226.654 277.698 226.544 277.449 226.375 277.251C226.206 277.052 225.991 276.911 225.729 276.828C225.47 276.745 225.179 276.73 224.855 276.785C224.55 276.836 224.273 276.94 224.022 277.097C223.774 277.25 223.582 277.446 223.448 277.684C223.313 277.919 223.264 278.184 223.298 278.479L222.266 278.652C222.205 278.187 222.277 277.76 222.479 277.369C222.682 276.975 222.977 276.645 223.366 276.379C223.758 276.113 224.208 275.937 224.716 275.852C225.261 275.761 225.747 275.793 226.174 275.948C226.601 276.101 226.949 276.339 227.219 276.662C227.488 276.986 227.658 277.356 227.728 277.772C227.811 278.268 227.751 278.713 227.549 279.107C227.349 279.5 227.039 279.801 226.617 280.011L226.628 280.08C227.2 280.078 227.674 280.242 228.051 280.571C228.427 280.897 228.662 281.34 228.756 281.899C228.837 282.378 228.778 282.831 228.581 283.256C228.386 283.678 228.084 284.035 227.673 284.329C227.262 284.622 226.771 284.816 226.2 284.912Z" fill="white"/>
</g>
</g>
<g filter="url(#filter1_bd_587_5821)">
<g clip-path="url(#clip1_587_5821)">
<rect x="213.309" y="63" width="366.56" height="213.271" transform="rotate(9.52 213.309 63)" fill="black"/>
<rect x="213.309" y="63" width="366.56" height="213.271" transform="rotate(9.52 213.309 63)" fill="url(#paint0_linear_587_5821)" fill-opacity="0.2"/>
<circle cx="476.639" cy="315.408" r="109.301" transform="rotate(54.52 476.639 315.408)" fill="#2C91FF"/>
<g style="mix-blend-mode:lighten">
<circle cx="497.724" cy="149.786" r="109.301" transform="rotate(54.52 497.724 149.786)" fill="#002994"/>
</g>
<path d="M214.056 244.766L212.988 244.587C212.977 244.27 212.912 243.982 212.793 243.723C212.677 243.464 212.52 243.238 212.323 243.042C212.129 242.845 211.904 242.683 211.648 242.557C211.391 242.432 211.117 242.345 210.824 242.296C210.291 242.206 209.785 242.26 209.306 242.457C208.831 242.654 208.421 242.994 208.078 243.476C207.738 243.959 207.503 244.582 207.375 245.345C207.247 246.108 207.266 246.773 207.43 247.341C207.597 247.908 207.873 248.363 208.259 248.705C208.647 249.047 209.107 249.263 209.641 249.353C209.934 249.402 210.221 249.409 210.505 249.374C210.788 249.339 211.053 249.261 211.3 249.14C211.551 249.017 211.773 248.852 211.967 248.646C212.164 248.437 212.32 248.186 212.434 247.892L213.501 248.071C213.345 248.508 213.132 248.887 212.86 249.207C212.588 249.527 212.273 249.785 211.916 249.982C211.559 250.176 211.173 250.304 210.758 250.367C210.346 250.431 209.918 250.426 209.473 250.351C208.722 250.225 208.084 249.929 207.561 249.464C207.037 248.999 206.664 248.399 206.442 247.666C206.22 246.933 206.187 246.101 206.343 245.172C206.498 244.242 206.801 243.467 207.25 242.846C207.699 242.226 208.247 241.781 208.894 241.512C209.541 241.243 210.24 241.171 210.992 241.297C211.436 241.372 211.843 241.506 212.212 241.701C212.583 241.896 212.905 242.145 213.179 242.447C213.453 242.747 213.667 243.092 213.819 243.484C213.973 243.872 214.051 244.3 214.056 244.766ZM214.764 251.114L216.242 242.302L217.309 242.481L215.99 250.347L220.087 251.034L219.928 251.98L214.764 251.114ZM222.498 252.411L221.379 252.224L226.093 243.954L227.195 244.138L228.953 253.494L227.834 253.306L226.444 245.446L226.375 245.434L222.498 252.411ZM223.488 249.038L227.998 249.794L227.839 250.741L223.33 249.985L223.488 249.038ZM230.325 253.724L231.803 244.911L234.781 245.411C235.47 245.526 236.015 245.738 236.417 246.048C236.82 246.354 237.094 246.729 237.237 247.172C237.381 247.615 237.41 248.096 237.323 248.615C237.236 249.134 237.052 249.577 236.773 249.943C236.493 250.309 236.115 250.57 235.637 250.726C235.16 250.879 234.58 250.898 233.898 250.784L231.488 250.38L231.649 249.416L234.025 249.814C234.495 249.893 234.886 249.888 235.196 249.798C235.508 249.709 235.75 249.549 235.922 249.318C236.097 249.085 236.214 248.792 236.273 248.439C236.332 248.086 236.318 247.767 236.23 247.481C236.142 247.195 235.966 246.956 235.7 246.764C235.435 246.569 235.064 246.431 234.588 246.352L232.712 246.037L231.392 253.903L230.325 253.724ZM235.137 250.461L236.642 254.783L235.403 254.576L233.933 250.259L235.137 250.461ZM238.076 255.024L239.554 246.211L244.873 247.103L244.714 248.05L240.463 247.337L239.963 250.315L243.939 250.981L243.781 251.928L239.805 251.261L239.302 254.256L243.623 254.981L243.464 255.927L238.076 255.024ZM253.785 248.598L252.307 257.41L251.274 257.237L247.632 249.512L247.546 249.498L246.386 256.417L245.319 256.238L246.797 247.426L247.829 247.599L251.486 255.344L251.572 255.358L252.735 248.421L253.785 248.598ZM262.55 252.899L261.483 252.72C261.471 252.402 261.406 252.114 261.287 251.855C261.171 251.597 261.015 251.37 260.817 251.175C260.623 250.977 260.398 250.816 260.142 250.69C259.886 250.565 259.611 250.477 259.319 250.428C258.785 250.339 258.279 250.392 257.801 250.589C257.325 250.787 256.916 251.127 256.573 251.609C256.232 252.092 255.998 252.714 255.87 253.478C255.742 254.241 255.76 254.906 255.924 255.473C256.092 256.041 256.368 256.496 256.753 256.838C257.141 257.18 257.602 257.396 258.135 257.485C258.428 257.534 258.716 257.541 258.999 257.506C259.282 257.471 259.547 257.393 259.795 257.273C260.045 257.149 260.268 256.985 260.462 256.778C260.659 256.569 260.815 256.318 260.929 256.025L261.996 256.204C261.84 256.641 261.626 257.019 261.354 257.339C261.082 257.66 260.767 257.918 260.41 258.115C260.053 258.308 259.667 258.437 259.253 258.5C258.841 258.564 258.413 258.558 257.968 258.484C257.216 258.358 256.579 258.062 256.055 257.597C255.531 257.131 255.159 256.532 254.936 255.799C254.714 255.065 254.681 254.234 254.837 253.304C254.993 252.375 255.295 251.6 255.745 250.979C256.194 250.358 256.742 249.913 257.389 249.644C258.035 249.375 258.735 249.304 259.486 249.43C259.931 249.504 260.338 249.639 260.706 249.833C261.077 250.028 261.4 250.277 261.674 250.58C261.948 250.879 262.161 251.225 262.314 251.616C262.467 252.005 262.546 252.432 262.55 252.899ZM263.258 259.247L264.736 250.434L270.055 251.326L269.896 252.273L265.645 251.56L265.145 254.538L269.122 255.204L268.963 256.151L264.987 255.484L264.484 258.479L268.805 259.204L268.646 260.151L263.258 259.247ZM279.837 255.232C279.858 254.787 279.706 254.413 279.379 254.111C279.052 253.808 278.622 253.612 278.088 253.523C277.698 253.457 277.346 253.463 277.032 253.54C276.721 253.618 276.466 253.753 276.265 253.947C276.067 254.141 275.945 254.378 275.898 254.66C275.858 254.895 275.88 255.106 275.964 255.294C276.051 255.48 276.174 255.644 276.333 255.786C276.492 255.924 276.664 256.046 276.847 256.15C277.03 256.252 277.2 256.338 277.357 256.408L278.211 256.8C278.431 256.898 278.672 257.024 278.935 257.178C279.202 257.331 279.448 257.522 279.676 257.749C279.906 257.973 280.083 258.242 280.204 258.554C280.326 258.866 280.352 259.229 280.283 259.642C280.203 260.118 280.006 260.528 279.692 260.87C279.381 261.213 278.968 261.458 278.454 261.605C277.942 261.752 277.348 261.769 276.671 261.656C276.04 261.55 275.511 261.356 275.083 261.075C274.658 260.795 274.344 260.45 274.141 260.041C273.942 259.633 273.865 259.185 273.911 258.698L275.013 258.882C274.986 259.22 275.051 259.514 275.21 259.765C275.372 260.013 275.594 260.216 275.878 260.372C276.165 260.527 276.483 260.633 276.833 260.692C277.24 260.76 277.617 260.755 277.963 260.678C278.31 260.597 278.598 260.454 278.827 260.248C279.057 260.038 279.199 259.773 279.253 259.452C279.302 259.159 279.26 258.907 279.127 258.696C278.995 258.485 278.805 258.3 278.557 258.141C278.309 257.981 278.038 257.832 277.743 257.694L276.71 257.203C276.055 256.889 275.557 256.515 275.217 256.081C274.877 255.646 274.757 255.132 274.856 254.538C274.939 254.045 275.145 253.637 275.473 253.314C275.805 252.989 276.214 252.763 276.702 252.635C277.193 252.505 277.719 252.487 278.281 252.582C278.849 252.677 279.337 252.864 279.745 253.141C280.153 253.416 280.457 253.75 280.656 254.144C280.859 254.537 280.93 254.958 280.87 255.405L279.837 255.232ZM283.114 253.516L284.388 253.73L286.156 261.547L286.259 261.565L290.481 254.752L291.755 254.965L290.277 263.778L289.279 263.611L290.401 256.915L290.315 256.9L286.439 263.134L285.475 262.973L283.843 255.815L283.757 255.801L282.635 262.496L281.636 262.329L283.114 253.516ZM294.962 255.503L293.484 264.316L292.417 264.137L293.895 255.324L294.962 255.503ZM296.461 256.728L296.62 255.781L303.229 256.889L303.07 257.836L300.299 257.371L298.98 265.238L297.913 265.059L299.232 257.192L296.461 256.728ZM303.398 265.979L304.876 257.166L305.943 257.345L305.285 261.269L309.984 262.057L310.643 258.133L311.71 258.312L310.232 267.125L309.165 266.946L309.826 263.004L305.127 262.216L304.466 266.158L303.398 265.979Z" fill="white"/>
<path d="M375.245 274.063L375.631 272.181L373.86 272.929L373.568 272.136L375.402 271.541L373.863 270.381L374.397 269.727L375.827 271.011L376.076 269.106L376.902 269.245L376.516 271.126L378.287 270.379L378.579 271.172L376.745 271.767L378.284 272.927L377.75 273.581L376.32 272.297L376.071 274.202L375.245 274.063ZM381.304 275.079L381.69 273.198L379.919 273.945L379.627 273.152L381.461 272.557L379.921 271.397L380.456 270.743L381.886 272.027L382.135 270.122L382.961 270.261L382.575 272.143L384.346 271.395L384.638 272.188L382.804 272.783L384.343 273.943L383.809 274.597L382.378 273.313L382.13 275.218L381.304 275.079ZM387.362 276.095L387.749 274.214L385.978 274.961L385.686 274.168L387.52 273.574L385.98 272.413L386.515 271.759L387.945 273.043L388.194 271.138L389.02 271.277L388.634 273.159L390.405 272.412L390.697 273.204L388.863 273.799L390.402 274.959L389.868 275.613L388.437 274.329L388.189 276.234L387.362 276.095Z" fill="white"/>
<path d="M488.911 301.803L484.354 301.039L490.164 283.867L494.721 284.631L488.911 301.803Z" fill="white"/>
<path d="M508.318 287.354C507.479 286.846 506.119 286.213 504.356 285.917C499.856 285.163 496.284 287.034 495.688 290.467C495.225 292.996 497.296 294.791 498.879 295.925C500.497 297.085 501.002 297.749 500.873 298.519C500.657 299.698 499.158 300.008 497.846 299.788C496.027 299.482 495.099 299.038 493.728 298.132L493.175 297.749L491.873 301.604C492.86 302.271 494.757 303.034 496.798 303.396C501.58 304.198 505.09 302.354 505.741 298.698C506.096 296.692 505.136 294.948 502.721 293.25C501.263 292.175 500.378 291.467 500.517 290.64C500.661 289.892 501.597 289.258 503.397 289.56C504.884 289.771 505.913 290.31 506.678 290.805L507.059 291.062L508.318 287.354Z" fill="white"/>
<path d="M512.536 299.335C513.082 298.384 515.184 294.702 515.184 294.702C515.159 294.736 515.732 293.732 516.067 293.113L516.13 294.687C516.13 294.687 516.285 299.057 516.324 299.97C515.612 299.851 513.436 299.486 512.536 299.335ZM520.073 288.881L516.548 288.29C515.461 288.108 514.581 288.288 513.92 289.355L504.437 304.405L509.219 305.207C509.219 305.207 510.371 303.161 510.619 302.72C511.144 302.808 515.795 303.588 516.47 303.701C516.497 304.343 516.57 306.44 516.57 306.44L520.789 307.148L520.073 288.881Z" fill="white"/>
<path d="M483.507 282.751L477.025 294.038L476.947 291.515C476.594 288.56 474.52 285.066 471.887 283.06L473.387 299.181L478.206 299.989L488.326 283.559L483.507 282.751Z" fill="white"/>
<path d="M474.899 281.306L467.567 280.076L467.432 280.42C472.906 282.844 476.102 287.01 476.947 291.515L476.713 283.135C476.64 281.964 475.887 281.51 474.899 281.306Z" fill="white"/>
<path d="M220.489 172.423L220.875 170.542L219.104 171.289L218.812 170.496L220.646 169.901L219.107 168.741L219.641 168.087L221.072 169.371L221.32 167.466L222.146 167.605L221.76 169.487L223.531 168.739L223.823 169.532L221.989 170.127L223.529 171.287L222.994 171.941L221.564 170.657L221.315 172.562L220.489 172.423ZM226.548 173.439L226.934 171.558L225.163 172.305L224.871 171.513L226.705 170.918L225.166 169.757L225.7 169.103L227.13 170.387L227.379 168.482L228.205 168.621L227.819 170.503L229.59 169.756L229.882 170.548L228.048 171.143L229.587 172.303L229.053 172.957L227.623 171.673L227.374 173.578L226.548 173.439ZM232.607 174.456L232.993 172.574L231.222 173.321L230.93 172.529L232.764 171.934L231.224 170.773L231.759 170.119L233.189 171.403L233.438 169.498L234.264 169.637L233.878 171.519L235.649 170.772L235.941 171.564L234.107 172.159L235.646 173.32L235.112 173.973L233.681 172.689L233.433 174.594L232.607 174.456ZM238.665 175.472L239.052 173.59L237.281 174.337L236.989 173.545L238.823 172.95L237.283 171.789L237.818 171.135L239.248 172.419L239.497 170.514L240.323 170.653L239.937 172.535L241.708 171.788L242 172.58L240.165 173.175L241.705 174.336L241.171 174.989L239.74 173.705L239.492 175.61L238.665 175.472ZM248.132 177.059L248.519 175.177L246.748 175.925L246.456 175.132L248.29 174.537L246.75 173.377L247.285 172.723L248.715 174.007L248.964 172.102L249.79 172.241L249.404 174.122L251.175 173.375L251.466 174.168L249.632 174.763L251.172 175.923L250.638 176.577L249.207 175.293L248.959 177.198L248.132 177.059ZM254.191 178.075L254.578 176.193L252.807 176.941L252.515 176.148L254.349 175.553L252.809 174.393L253.343 173.739L254.774 175.023L255.023 173.118L255.849 173.257L255.462 175.139L257.233 174.391L257.525 175.184L255.691 175.779L257.231 176.939L256.697 177.593L255.266 176.309L255.017 178.214L254.191 178.075ZM260.25 179.091L260.636 177.21L258.865 177.957L258.573 177.164L260.408 176.57L258.868 175.409L259.402 174.755L260.833 176.039L261.081 174.134L261.908 174.273L261.521 176.155L263.292 175.407L263.584 176.2L261.75 176.795L263.29 177.955L262.755 178.609L261.325 177.325L261.076 179.23L260.25 179.091ZM266.309 180.108L266.695 178.226L264.924 178.973L264.632 178.181L266.466 177.586L264.927 176.425L265.461 175.771L266.892 177.055L267.14 175.15L267.966 175.289L267.58 177.171L269.351 176.424L269.643 177.216L267.809 177.811L269.349 178.971L268.814 179.625L267.384 178.341L267.135 180.246L266.309 180.108ZM275.776 181.695L276.162 179.813L274.391 180.56L274.099 179.768L275.933 179.173L274.394 178.012L274.928 177.359L276.359 178.643L276.607 176.738L277.433 176.876L277.047 178.758L278.818 178.011L279.11 178.803L277.276 179.398L278.816 180.559L278.281 181.213L276.851 179.929L276.602 181.834L275.776 181.695ZM281.835 182.711L282.221 180.829L280.45 181.576L280.158 180.784L281.992 180.189L280.453 179.029L280.987 178.375L282.417 179.659L282.666 177.754L283.492 177.893L283.106 179.774L284.877 179.027L285.169 179.819L283.335 180.414L284.874 181.575L284.34 182.229L282.91 180.945L282.661 182.85L281.835 182.711ZM287.894 183.727L288.28 181.845L286.509 182.593L286.217 181.8L288.051 181.205L286.511 180.045L287.046 179.391L288.476 180.675L288.725 178.77L289.551 178.909L289.165 180.79L290.936 180.043L291.228 180.836L289.394 181.431L290.933 182.591L290.399 183.245L288.968 181.961L288.72 183.866L287.894 183.727ZM293.952 184.743L294.339 182.862L292.568 183.609L292.276 182.816L294.11 182.221L292.57 181.061L293.105 180.407L294.535 181.691L294.784 179.786L295.61 179.925L295.224 181.807L296.995 181.059L297.287 181.852L295.452 182.447L296.992 183.607L296.458 184.261L295.027 182.977L294.779 184.882L293.952 184.743ZM304.477 190.472L304.607 189.698L308.05 187.001C308.454 186.686 308.789 186.409 309.056 186.17C309.324 185.929 309.531 185.695 309.678 185.469C309.828 185.241 309.926 184.992 309.972 184.722C310.023 184.412 309.994 184.132 309.883 183.88C309.774 183.629 309.603 183.42 309.368 183.254C309.134 183.088 308.857 182.978 308.539 182.925C308.2 182.868 307.893 182.889 307.617 182.987C307.344 183.083 307.118 183.244 306.939 183.47C306.762 183.697 306.645 183.979 306.589 184.314L305.574 184.144C305.66 183.628 305.855 183.194 306.159 182.844C306.462 182.494 306.837 182.244 307.284 182.095C307.734 181.946 308.215 181.915 308.729 182.001C309.245 182.087 309.685 182.273 310.047 182.558C310.409 182.843 310.672 183.19 310.837 183.598C311.002 184.006 311.046 184.436 310.97 184.89C310.915 185.214 310.804 185.521 310.634 185.811C310.468 186.099 310.209 186.408 309.859 186.738C309.512 187.067 309.041 187.459 308.445 187.917L306.11 189.702L306.099 189.771L310.195 190.458L310.037 191.405L304.477 190.472ZM316.39 183.41L314.912 192.222L313.845 192.043L315.135 184.349L315.083 184.341L312.692 185.409L312.874 184.324L315.323 183.231L316.39 183.41ZM320.249 193.241C319.658 193.142 319.154 192.95 318.736 192.665C318.321 192.377 318.018 192.027 317.828 191.614C317.638 191.199 317.584 190.753 317.667 190.278C317.727 189.904 317.858 189.572 318.06 189.282C318.262 188.988 318.51 188.757 318.804 188.588C319.101 188.417 319.415 188.329 319.746 188.326L319.755 188.274C319.352 188.094 319.056 187.801 318.867 187.395C318.679 186.986 318.626 186.548 318.707 186.081C318.779 185.633 318.96 185.252 319.248 184.937C319.537 184.623 319.899 184.398 320.335 184.261C320.774 184.125 321.251 184.101 321.768 184.187C322.278 184.273 322.717 184.451 323.085 184.722C323.452 184.994 323.721 185.325 323.891 185.716C324.065 186.108 324.115 186.528 324.043 186.976C323.962 187.443 323.764 187.839 323.45 188.164C323.139 188.486 322.768 188.667 322.337 188.707L322.328 188.759C322.637 188.87 322.901 189.054 323.12 189.312C323.34 189.567 323.499 189.867 323.598 190.21C323.697 190.552 323.717 190.909 323.657 191.282C323.574 191.758 323.374 192.161 323.056 192.491C322.742 192.819 322.341 193.051 321.855 193.188C321.373 193.322 320.837 193.34 320.249 193.241ZM320.408 192.295C320.807 192.361 321.162 192.355 321.473 192.274C321.785 192.194 322.039 192.049 322.236 191.84C322.433 191.631 322.56 191.37 322.616 191.054C322.669 190.721 322.632 190.413 322.505 190.129C322.379 189.845 322.182 189.606 321.914 189.41C321.648 189.215 321.329 189.087 320.956 189.024C320.581 188.961 320.233 188.978 319.913 189.075C319.596 189.172 319.331 189.334 319.119 189.561C318.91 189.788 318.779 190.069 318.726 190.402C318.67 190.717 318.7 191.005 318.815 191.267C318.933 191.528 319.128 191.748 319.399 191.926C319.67 192.105 320.006 192.227 320.408 192.295ZM321.109 188.112C321.425 188.165 321.715 188.149 321.98 188.063C322.248 187.978 322.471 187.835 322.65 187.631C322.829 187.428 322.945 187.175 322.999 186.871C323.046 186.573 323.019 186.301 322.918 186.057C322.818 185.81 322.656 185.606 322.433 185.445C322.21 185.281 321.936 185.171 321.612 185.117C321.282 185.062 320.983 185.075 320.716 185.157C320.449 185.236 320.229 185.376 320.057 185.577C319.885 185.776 319.775 186.024 319.728 186.323C319.674 186.627 319.697 186.903 319.797 187.153C319.9 187.403 320.064 187.612 320.289 187.78C320.515 187.947 320.788 188.058 321.109 188.112ZM327.871 194.52C327.303 194.424 326.813 194.242 326.401 193.972C325.992 193.703 325.686 193.373 325.483 192.982C325.284 192.589 325.211 192.159 325.266 191.694L326.35 191.875C326.326 192.163 326.382 192.425 326.52 192.66C326.657 192.893 326.856 193.088 327.116 193.247C327.375 193.406 327.674 193.513 328.013 193.57C328.391 193.633 328.738 193.624 329.053 193.541C329.368 193.458 329.628 193.313 329.834 193.106C330.04 192.898 330.169 192.64 330.22 192.33C330.275 192.006 330.242 191.707 330.123 191.433C330.004 191.157 329.802 190.922 329.516 190.729C329.229 190.537 328.862 190.403 328.415 190.328L327.709 190.21L327.868 189.263L328.574 189.381C328.924 189.44 329.241 189.428 329.526 189.346C329.814 189.265 330.052 189.122 330.24 188.918C330.43 188.714 330.551 188.457 330.603 188.147C330.653 187.848 330.631 187.578 330.536 187.335C330.441 187.092 330.284 186.888 330.063 186.725C329.846 186.561 329.575 186.452 329.251 186.398C328.947 186.347 328.651 186.355 328.362 186.422C328.077 186.486 327.832 186.608 327.628 186.79C327.424 186.968 327.29 187.202 327.227 187.492L326.194 187.319C326.289 186.86 326.496 186.479 326.815 186.175C327.135 185.869 327.522 185.654 327.976 185.53C328.434 185.406 328.916 185.386 329.424 185.471C329.969 185.563 330.418 185.752 330.771 186.038C331.125 186.322 331.376 186.66 331.526 187.054C331.675 187.448 331.715 187.852 331.645 188.268C331.562 188.765 331.36 189.166 331.04 189.472C330.723 189.779 330.331 189.962 329.864 190.023L329.853 190.091C330.394 190.277 330.789 190.586 331.037 191.02C331.287 191.451 331.364 191.946 331.27 192.506C331.19 192.985 330.987 193.393 330.662 193.731C330.341 194.067 329.938 194.306 329.454 194.449C328.97 194.592 328.442 194.615 327.871 194.52Z" fill="white"/>
</g>
</g>
<defs>
<filter id="filter0_bd_587_5821" x="0.191895" y="74.9946" width="546.352" height="420.282" filterUnits="userSpaceOnUse" color-interpolation-filters="sRGB">
<feFlood flood-opacity="0" result="BackgroundImageFix"/>
<feGaussianBlur in="BackgroundImageFix" stdDeviation="2.6415"/>
<feComposite in2="SourceAlpha" operator="in" result="effect1_backgroundBlur_587_5821"/>
<feColorMatrix in="SourceAlpha" type="matrix" values="0 0 0 0 0 0 0 0 0 0 0 0 0 0 0 0 0 0 127 0" result="hardAlpha"/>
<feOffset dy="12.468"/>
<feGaussianBlur stdDeviation="37.4041"/>
<feComposite in2="hardAlpha" operator="out"/>
<feColorMatrix type="matrix" values="0 0 0 0 0 0 0 0 0 0 0 0 0 0 0 0 0 0 0.1 0"/>
<feBlend mode="normal" in2="effect1_backgroundBlur_587_5821" result="effect2_dropShadow_587_5821"/>
<feBlend mode="normal" in="SourceGraphic" in2="effect2_dropShadow_587_5821" result="shape"/>
</filter>
<filter id="filter1_bd_587_5821" x="103.277" y="0.659914" width="546.352" height="420.282" filterUnits="userSpaceOnUse" color-interpolation-filters="sRGB">
<feFlood flood-opacity="0" result="BackgroundImageFix"/>
<feGaussianBlur in="BackgroundImageFix" stdDeviation="2.6415"/>
<feComposite in2="SourceAlpha" operator="in" result="effect1_backgroundBlur_587_5821"/>
<feColorMatrix in="SourceAlpha" type="matrix" values="0 0 0 0 0 0 0 0 0 0 0 0 0 0 0 0 0 0 127 0" result="hardAlpha"/>
<feOffset dy="12.468"/>
<feGaussianBlur stdDeviation="37.4041"/>
<feComposite in2="hardAlpha" operator="out"/>
<feColorMatrix type="matrix" values="0 0 0 0 0 0 0 0 0 0 0 0 0 0 0 0 0 0 0.8 0"/>
<feBlend mode="normal" in2="effect1_backgroundBlur_587_5821" result="effect2_dropShadow_587_5821"/>
<feBlend mode="normal" in="SourceGraphic" in2="effect2_dropShadow_587_5821" result="shape"/>
</filter>
<linearGradient id="paint0_linear_587_5821" x1="209.03" y1="73.2092" x2="589.681" y2="247.083" gradientUnits="userSpaceOnUse">
<stop stop-color="#5047F5"/>
<stop offset="0.504989"/>
</linearGradient>
<clipPath id="clip0_587_5821">
<rect x="75" y="197.961" width="366.56" height="212.973" rx="10.6636" transform="rotate(-9.52 75 197.961)" fill="white"/>
</clipPath>
<clipPath id="clip1_587_5821">
<rect x="213.309" y="63" width="366.56" height="212.973" rx="10.6636" transform="rotate(9.52 213.309 63)" fill="white"/>
</clipPath>
</defs>
</svg>
