<svg width="73" height="25" viewBox="0 0 73 25" fill="none" xmlns="http://www.w3.org/2000/svg">
<rect width="73" height="25" rx="12.5" fill="#F2F0E0"/>
<path d="M12.2017 16L10.2131 8.72727H11.108L12.6278 14.6506H12.6989L14.2472 8.72727H15.2415L16.7898 14.6506H16.8608L18.3807 8.72727H19.2756L17.2869 16H16.3778L14.7727 10.2045H14.7159L13.1108 16H12.2017ZM20.2592 16V10.5455H21.0973V16H20.2592ZM20.6854 9.63636C20.522 9.63636 20.3812 9.58073 20.2628 9.46946C20.1468 9.35819 20.0888 9.22443 20.0888 9.06818C20.0888 8.91193 20.1468 8.77817 20.2628 8.6669C20.3812 8.55563 20.522 8.5 20.6854 8.5C20.8487 8.5 20.9884 8.55563 21.1044 8.6669C21.2228 8.77817 21.282 8.91193 21.282 9.06818C21.282 9.22443 21.2228 9.35819 21.1044 9.46946C20.9884 9.58073 20.8487 9.63636 20.6854 9.63636ZM25.0044 10.5455V11.2557H22.1777V10.5455H25.0044ZM23.0016 9.23864H23.8397V14.4375C23.8397 14.6742 23.874 14.8518 23.9426 14.9702C24.0137 15.0862 24.1036 15.1643 24.2125 15.2045C24.3238 15.2424 24.441 15.2614 24.5641 15.2614C24.6564 15.2614 24.7322 15.2566 24.7914 15.2472C24.8506 15.2353 24.8979 15.2259 24.9334 15.2188L25.1039 15.9716C25.0471 15.9929 24.9677 16.0142 24.8659 16.0355C24.7641 16.0592 24.6351 16.071 24.4789 16.071C24.2421 16.071 24.0101 16.0201 23.7828 15.9183C23.5579 15.8165 23.3709 15.6615 23.2218 15.4531C23.075 15.2448 23.0016 14.982 23.0016 14.6648V9.23864ZM27.2203 12.7188V16H26.3823V8.72727H27.2203V11.3977H27.2914C27.4192 11.116 27.611 10.8923 27.8667 10.7266C28.1247 10.5585 28.468 10.4744 28.8965 10.4744C29.2682 10.4744 29.5937 10.549 29.873 10.6982C30.1524 10.8449 30.369 11.071 30.5229 11.3764C30.6792 11.6795 30.7573 12.0653 30.7573 12.5341V16H29.9192V12.5909C29.9192 12.1577 29.8068 11.8227 29.5819 11.5859C29.3593 11.3468 29.0504 11.2273 28.655 11.2273C28.3804 11.2273 28.1342 11.2853 27.9164 11.4013C27.7009 11.5173 27.5305 11.6866 27.405 11.9091C27.2819 12.1316 27.2203 12.4015 27.2203 12.7188ZM34.3501 16.1136C33.8956 16.1136 33.4943 15.9988 33.1463 15.7692C32.7983 15.5372 32.526 15.2105 32.3295 14.7891C32.133 14.3653 32.0348 13.8646 32.0348 13.2869C32.0348 12.714 32.133 12.2169 32.3295 11.7955C32.526 11.3741 32.7995 11.0485 33.1499 10.8189C33.5002 10.5893 33.9051 10.4744 34.3643 10.4744C34.7195 10.4744 35 10.5336 35.206 10.652C35.4143 10.768 35.5729 10.9006 35.6818 11.0497C35.7931 11.1965 35.8795 11.3172 35.9411 11.4119H36.0121V8.72727H36.8501V16H36.0405V15.1619H35.9411C35.8795 15.2614 35.7919 15.3868 35.6783 15.5384C35.5646 15.6875 35.4025 15.8213 35.1918 15.9396C34.9811 16.0556 34.7005 16.1136 34.3501 16.1136ZM34.4638 15.3608C34.8 15.3608 35.084 15.2732 35.3161 15.098C35.5481 14.9205 35.7244 14.6754 35.8452 14.3629C35.9659 14.0481 36.0263 13.6847 36.0263 13.2727C36.0263 12.8655 35.9671 12.5092 35.8487 12.2038C35.7304 11.8961 35.5552 11.657 35.3232 11.4865C35.0911 11.3137 34.8047 11.2273 34.4638 11.2273C34.1087 11.2273 33.8127 11.3184 33.576 11.5007C33.3416 11.6806 33.1652 11.9257 33.0469 12.2358C32.9309 12.5436 32.8729 12.8892 32.8729 13.2727C32.8729 13.661 32.9321 14.0137 33.0504 14.331C33.1712 14.6458 33.3487 14.8968 33.5831 15.0838C33.8198 15.2685 34.1134 15.3608 34.4638 15.3608ZM38.5014 16V10.5455H39.3111V11.3693H39.3679C39.4673 11.0994 39.6473 10.8804 39.9077 10.7124C40.1681 10.5443 40.4616 10.4602 40.7884 10.4602C40.8499 10.4602 40.9268 10.4614 41.0192 10.4638C41.1115 10.4661 41.1813 10.4697 41.2287 10.4744V11.3267C41.2003 11.3196 41.1352 11.3089 41.0334 11.2947C40.9339 11.2782 40.8286 11.2699 40.7173 11.2699C40.4522 11.2699 40.2154 11.3255 40.0071 11.4368C39.8011 11.5457 39.6378 11.6972 39.517 11.8913C39.3987 12.0831 39.3395 12.3021 39.3395 12.5483V16H38.5014ZM43.8272 16.1278C43.4816 16.1278 43.1679 16.0627 42.8862 15.9325C42.6045 15.8 42.3807 15.6094 42.215 15.3608C42.0493 15.1098 41.9664 14.8068 41.9664 14.4517C41.9664 14.1392 42.028 13.8859 42.1511 13.6918C42.2742 13.4953 42.4387 13.3414 42.6447 13.2301C42.8507 13.1188 43.0779 13.036 43.3265 12.9815C43.5775 12.9247 43.8296 12.8797 44.0829 12.8466C44.4144 12.804 44.6831 12.772 44.889 12.7507C45.0974 12.727 45.2489 12.688 45.3436 12.6335C45.4406 12.5791 45.4892 12.4844 45.4892 12.3494V12.321C45.4892 11.9706 45.3933 11.6984 45.2015 11.5043C45.0121 11.3101 44.7245 11.2131 44.3386 11.2131C43.9385 11.2131 43.6248 11.3007 43.3975 11.4759C43.1703 11.651 43.0105 11.8381 42.9181 12.0369L42.1227 11.7528C42.2647 11.4214 42.4541 11.1634 42.6909 10.9787C42.93 10.7917 43.1904 10.6615 43.4721 10.5881C43.7562 10.5123 44.0356 10.4744 44.3102 10.4744C44.4854 10.4744 44.6866 10.4957 44.9139 10.5384C45.1435 10.5786 45.3649 10.6626 45.5779 10.7905C45.7934 10.9183 45.9721 11.1113 46.1142 11.3693C46.2562 11.6274 46.3272 11.973 46.3272 12.4062V16H45.4892V15.2614H45.4466C45.3897 15.3797 45.295 15.5064 45.1625 15.6413C45.0299 15.7763 44.8535 15.8911 44.6333 15.9858C44.4132 16.0805 44.1445 16.1278 43.8272 16.1278ZM43.9551 15.375C44.2865 15.375 44.5659 15.3099 44.7931 15.1797C45.0228 15.0495 45.1956 14.8814 45.3116 14.6754C45.43 14.4695 45.4892 14.2528 45.4892 14.0256V13.2585C45.4537 13.3011 45.3755 13.3402 45.2548 13.3757C45.1364 13.4089 44.9991 13.4384 44.8429 13.4645C44.689 13.4882 44.5386 13.5095 44.3919 13.5284C44.2475 13.545 44.1303 13.5592 44.0403 13.571C43.8225 13.5994 43.6189 13.6456 43.4295 13.7095C43.2425 13.7711 43.091 13.8646 42.975 13.9901C42.8613 14.1132 42.8045 14.2812 42.8045 14.4943C42.8045 14.7855 42.9122 15.0057 43.1277 15.1548C43.3455 15.3016 43.6213 15.375 43.9551 15.375ZM49.0927 16L47.4308 10.5455H48.3114L49.4904 14.7216H49.5472L50.712 10.5455H51.6069L52.7575 14.7074H52.8143L53.9933 10.5455H54.8739L53.212 16H52.3881L51.195 11.8097H51.1097L49.9165 16H49.0927ZM61.9194 12.4915V13.2727H58.7376V12.4915H61.9194Z" fill="black"/>
</svg>
