<svg width="30" height="30" viewBox="0 0 30 30" fill="none" xmlns="http://www.w3.org/2000/svg">
<path d="M26.6912 9.4375C26.6912 10.2625 26.036 10.9375 25.2353 10.9375H3.88234C3.0816 10.9375 2.42645 10.2625 2.42645 9.4375V9.425C2.42645 6.5625 4.67094 4.25 7.44925 4.25H21.6562C24.4345 4.25 26.6912 6.575 26.6912 9.4375Z" fill="#6C6C70"/>
<path d="M2.42645 14.3125V20.575C2.42645 23.4375 4.67094 25.75 7.44925 25.75H21.6562C24.4345 25.75 26.6912 23.425 26.6912 20.5625V14.3125C26.6912 13.4875 26.036 12.8125 25.2353 12.8125H3.88234C3.0816 12.8125 2.42645 13.4875 2.42645 14.3125ZM9.70586 21.5625H7.27939C6.78197 21.5625 6.36947 21.1375 6.36947 20.625C6.36947 20.1125 6.78197 19.6875 7.27939 19.6875H9.70586C10.2033 19.6875 10.6158 20.1125 10.6158 20.625C10.6158 21.1375 10.2033 21.5625 9.70586 21.5625ZM17.5919 21.5625H12.739C12.2415 21.5625 11.829 21.1375 11.829 20.625C11.829 20.1125 12.2415 19.6875 12.739 19.6875H17.5919C18.0893 19.6875 18.5018 20.1125 18.5018 20.625C18.5018 21.1375 18.0893 21.5625 17.5919 21.5625Z" fill="#6C6C70"/>
</svg>
