<svg width="64" height="25" viewBox="0 0 64 25" fill="none" xmlns="http://www.w3.org/2000/svg">
<rect width="64" height="25" rx="12.5" fill="#007AFF"/>
<path d="M10.483 9.50852V8.72727H15.9375V9.50852H13.6506V16H12.7699V9.50852H10.483ZM18.608 16.1136C18.1155 16.1136 17.6835 15.9964 17.3118 15.7621C16.9425 15.5277 16.6536 15.1998 16.4453 14.7784C16.2393 14.357 16.1364 13.8646 16.1364 13.3011C16.1364 12.733 16.2393 12.237 16.4453 11.8132C16.6536 11.3894 16.9425 11.0604 17.3118 10.826C17.6835 10.5916 18.1155 10.4744 18.608 10.4744C19.1004 10.4744 19.5313 10.5916 19.9006 10.826C20.2723 11.0604 20.5611 11.3894 20.767 11.8132C20.9754 12.237 21.0795 12.733 21.0795 13.3011C21.0795 13.8646 20.9754 14.357 20.767 14.7784C20.5611 15.1998 20.2723 15.5277 19.9006 15.7621C19.5313 15.9964 19.1004 16.1136 18.608 16.1136ZM18.608 15.3608C18.982 15.3608 19.2898 15.2649 19.5312 15.0732C19.7727 14.8814 19.9515 14.6293 20.0675 14.3168C20.1835 14.0043 20.2415 13.6657 20.2415 13.3011C20.2415 12.9366 20.1835 12.5968 20.0675 12.282C19.9515 11.9671 19.7727 11.7126 19.5312 11.5185C19.2898 11.3243 18.982 11.2273 18.608 11.2273C18.2339 11.2273 17.9261 11.3243 17.6847 11.5185C17.4432 11.7126 17.2644 11.9671 17.1484 12.282C17.0324 12.5968 16.9744 12.9366 16.9744 13.3011C16.9744 13.6657 17.0324 14.0043 17.1484 14.3168C17.2644 14.6293 17.4432 14.8814 17.6847 15.0732C17.9261 15.2649 18.2339 15.3608 18.608 15.3608ZM22.3588 18.0455V10.5455H23.1685V11.4119H23.2679C23.3295 11.3172 23.4147 11.1965 23.5236 11.0497C23.6349 10.9006 23.7935 10.768 23.9995 10.652C24.2078 10.5336 24.4895 10.4744 24.8446 10.4744C25.3039 10.4744 25.7087 10.5893 26.0591 10.8189C26.4095 11.0485 26.6829 11.3741 26.8794 11.7955C27.0759 12.2169 27.1742 12.714 27.1742 13.2869C27.1742 13.8646 27.0759 14.3653 26.8794 14.7891C26.6829 15.2105 26.4107 15.5372 26.0627 15.7692C25.7147 15.9988 25.3134 16.1136 24.8588 16.1136C24.5085 16.1136 24.2279 16.0556 24.0172 15.9396C23.8065 15.8213 23.6444 15.6875 23.5307 15.5384C23.4171 15.3868 23.3295 15.2614 23.2679 15.1619H23.1969V18.0455H22.3588ZM23.1827 13.2727C23.1827 13.6847 23.2431 14.0481 23.3638 14.3629C23.4846 14.6754 23.6609 14.9205 23.8929 15.098C24.1249 15.2732 24.409 15.3608 24.7452 15.3608C25.0956 15.3608 25.388 15.2685 25.6223 15.0838C25.8591 14.8968 26.0366 14.6458 26.155 14.331C26.2757 14.0137 26.3361 13.661 26.3361 13.2727C26.3361 12.8892 26.2769 12.5436 26.1586 12.2358C26.0426 11.9257 25.8662 11.6806 25.6294 11.5007C25.3951 11.3184 25.1003 11.2273 24.7452 11.2273C24.4043 11.2273 24.1178 11.3137 23.8858 11.4865C23.6538 11.657 23.4786 11.8961 23.3603 12.2038C23.2419 12.5092 23.1827 12.8655 23.1827 13.2727ZM36.1515 8.72727H37.0321V13.5426C37.0321 14.0398 36.915 14.4837 36.6806 14.8743C36.4486 15.2625 36.1207 15.5691 35.6969 15.794C35.2731 16.0166 34.776 16.1278 34.2054 16.1278C33.6349 16.1278 33.1377 16.0166 32.714 15.794C32.2902 15.5691 31.9611 15.2625 31.7267 14.8743C31.4947 14.4837 31.3787 14.0398 31.3787 13.5426V8.72727H32.2594V13.4716C32.2594 13.8267 32.3375 14.1428 32.4938 14.4197C32.65 14.6944 32.8726 14.911 33.1614 15.0696C33.4526 15.2259 33.8006 15.304 34.2054 15.304C34.6103 15.304 34.9583 15.2259 35.2495 15.0696C35.5407 14.911 35.7632 14.6944 35.9171 14.4197C36.0733 14.1428 36.1515 13.8267 36.1515 13.4716V8.72727ZM38.6772 18.0455V10.5455H39.4869V11.4119H39.5863C39.6478 11.3172 39.7331 11.1965 39.842 11.0497C39.9532 10.9006 40.1119 10.768 40.3178 10.652C40.5262 10.5336 40.8079 10.4744 41.163 10.4744C41.6223 10.4744 42.0271 10.5893 42.3775 10.8189C42.7279 11.0485 43.0013 11.3741 43.1978 11.7955C43.3943 12.2169 43.4925 12.714 43.4925 13.2869C43.4925 13.8646 43.3943 14.3653 43.1978 14.7891C43.0013 15.2105 42.729 15.5372 42.381 15.7692C42.033 15.9988 41.6317 16.1136 41.1772 16.1136C40.8268 16.1136 40.5463 16.0556 40.3356 15.9396C40.1249 15.8213 39.9627 15.6875 39.8491 15.5384C39.7354 15.3868 39.6478 15.2614 39.5863 15.1619H39.5153V18.0455H38.6772ZM39.5011 13.2727C39.5011 13.6847 39.5614 14.0481 39.6822 14.3629C39.8029 14.6754 39.9793 14.9205 40.2113 15.098C40.4433 15.2732 40.7274 15.3608 41.0636 15.3608C41.4139 15.3608 41.7063 15.2685 41.9407 15.0838C42.1774 14.8968 42.355 14.6458 42.4734 14.331C42.5941 14.0137 42.6545 13.661 42.6545 13.2727C42.6545 12.8892 42.5953 12.5436 42.4769 12.2358C42.3609 11.9257 42.1845 11.6806 41.9478 11.5007C41.7134 11.3184 41.4187 11.2273 41.0636 11.2273C40.7227 11.2273 40.4362 11.3137 40.2042 11.4865C39.9722 11.657 39.797 11.8961 39.6786 12.2038C39.5603 12.5092 39.5011 12.8655 39.5011 13.2727ZM49.7141 15.5028V10.8153H50.5096V15.5028H49.7141ZM47.7681 13.5568V12.7614H52.4556V13.5568H47.7681Z" fill="white"/>
</svg>
