<svg width="32" height="40" viewBox="0 0 32 40" fill="none" xmlns="http://www.w3.org/2000/svg">
<path d="M11.6847 0.3125C10.1928 0.3125 8.7621 0.905132 7.70721 1.96002C6.65232 3.01492 6.05969 4.44566 6.05969 5.9375V28.4375C6.05969 29.9293 6.65232 31.3601 7.70721 32.415C8.7621 33.4699 10.1928 34.0625 11.6847 34.0625H25.75C27.2418 34.0625 28.6726 33.4699 29.7275 32.415C30.7824 31.3601 31.375 29.9293 31.375 28.4375V12.9688H31.3694V9.91438C31.3691 8.79627 30.9251 7.724 30.1347 6.93313L24.7516 1.54719C23.9607 0.756824 22.8884 0.312739 21.7703 0.3125H11.6847ZM25.75 31.25H11.6847C10.9388 31.25 10.2234 30.9537 9.69595 30.4262C9.1685 29.8988 8.87219 29.1834 8.87219 28.4375V5.9375C8.87219 5.19158 9.1685 4.47621 9.69595 3.94876C10.2234 3.42132 10.9388 3.125 11.6847 3.125H20.1222V7.34375C20.1222 8.46263 20.5667 9.53569 21.3578 10.3269C22.149 11.118 23.2221 11.5625 24.3409 11.5625H28.5597V14.5466H28.5625V28.4375C28.5625 29.1834 28.2662 29.8988 27.7387 30.4262C27.2113 30.9537 26.4959 31.25 25.75 31.25ZM27.9747 8.75H24.3381C23.9652 8.75 23.6075 8.60184 23.3438 8.33812C23.08 8.0744 22.9319 7.71671 22.9319 7.34375V3.70719L27.9747 8.75ZM0.4375 8.75C0.4375 8.00408 0.733816 7.28871 1.26126 6.76126C1.78871 6.23382 2.50408 5.9375 3.25 5.9375V28.4375C3.25 30.6753 4.13895 32.8214 5.72129 34.4037C7.30363 35.9861 9.44974 36.875 11.6875 36.875H25.75C25.75 37.6209 25.4537 38.3363 24.9262 38.8637C24.3988 39.3912 23.6834 39.6875 22.9375 39.6875H11.0969C8.26983 39.6875 5.55858 38.5645 3.55956 36.5654C1.56054 34.5664 0.4375 31.8552 0.4375 29.0281V8.75Z" fill="black"/>
</svg>
