<svg width="70" height="70" viewBox="0 0 70 70" fill="none" xmlns="http://www.w3.org/2000/svg">
<path d="M26.2493 14.5827C25.4758 14.5827 24.7339 14.89 24.187 15.4369C23.64 15.9839 23.3327 16.7258 23.3327 17.4993C23.3327 18.2729 23.64 19.0147 24.187 19.5617C24.7339 20.1087 25.4758 20.416 26.2493 20.416C27.0229 20.416 27.7648 20.1087 28.3117 19.5617C28.8587 19.0147 29.166 18.2729 29.166 17.4993C29.166 16.7258 28.8587 15.9839 28.3117 15.4369C27.7648 14.89 27.0229 14.5827 26.2493 14.5827ZM17.9952 14.5827C18.5978 12.8749 19.7153 11.396 21.1936 10.35C22.6719 9.30393 24.4384 8.74219 26.2493 8.74219C28.0603 8.74219 29.8268 9.30393 31.3051 10.35C32.7834 11.396 33.9009 12.8749 34.5035 14.5827L55.416 14.5827C56.1896 14.5827 56.9314 14.89 57.4784 15.4369C58.0254 15.9839 58.3327 16.7258 58.3327 17.4993C58.3327 18.2729 58.0254 19.0147 57.4784 19.5617C56.9314 20.1087 56.1896 20.416 55.416 20.416L34.5035 20.416C33.9009 22.1238 32.7834 23.6027 31.3051 24.6487C29.8268 25.6947 28.0603 26.2565 26.2493 26.2565C24.4384 26.2565 22.6719 25.6947 21.1936 24.6487C19.7153 23.6027 18.5978 22.1238 17.9952 20.416L14.5827 20.416C13.8091 20.416 13.0673 20.1087 12.5203 19.5617C11.9733 19.0147 11.666 18.2729 11.666 17.4993C11.666 16.7258 11.9733 15.9839 12.5203 15.4369C13.0673 14.89 13.8091 14.5827 14.5827 14.5827L17.9952 14.5827ZM43.7494 32.0827C42.9758 32.0827 42.2339 32.39 41.687 32.9369C41.14 33.4839 40.8327 34.2258 40.8327 34.9993C40.8327 35.7729 41.14 36.5147 41.687 37.0617C42.2339 37.6087 42.9758 37.916 43.7494 37.916C44.5229 37.916 45.2648 37.6087 45.8117 37.0617C46.3587 36.5147 46.666 35.7729 46.666 34.9993C46.666 34.2258 46.3587 33.4839 45.8117 32.9369C45.2648 32.39 44.5229 32.0827 43.7494 32.0827ZM35.4952 32.0827C36.0978 30.3749 37.2153 28.896 38.6936 27.85C40.1719 26.8039 41.9384 26.2422 43.7494 26.2422C45.5603 26.2422 47.3268 26.8039 48.8051 27.85C50.2834 28.896 51.4009 30.3749 52.0035 32.0827L55.416 32.0827C56.1896 32.0827 56.9314 32.39 57.4784 32.9369C58.0254 33.4839 58.3327 34.2258 58.3327 34.9993C58.3327 35.7729 58.0254 36.5147 57.4784 37.0617C56.9314 37.6087 56.1896 37.916 55.416 37.916L52.0035 37.916C51.4009 39.6238 50.2834 41.1026 48.8051 42.1487C47.3268 43.1947 45.5603 43.7565 43.7494 43.7565C41.9384 43.7565 40.1719 43.1947 38.6936 42.1487C37.2153 41.1026 36.0978 39.6238 35.4952 37.916L14.5827 37.916C13.8091 37.916 13.0673 37.6087 12.5203 37.0617C11.9733 36.5147 11.666 35.7729 11.666 34.9993C11.666 34.2258 11.9733 33.4839 12.5203 32.9369C13.0673 32.39 13.8091 32.0827 14.5827 32.0827L35.4952 32.0827ZM26.2493 49.5827C25.4758 49.5827 24.7339 49.89 24.187 50.4369C23.64 50.9839 23.3327 51.7258 23.3327 52.4993C23.3327 53.2729 23.64 54.0148 24.187 54.5617C24.7339 55.1087 25.4758 55.416 26.2493 55.416C27.0229 55.416 27.7648 55.1087 28.3117 54.5617C28.8587 54.0148 29.166 53.2729 29.166 52.4993C29.166 51.7258 28.8587 50.9839 28.3117 50.4369C27.7648 49.89 27.0229 49.5827 26.2493 49.5827ZM17.9952 49.5827C18.5978 47.8749 19.7153 46.396 21.1936 45.35C22.6719 44.3039 24.4384 43.7422 26.2493 43.7422C28.0603 43.7422 29.8268 44.3039 31.3051 45.35C32.7834 46.396 33.9009 47.8749 34.5035 49.5827L55.416 49.5827C56.1896 49.5827 56.9314 49.89 57.4784 50.4369C58.0254 50.9839 58.3327 51.7258 58.3327 52.4993C58.3327 53.2729 58.0254 54.0148 57.4784 54.5617C56.9314 55.1087 56.1896 55.416 55.416 55.416L34.5035 55.416C33.9009 57.1238 32.7834 58.6026 31.3051 59.6487C29.8268 60.6947 28.0603 61.2565 26.2493 61.2565C24.4384 61.2565 22.6719 60.6947 21.1936 59.6487C19.7153 58.6026 18.5978 57.1238 17.9952 55.416L14.5827 55.416C13.8091 55.416 13.0673 55.1087 12.5203 54.5617C11.9733 54.0148 11.666 53.2729 11.666 52.4993C11.666 51.7258 11.9733 50.9839 12.5203 50.4369C13.0673 49.89 13.8091 49.5827 14.5827 49.5827L17.9952 49.5827Z" fill="white"/>
</svg>
