<svg width="173" height="53" viewBox="0 0 173 53" fill="none" xmlns="http://www.w3.org/2000/svg">
<g clip-path="url(#clip0_587_24987)">
<path d="M165.754 52.7705H6.66762C2.98721 52.7705 0 49.7833 0 46.1029V7.00478C0 3.32437 2.98721 0.337158 6.66762 0.337158H165.754C169.435 0.337158 172.422 3.32437 172.422 7.00478V46.1101C172.415 49.7833 169.435 52.7705 165.754 52.7705Z" fill="black"/>
<path d="M53.6205 15.3408H48.8681L47.8247 17.6491H47.1815L50.9477 9.45215H51.548L55.3142 17.6491H54.671L53.6205 15.3408ZM53.3989 14.8406L51.2407 10.1096L49.0968 14.8406H53.3989Z" fill="white"/>
<path d="M61.2176 11.5409L58.4519 17.6511H57.8516L55.1003 11.5409H55.722L58.1589 17.0079L60.6173 11.5409H61.2176Z" fill="white"/>
<path d="M66.112 12.078C66.5194 12.4639 66.7195 13.0285 66.7195 13.7789V17.6522H66.1549V16.566C65.962 16.9233 65.6761 17.202 65.2973 17.4021C64.9257 17.6022 64.4755 17.7023 63.9538 17.7023C63.2749 17.7023 62.7389 17.545 62.3459 17.2234C61.9528 16.9019 61.7527 16.4802 61.7527 15.9585C61.7527 15.4511 61.9314 15.0366 62.2958 14.7222C62.6603 14.4077 63.2392 14.2505 64.0324 14.2505H66.1263V13.7574C66.1263 13.1857 65.9691 12.7569 65.6618 12.4568C65.3545 12.1638 64.9043 12.0137 64.3111 12.0137C63.9038 12.0137 63.5179 12.0852 63.1463 12.2209C62.7747 12.3639 62.4602 12.5497 62.2029 12.7855L61.9099 12.3639C62.2172 12.0923 62.5817 11.8779 63.0105 11.7278C63.4393 11.5778 63.8895 11.4991 64.354 11.4991C65.1187 11.4991 65.7047 11.6921 66.112 12.078ZM65.3331 16.8661C65.6904 16.6303 65.9548 16.2944 66.1335 15.8513V14.7007H64.0467C63.4464 14.7007 63.0105 14.8079 62.7389 15.0295C62.4674 15.251 62.3316 15.5512 62.3316 15.9299C62.3316 16.3301 62.4817 16.6446 62.7747 16.8733C63.0677 17.1019 63.4893 17.2163 64.0253 17.2163C64.547 17.2234 64.9758 17.102 65.3331 16.8661Z" fill="white"/>
<path d="M69.0856 9.91498C68.9927 9.82208 68.9427 9.71488 68.9427 9.5791C68.9427 9.44331 68.9927 9.33612 69.0856 9.23607C69.1785 9.14316 69.2929 9.09314 69.4286 9.09314C69.5644 9.09314 69.6716 9.13602 69.7717 9.22892C69.8646 9.32183 69.9146 9.42902 69.9146 9.5648C69.9146 9.70059 69.8646 9.80778 69.7717 9.90783C69.6788 10.0007 69.5644 10.0508 69.4286 10.0508C69.2857 10.0508 69.1785 10.0079 69.0856 9.91498ZM69.1285 11.5372H69.7145V17.6474H69.1285V11.5372Z" fill="white"/>
<path d="M72.1874 8.96716H72.7734V17.6501H72.1874V8.96716Z" fill="white"/>
<path d="M79.0402 12.078C79.4476 12.4639 79.6477 13.0285 79.6477 13.7789V17.6522H79.0831V16.566C78.8902 16.9233 78.6043 17.202 78.2255 17.4021C77.8539 17.6022 77.4037 17.7023 76.882 17.7023C76.2031 17.7023 75.6671 17.545 75.2741 17.2234C74.881 16.9019 74.6809 16.4802 74.6809 15.9585C74.6809 15.4511 74.8596 15.0366 75.224 14.7222C75.5885 14.4077 76.1674 14.2505 76.9606 14.2505H79.0545V13.7574C79.0545 13.1857 78.8973 12.7569 78.59 12.4568C78.2827 12.1638 77.8325 12.0137 77.2393 12.0137C76.832 12.0137 76.4461 12.0852 76.0745 12.2209C75.7028 12.3639 75.3884 12.5497 75.1311 12.7855L74.8381 12.3639C75.1454 12.0923 75.5099 11.8779 75.9387 11.7278C76.3675 11.5778 76.8177 11.4991 77.2822 11.4991C78.054 11.4991 78.64 11.6921 79.0402 12.078ZM78.2613 16.8661C78.6186 16.6303 78.883 16.2944 79.0617 15.8513V14.7007H76.9749C76.3746 14.7007 75.9387 14.8079 75.6671 15.0295C75.3956 15.251 75.2598 15.5512 75.2598 15.9299C75.2598 16.3301 75.4098 16.6446 75.7029 16.8733C75.9959 17.1019 76.4175 17.2163 76.9535 17.2163C77.4752 17.2234 77.9111 17.102 78.2613 16.8661Z" fill="white"/>
<path d="M86.673 11.8829C87.1304 12.1473 87.4948 12.5118 87.7592 12.9835C88.0237 13.4551 88.1523 13.9911 88.1523 14.5914C88.1523 15.1917 88.0237 15.7277 87.7592 16.1922C87.4948 16.6639 87.1375 17.0283 86.673 17.2928C86.2156 17.5572 85.6939 17.693 85.1294 17.693C84.5862 17.693 84.086 17.5643 83.65 17.2999C83.207 17.0355 82.8711 16.671 82.6281 16.2065V17.6429H82.0635V8.96716H82.6495V12.9334C82.8925 12.4832 83.2284 12.1259 83.6643 11.8758C84.1003 11.6256 84.5862 11.497 85.1294 11.497C85.7011 11.497 86.2156 11.6256 86.673 11.8829ZM86.3585 16.8425C86.7302 16.621 87.0303 16.3208 87.2447 15.9278C87.4591 15.5347 87.5663 15.0917 87.5663 14.5914C87.5663 14.0912 87.4591 13.6481 87.2447 13.255C87.0303 12.862 86.7373 12.5618 86.3585 12.3403C85.9869 12.1187 85.5653 12.0115 85.0936 12.0115C84.622 12.0115 84.2075 12.1187 83.8358 12.3403C83.4642 12.5618 83.1712 12.862 82.9568 13.255C82.7424 13.6481 82.6353 14.0912 82.6353 14.5914C82.6353 15.0917 82.7424 15.5347 82.9568 15.9278C83.1712 16.3208 83.4642 16.621 83.8358 16.8425C84.2075 17.0641 84.6291 17.1713 85.0936 17.1713C85.5581 17.1713 85.9869 17.0641 86.3585 16.8425Z" fill="white"/>
<path d="M89.9677 8.96716H90.5537V17.6501H89.9677V8.96716Z" fill="white"/>
<path d="M98.1785 14.7375H92.9259C92.9402 15.2163 93.0616 15.638 93.2903 16.0096C93.519 16.3812 93.8263 16.6671 94.2122 16.8672C94.5981 17.0673 95.0341 17.1745 95.52 17.1745C95.9202 17.1745 96.2847 17.103 96.6277 16.9601C96.9707 16.8171 97.2495 16.6027 97.4781 16.324L97.8212 16.7099C97.5568 17.0315 97.2209 17.2745 96.8207 17.446C96.4205 17.6175 95.9845 17.7033 95.5129 17.7033C94.9054 17.7033 94.3623 17.5675 93.8835 17.3031C93.4047 17.0387 93.0331 16.6742 92.7686 16.2025C92.4971 15.7309 92.3613 15.202 92.3613 14.6017C92.3613 14.0086 92.4899 13.4797 92.7401 13.0009C92.9902 12.5293 93.3404 12.1577 93.7906 11.8932C94.2337 11.6288 94.7339 11.493 95.2913 11.493C95.8488 11.493 96.3419 11.6217 96.7849 11.8861C97.228 12.1505 97.571 12.515 97.8283 12.9795C98.0784 13.4512 98.2071 13.98 98.2071 14.5732L98.1785 14.7375ZM94.1193 12.3006C93.7763 12.4935 93.4976 12.758 93.2975 13.1081C93.0902 13.4583 92.9687 13.8442 92.9402 14.2873H97.6211C97.5996 13.8514 97.4781 13.4583 97.2709 13.1153C97.0636 12.7723 96.7849 12.5007 96.4419 12.3077C96.0989 12.1148 95.713 12.0147 95.2842 12.0147C94.8483 12.0147 94.4623 12.1076 94.1193 12.3006Z" fill="white"/>
<path d="M103.838 17.2982C103.374 17.0337 103.009 16.6621 102.745 16.1905C102.481 15.7188 102.345 15.1828 102.345 14.5897C102.345 13.9965 102.481 13.4677 102.745 12.9889C103.009 12.5172 103.374 12.1456 103.838 11.8812C104.303 11.6167 104.825 11.481 105.404 11.481C105.982 11.481 106.504 11.6167 106.969 11.8812C107.433 12.1456 107.798 12.5172 108.062 12.9889C108.326 13.4605 108.462 13.9965 108.462 14.5897C108.462 15.1828 108.326 15.7188 108.062 16.1905C107.798 16.6621 107.433 17.0337 106.969 17.2982C106.504 17.5626 105.982 17.6984 105.404 17.6984C104.825 17.6984 104.303 17.5626 103.838 17.2982ZM106.661 16.8408C107.033 16.6192 107.326 16.3191 107.54 15.926C107.755 15.533 107.862 15.0899 107.862 14.5897C107.862 14.0894 107.755 13.6463 107.54 13.2533C107.326 12.8602 107.033 12.5601 106.661 12.3385C106.29 12.117 105.868 12.0098 105.404 12.0098C104.939 12.0098 104.517 12.117 104.146 12.3385C103.774 12.5601 103.481 12.8602 103.267 13.2533C103.052 13.6463 102.945 14.0894 102.945 14.5897C102.945 15.0899 103.052 15.533 103.267 15.926C103.481 16.3191 103.774 16.6192 104.146 16.8408C104.517 17.0623 104.939 17.1695 105.404 17.1695C105.868 17.1695 106.29 17.0623 106.661 16.8408Z" fill="white"/>
<path d="M115.073 12.1648C115.517 12.6079 115.738 13.2511 115.738 14.0872V17.6604H115.152V14.1301C115.152 13.444 114.981 12.9223 114.63 12.565C114.28 12.2077 113.794 12.029 113.173 12.029C112.458 12.029 111.886 12.2434 111.472 12.6722C111.057 13.101 110.85 13.6799 110.85 14.4016V17.6533H110.264V11.5431H110.828V12.8652C111.036 12.4364 111.35 12.1005 111.772 11.8575C112.186 11.6145 112.679 11.493 113.251 11.493C114.023 11.5002 114.63 11.7217 115.073 12.1648Z" fill="white"/>
<path d="M124.192 17.2658C124.042 17.4087 123.856 17.5159 123.634 17.5874C123.413 17.6589 123.177 17.7017 122.941 17.7017C122.412 17.7017 121.998 17.5588 121.712 17.2658C121.426 16.9728 121.276 16.5655 121.276 16.0438V12.0489H120.154V11.5487H121.276V10.2123H121.862V11.5487H123.806V12.0489H121.862V15.9795C121.862 16.3797 121.955 16.6798 122.148 16.8871C122.341 17.0943 122.619 17.1943 122.998 17.1943C123.377 17.1943 123.699 17.08 123.949 16.8513L124.192 17.2658Z" fill="white"/>
<path d="M130.616 12.1616C131.059 12.6047 131.281 13.2479 131.281 14.084V17.6572H130.695V14.1269C130.695 13.4408 130.523 12.9191 130.173 12.5618C129.823 12.2045 129.337 12.0258 128.715 12.0258C128 12.0258 127.429 12.2402 127.014 12.669C126.6 13.0978 126.392 13.6767 126.392 14.3985V17.6501H125.806V8.96716H126.392V12.8191C126.6 12.3975 126.914 12.0687 127.329 11.84C127.743 11.6113 128.229 11.497 128.794 11.497C129.566 11.497 130.173 11.7185 130.616 12.1616Z" fill="white"/>
<path d="M138.871 14.7375H133.618C133.632 15.2163 133.754 15.638 133.982 16.0096C134.211 16.3812 134.518 16.6671 134.904 16.8672C135.29 17.0673 135.726 17.1745 136.212 17.1745C136.612 17.1745 136.977 17.103 137.32 16.9601C137.663 16.8171 137.942 16.6027 138.17 16.324L138.513 16.7099C138.249 17.0315 137.913 17.2745 137.513 17.446C137.113 17.6175 136.677 17.7033 136.205 17.7033C135.598 17.7033 135.054 17.5675 134.576 17.3031C134.097 17.0387 133.725 16.6742 133.461 16.2025C133.189 15.7309 133.053 15.202 133.053 14.6017C133.053 14.0086 133.182 13.4797 133.432 13.0009C133.682 12.5293 134.032 12.1577 134.483 11.8932C134.926 11.6288 135.426 11.493 135.983 11.493C136.541 11.493 137.034 11.6217 137.477 11.8861C137.92 12.1505 138.263 12.515 138.52 12.9795C138.771 13.4512 138.899 13.98 138.899 14.5732L138.871 14.7375ZM134.804 12.3006C134.461 12.4935 134.183 12.758 133.982 13.1081C133.775 13.4583 133.654 13.8442 133.625 14.2873H138.306C138.285 13.8514 138.163 13.4583 137.956 13.1153C137.749 12.7723 137.47 12.5007 137.127 12.3077C136.784 12.1148 136.398 12.0147 135.969 12.0147C135.533 12.0147 135.147 12.1076 134.804 12.3006Z" fill="white"/>
<path d="M56.507 32.0093H58.9082V37.4621C58.2078 38.0195 57.386 38.4554 56.4427 38.7556C55.5065 39.0557 54.5417 39.2058 53.5484 39.2058C52.1548 39.2058 50.897 38.9056 49.775 38.2982C48.6531 37.6908 47.774 36.8546 47.138 35.7827C46.502 34.7107 46.1804 33.5101 46.1804 32.1666C46.1804 30.823 46.502 29.6153 47.138 28.5505C47.774 27.4785 48.6602 26.6424 49.7893 26.0349C50.9185 25.4275 52.1834 25.1273 53.5912 25.1273C54.7347 25.1273 55.7781 25.3131 56.7214 25.6919C57.6576 26.0706 58.4508 26.6209 59.0868 27.357L57.4861 28.9221C56.4427 27.8787 55.1849 27.357 53.7127 27.357C52.748 27.357 51.8904 27.5571 51.14 27.9645C50.3896 28.3718 49.8036 28.9364 49.382 29.6653C48.9604 30.3942 48.746 31.2304 48.746 32.1666C48.746 33.0813 48.9604 33.9031 49.382 34.6321C49.8036 35.361 50.3896 35.9327 51.14 36.3544C51.8904 36.7689 52.7408 36.9833 53.6913 36.9833C54.7633 36.9833 55.6994 36.7474 56.507 36.2829V32.0093Z" fill="white"/>
<path d="M63.8535 38.4613C63.0031 38.0039 62.3456 37.3678 61.8668 36.5532C61.388 35.7385 61.1522 34.8166 61.1522 33.7875C61.1522 32.7584 61.388 31.8365 61.8668 31.029C62.3456 30.2214 63.0031 29.5925 63.8535 29.1352C64.704 28.6778 65.6544 28.4491 66.705 28.4491C67.7769 28.4491 68.7346 28.6778 69.5778 29.1352C70.4283 29.5925 71.0857 30.2214 71.5645 31.029C72.0434 31.8365 72.2792 32.7584 72.2792 33.7875C72.2792 34.8166 72.0434 35.7385 71.5645 36.5532C71.0857 37.3678 70.4283 38.0039 69.5778 38.4613C68.7274 38.9186 67.7698 39.1473 66.705 39.1473C65.6544 39.1402 64.704 38.9186 63.8535 38.4613ZM68.9347 36.153C69.5207 35.5527 69.8137 34.7665 69.8137 33.7875C69.8137 32.8084 69.5207 32.0223 68.9347 31.422C68.3486 30.8217 67.6054 30.5216 66.705 30.5216C65.8045 30.5216 65.0684 30.8217 64.4896 31.422C63.9107 32.0223 63.6177 32.8084 63.6177 33.7875C63.6177 34.7665 63.9107 35.5527 64.4896 36.153C65.0684 36.7533 65.8117 37.0534 66.705 37.0534C67.6054 37.0534 68.3486 36.7533 68.9347 36.153Z" fill="white"/>
<path d="M76.4664 38.4613C75.616 38.0039 74.9585 37.3678 74.4797 36.5532C74.0009 35.7385 73.765 34.8166 73.765 33.7875C73.765 32.7584 74.0009 31.8365 74.4797 31.029C74.9585 30.2214 75.616 29.5925 76.4664 29.1352C77.3168 28.6778 78.2673 28.4491 79.3178 28.4491C80.3898 28.4491 81.3474 28.6778 82.1907 29.1352C83.0411 29.5925 83.6986 30.2214 84.1774 31.029C84.6562 31.8365 84.892 32.7584 84.892 33.7875C84.892 34.8166 84.6562 35.7385 84.1774 36.5532C83.6986 37.3678 83.0411 38.0039 82.1907 38.4613C81.3403 38.9186 80.3826 39.1473 79.3178 39.1473C78.2602 39.1402 77.3097 38.9186 76.4664 38.4613ZM81.5475 36.153C82.1335 35.5527 82.4265 34.7665 82.4265 33.7875C82.4265 32.8084 82.1335 32.0223 81.5475 31.422C80.9615 30.8217 80.2183 30.5216 79.3178 30.5216C78.4174 30.5216 77.6813 30.8217 77.1024 31.422C76.5236 32.0223 76.2306 32.8084 76.2306 33.7875C76.2306 34.7665 76.5236 35.5527 77.1024 36.153C77.6813 36.7533 78.4245 37.0534 79.3178 37.0534C80.2183 37.0534 80.9615 36.7533 81.5475 36.153Z" fill="white"/>
<path d="M97.5989 28.5714V37.4258C97.5989 41.0991 95.7194 42.9357 91.9675 42.9357C90.967 42.9357 90.0094 42.8071 89.1161 42.557C88.2157 42.2997 87.4724 41.9352 86.8864 41.4493L87.9798 39.6126C88.4372 39.9914 89.0161 40.2915 89.7093 40.5202C90.4096 40.7489 91.11 40.8633 91.8317 40.8633C92.9752 40.8633 93.8185 40.5988 94.3544 40.0843C94.8904 39.5626 95.1548 38.7693 95.1548 37.6974V37.1471C94.7403 37.6045 94.2329 37.9475 93.6326 38.1833C93.0323 38.4192 92.3749 38.5335 91.6602 38.5335C90.6669 38.5335 89.7736 38.3191 88.9732 37.8975C88.1728 37.4758 87.5367 36.8755 87.0794 36.1109C86.6149 35.3391 86.3862 34.46 86.3862 33.4738C86.3862 32.4805 86.6149 31.6086 87.0794 30.844C87.5439 30.0793 88.1728 29.4933 88.9732 29.0716C89.7736 28.6571 90.674 28.4427 91.6602 28.4427C92.4178 28.4427 93.1038 28.5642 93.7256 28.8144C94.3473 29.0645 94.8618 29.4433 95.2763 29.9506V28.5642H97.5989V28.5714ZM94.3044 35.6321C94.8976 35.0818 95.1906 34.36 95.1906 33.4738C95.1906 32.602 94.8904 31.8873 94.3044 31.3442C93.7113 30.7939 92.9537 30.5224 92.0247 30.5224C91.0885 30.5224 90.3238 30.7939 89.7307 31.3442C89.1375 31.8945 88.8445 32.602 88.8445 33.4738C88.8445 34.36 89.1375 35.0818 89.7307 35.6321C90.3238 36.1895 91.0885 36.4611 92.0247 36.4611C92.9466 36.4682 93.7113 36.1895 94.3044 35.6321Z" fill="white"/>
<path d="M100.801 24.505H103.245V39.0123H100.801V24.505Z" fill="white"/>
<path d="M116.223 34.5672H108.033C108.176 35.3391 108.547 35.9465 109.155 36.3967C109.762 36.847 110.513 37.0685 111.413 37.0685C112.556 37.0685 113.507 36.6897 114.25 35.9322L115.558 37.4401C115.086 37.9975 114.493 38.4263 113.778 38.7122C113.064 38.998 112.256 39.141 111.356 39.141C110.212 39.141 109.198 38.9123 108.326 38.4549C107.454 37.9975 106.775 37.3615 106.303 36.5468C105.824 35.7321 105.589 34.8102 105.589 33.7811C105.589 32.7663 105.817 31.8516 106.282 31.0369C106.746 30.2222 107.39 29.5862 108.204 29.1288C109.026 28.6714 109.948 28.4427 110.977 28.4427C111.992 28.4427 112.899 28.6643 113.707 29.1145C114.507 29.5647 115.136 30.1936 115.587 31.0083C116.037 31.823 116.258 32.7663 116.258 33.8312C116.265 34.017 116.251 34.2599 116.223 34.5672ZM109.005 31.1012C108.462 31.5657 108.133 32.1803 108.018 32.9521H113.943C113.836 32.1946 113.521 31.5872 112.985 31.1155C112.449 30.6439 111.785 30.4152 110.991 30.4152C110.205 30.408 109.541 30.6367 109.005 31.1012Z" fill="white"/>
<path d="M132.966 25.9049C133.845 26.2979 134.517 26.8553 134.989 27.5843C135.46 28.3132 135.689 29.1779 135.689 30.1856C135.689 31.1789 135.453 32.0365 134.989 32.7726C134.517 33.5087 133.845 34.0732 132.966 34.4663C132.087 34.8593 131.051 35.0523 129.865 35.0523H126.778V39.0043H124.233V25.3188H129.865C131.058 25.3188 132.087 25.5189 132.966 25.9049ZM132.273 32.2009C132.845 31.7292 133.131 31.0574 133.131 30.1856C133.131 29.3137 132.845 28.6419 132.273 28.1703C131.701 27.6986 130.858 27.4699 129.75 27.4699H126.778V32.9012H129.75C130.858 32.9084 131.701 32.6725 132.273 32.2009Z" fill="white"/>
<path d="M138.198 24.505H140.642V39.0123H138.198V24.505Z" fill="white"/>
<path d="M151.362 29.5576C152.176 30.2937 152.584 31.4085 152.584 32.8878V39.0052H150.275V37.7331C149.975 38.1905 149.546 38.5407 148.996 38.7765C148.439 39.0195 147.774 39.141 146.995 39.141C146.216 39.141 145.53 39.0052 144.944 38.7408C144.358 38.4763 143.908 38.1047 143.586 37.6259C143.265 37.1471 143.107 36.6111 143.107 36.0108C143.107 35.0746 143.458 34.3171 144.151 33.7526C144.851 33.188 145.945 32.9021 147.445 32.9021H150.147V32.7449C150.147 32.016 149.925 31.4514 149.489 31.0655C149.053 30.6724 148.403 30.4795 147.545 30.4795C146.959 30.4795 146.38 30.5724 145.816 30.751C145.251 30.9369 144.773 31.187 144.379 31.5157L143.422 29.7363C143.972 29.3218 144.63 29.0002 145.394 28.7786C146.166 28.5571 146.981 28.4427 147.838 28.4427C149.375 28.4499 150.547 28.8215 151.362 29.5576ZM149.139 36.947C149.618 36.6683 149.954 36.2681 150.147 35.7464V34.5315H147.624C146.216 34.5315 145.516 34.996 145.516 35.9179C145.516 36.361 145.694 36.7112 146.045 36.9756C146.395 37.24 146.888 37.3686 147.51 37.3686C148.117 37.3615 148.66 37.2257 149.139 36.947Z" fill="white"/>
<path d="M165.29 28.5699L160.401 39.847C159.944 40.9832 159.394 41.7765 158.736 42.241C158.086 42.7055 157.293 42.9342 156.371 42.9342C155.849 42.9342 155.335 42.8485 154.827 42.677C154.32 42.5054 153.905 42.2696 153.577 41.9766L154.556 40.1757C154.791 40.3972 155.07 40.5759 155.385 40.7045C155.706 40.8332 156.028 40.8975 156.349 40.8975C156.778 40.8975 157.135 40.7831 157.414 40.5616C157.693 40.3401 157.95 39.9685 158.186 39.4468L158.365 39.0394L153.812 28.5627H156.356L159.644 36.288L162.946 28.5627H165.29V28.5699Z" fill="white"/>
<path d="M41.4847 25.8805L34.9171 22.0929L29.5144 27.3098L34.4526 32.0836L41.4847 28.0244C41.8706 27.8029 42.1065 27.4027 42.1065 26.9525C42.1065 26.5022 41.8706 26.102 41.4847 25.8805Z" fill="white"/>
<path d="M33.803 21.4448L26.5708 17.2713L10.7343 9.15295L28.629 26.4545L33.803 21.4448Z" fill="white"/>
<path d="M10.9912 45.2169L26.5991 36.6198L33.3381 32.7321L28.6286 28.1798L10.9912 45.2169Z" fill="white"/>
<path d="M9.67613 9.85327L9.65469 44.785L27.7352 27.312L9.67613 9.85327Z" fill="white"/>
</g>
<defs>
<clipPath id="clip0_587_24987">
<rect width="172.415" height="52.4334" fill="white" transform="translate(0 0.337158)"/>
</clipPath>
</defs>
</svg>
