<svg width="358" height="208" viewBox="0 0 358 208" fill="none" xmlns="http://www.w3.org/2000/svg">
<g clip-path="url(#clip0_678_41387)">
<rect width="358" height="208" rx="10.4145" fill="black"/>
<rect width="358" height="208.291" fill="black"/>
<circle cx="294.41" cy="200.583" r="106.749" transform="rotate(45 294.41 200.583)" fill="#2C91FF"/>
<g style="mix-blend-mode:lighten">
<circle cx="287.966" cy="37.6501" r="106.749" transform="rotate(45 287.966 37.6501)" fill="#002994"/>
</g>
<path d="M27.2615 172.243H28.4945V179.522C28.4945 180.172 28.3752 180.723 28.1365 181.177C27.8979 181.631 27.5615 181.976 27.1273 182.212C26.6931 182.447 26.181 182.564 25.5911 182.564C25.0343 182.564 24.5388 182.463 24.1046 182.261C23.6704 182.056 23.329 181.764 23.0804 181.386C22.8319 181.008 22.7076 180.559 22.7076 180.039H23.9206C23.9206 180.327 23.9919 180.579 24.1344 180.795C24.2802 181.007 24.4791 181.172 24.731 181.292C24.9829 181.411 25.2696 181.471 25.5911 181.471C25.9457 181.471 26.2473 181.396 26.4959 181.247C26.7445 181.098 26.9334 180.879 27.0627 180.591C27.1953 180.299 27.2615 179.943 27.2615 179.522V172.243ZM39.5563 177.334C39.5563 178.408 39.3624 179.336 38.9746 180.118C38.5868 180.901 38.0549 181.504 37.3787 181.928C36.7026 182.352 35.9303 182.564 35.062 182.564C34.1936 182.564 33.4213 182.352 32.7452 181.928C32.0691 181.504 31.5371 180.901 31.1493 180.118C30.7615 179.336 30.5676 178.408 30.5676 177.334C30.5676 176.261 30.7615 175.332 31.1493 174.55C31.5371 173.768 32.0691 173.165 32.7452 172.741C33.4213 172.316 34.1936 172.104 35.062 172.104C35.9303 172.104 36.7026 172.316 37.3787 172.741C38.0549 173.165 38.5868 173.768 38.9746 174.55C39.3624 175.332 39.5563 176.261 39.5563 177.334ZM38.3631 177.334C38.3631 176.453 38.2156 175.709 37.9206 175.102C37.629 174.496 37.2329 174.037 36.7324 173.725C36.2353 173.413 35.6784 173.258 35.062 173.258C34.4455 173.258 33.887 173.413 33.3865 173.725C32.8894 174.037 32.4933 174.496 32.1983 175.102C31.9067 175.709 31.7608 176.453 31.7608 177.334C31.7608 178.216 31.9067 178.96 32.1983 179.567C32.4933 180.173 32.8894 180.632 33.3865 180.944C33.887 181.255 34.4455 181.411 35.062 181.411C35.6784 181.411 36.2353 181.255 36.7324 180.944C37.2329 180.632 37.629 180.173 37.9206 179.567C38.2156 178.96 38.3631 178.216 38.3631 177.334ZM41.6294 182.425V172.243H42.8624V176.778H48.2914V172.243H49.5243V182.425H48.2914V177.871H42.8624V182.425H41.6294ZM60.0666 172.243V182.425H58.8734L53.3251 174.431H53.2257V182.425H51.9927V172.243H53.1859L58.7541 180.258H58.8535V172.243H60.0666ZM66.8888 182.425H65.5962L69.3349 172.243H70.6076L74.3462 182.425H73.0536L70.011 173.854H69.9315L66.8888 182.425ZM67.3661 178.448H72.5763V179.542H67.3661V178.448ZM75.9322 182.425V172.243H79.3725C80.1713 172.243 80.8242 172.388 81.3313 172.676C81.8417 172.961 82.2196 173.347 82.4648 173.834C82.7101 174.322 82.8327 174.865 82.8327 175.465C82.8327 176.065 82.7101 176.61 82.4648 177.101C82.2229 177.591 81.8484 177.982 81.3413 178.274C80.8342 178.562 80.1845 178.707 79.3924 178.707H76.9265V177.613H79.3526C79.8995 177.613 80.3387 177.518 80.6701 177.329C81.0015 177.14 81.2418 176.885 81.391 176.564C81.5434 176.239 81.6197 175.873 81.6197 175.465C81.6197 175.057 81.5434 174.693 81.391 174.371C81.2418 174.05 80.9999 173.798 80.6651 173.616C80.3304 173.43 79.8862 173.337 79.3327 173.337H77.1651V182.425H75.9322ZM84.8189 182.425V172.243H88.2592C89.058 172.243 89.7109 172.388 90.218 172.676C90.7285 172.961 91.1063 173.347 91.3516 173.834C91.5968 174.322 91.7195 174.865 91.7195 175.465C91.7195 176.065 91.5968 176.61 91.3516 177.101C91.1096 177.591 90.7351 177.982 90.228 178.274C89.7209 178.562 89.0713 178.707 88.2791 178.707H85.8132V177.613H88.2393C88.7862 177.613 89.2254 177.518 89.5568 177.329C89.8883 177.14 90.1286 176.885 90.2777 176.564C90.4302 176.239 90.5064 175.873 90.5064 175.465C90.5064 175.057 90.4302 174.693 90.2777 174.371C90.1286 174.05 89.8866 173.798 89.5518 173.616C89.2171 173.43 88.773 173.337 88.2195 173.337H86.0518V182.425H84.8189ZM93.7056 182.425V172.243H94.9386V181.332H99.6715V182.425H93.7056ZM101.581 182.425V172.243H107.725V173.337H102.814V176.778H107.407V177.871H102.814V181.332H107.805V182.425H101.581ZM115.516 174.789C115.456 174.285 115.214 173.894 114.79 173.616C114.366 173.337 113.846 173.198 113.229 173.198C112.778 173.198 112.384 173.271 112.046 173.417C111.711 173.563 111.449 173.763 111.26 174.018C111.075 174.274 110.982 174.564 110.982 174.888C110.982 175.16 111.047 175.394 111.176 175.589C111.308 175.782 111.477 175.942 111.683 176.072C111.888 176.198 112.104 176.302 112.329 176.385C112.555 176.464 112.762 176.529 112.951 176.579L113.985 176.857C114.25 176.927 114.545 177.023 114.87 177.145C115.198 177.268 115.511 177.435 115.809 177.648C116.111 177.856 116.359 178.125 116.555 178.453C116.751 178.781 116.848 179.184 116.848 179.661C116.848 180.211 116.704 180.708 116.416 181.153C116.131 181.597 115.713 181.95 115.163 182.212C114.616 182.473 113.952 182.604 113.169 182.604C112.44 182.604 111.809 182.487 111.275 182.251C110.745 182.016 110.327 181.688 110.022 181.267C109.721 180.846 109.55 180.357 109.51 179.8H110.783C110.816 180.185 110.945 180.503 111.171 180.755C111.4 181.003 111.688 181.189 112.036 181.312C112.387 181.431 112.765 181.491 113.169 181.491C113.64 181.491 114.063 181.414 114.437 181.262C114.812 181.106 115.108 180.891 115.327 180.616C115.546 180.337 115.655 180.012 115.655 179.641C115.655 179.303 115.561 179.028 115.372 178.816C115.183 178.604 114.934 178.431 114.626 178.299C114.318 178.166 113.985 178.05 113.627 177.951L112.374 177.593C111.578 177.364 110.949 177.038 110.485 176.614C110.021 176.189 109.789 175.634 109.789 174.948C109.789 174.378 109.943 173.881 110.251 173.457C110.563 173.029 110.98 172.698 111.504 172.462C112.031 172.224 112.619 172.104 113.269 172.104C113.925 172.104 114.508 172.222 115.019 172.457C115.529 172.689 115.934 173.007 116.232 173.412C116.533 173.816 116.693 174.275 116.709 174.789H115.516ZM118.876 182.425V172.243H125.02V173.337H120.108V176.778H124.702V177.871H120.108V181.332H125.1V182.425H118.876ZM127.243 182.425V172.243H133.388V173.337H128.476V176.778H133.069V177.871H128.476V181.332H133.467V182.425H127.243ZM138.752 182.425H135.61V172.243H138.891C139.879 172.243 140.724 172.447 141.427 172.855C142.129 173.259 142.668 173.841 143.042 174.6C143.417 175.356 143.604 176.261 143.604 177.314C143.604 178.375 143.415 179.288 143.037 180.054C142.66 180.816 142.109 181.403 141.387 181.814C140.664 182.221 139.786 182.425 138.752 182.425ZM136.843 181.332H138.672C139.514 181.332 140.212 181.169 140.765 180.844C141.319 180.52 141.732 180.057 142.003 179.457C142.275 178.857 142.411 178.143 142.411 177.314C142.411 176.493 142.277 175.785 142.008 175.192C141.74 174.595 141.339 174.138 140.805 173.819C140.272 173.498 139.607 173.337 138.812 173.337H136.843V181.332Z" fill="white"/>
<path d="M187.881 177.971L187.96 175.783L186.111 176.957L185.634 176.121L187.583 175.107L185.634 174.093L186.111 173.258L187.96 174.431L187.881 172.243H188.835L188.756 174.431L190.605 173.258L191.083 174.093L189.134 175.107L191.083 176.121L190.605 176.957L188.756 175.783L188.835 177.971H187.881ZM194.881 177.971L194.96 175.783L193.111 176.957L192.634 176.121L194.583 175.107L192.634 174.093L193.111 173.258L194.96 174.431L194.881 172.243H195.835L195.756 174.431L197.605 173.258L198.083 174.093L196.134 175.107L198.083 176.121L197.605 176.957L195.756 175.783L195.835 177.971H194.881ZM201.881 177.971L201.96 175.783L200.111 176.957L199.634 176.121L201.583 175.107L199.634 174.093L200.111 173.258L201.96 174.431L201.881 172.243H202.835L202.756 174.431L204.605 173.258L205.083 174.093L203.134 175.107L205.083 176.121L204.605 176.957L202.756 175.783L202.835 177.971H201.881Z" fill="white"/>
<path d="M304.032 185.496H299.519L302.342 168.017H306.855L304.032 185.496Z" fill="white"/>
<path d="M320.392 168.444C319.501 168.091 318.09 167.7 316.344 167.7C311.887 167.7 308.749 170.08 308.73 173.483C308.693 175.993 310.977 177.388 312.685 178.225C314.431 179.08 315.024 179.638 315.024 180.401C315.006 181.572 313.613 182.111 312.314 182.111C310.512 182.111 309.547 181.833 308.08 181.182L307.486 180.902L306.854 184.826C307.912 185.309 309.863 185.738 311.887 185.756C316.622 185.756 319.705 183.413 319.742 179.787C319.76 177.797 318.554 176.273 315.954 175.027C314.375 174.227 313.409 173.688 313.409 172.87C313.427 172.126 314.226 171.364 316.008 171.364C317.475 171.326 318.553 171.68 319.37 172.033L319.778 172.219L320.392 168.444Z" fill="white"/>
<path d="M326.39 179.304C326.762 178.3 328.192 174.413 328.192 174.413C328.173 174.451 328.563 173.391 328.785 172.74L329.101 174.246C329.101 174.246 329.955 178.43 330.141 179.304C329.436 179.304 327.281 179.304 326.39 179.304ZM331.961 168.017H328.47C327.393 168.017 326.576 168.333 326.111 169.467L319.408 185.496H324.143C324.143 185.496 324.923 183.338 325.09 182.874C325.61 182.874 330.216 182.874 330.884 182.874C331.014 183.487 331.423 185.496 331.423 185.496H335.601L331.961 168.017Z" fill="white"/>
<path d="M295.75 168.017L291.33 179.936L290.847 177.519C290.03 174.729 287.467 171.699 284.608 170.192L288.656 185.477H293.428L300.522 168.017H295.75Z" fill="white"/>
<path d="M287.226 168.017H279.965L279.891 168.37C285.555 169.821 289.306 173.317 290.847 177.519L289.269 169.486C289.009 168.37 288.21 168.054 287.226 168.017Z" fill="white"/>
<path d="M25.1536 105.069L25.2331 102.881L23.3837 104.055L22.9064 103.219L24.8553 102.205L22.9064 101.191L23.3837 100.356L25.2331 101.529L25.1536 99.3416H26.1081L26.0286 101.529L27.878 100.356L28.3553 101.191L26.4064 102.205L28.3553 103.219L27.878 104.055L26.0286 102.881L26.1081 105.069H25.1536ZM32.1536 105.069L32.2331 102.881L30.3837 104.055L29.9064 103.219L31.8553 102.205L29.9064 101.191L30.3837 100.356L32.2331 101.529L32.1536 99.3416H33.1081L33.0286 101.529L34.878 100.356L35.3553 101.191L33.4064 102.205L35.3553 103.219L34.878 104.055L33.0286 102.881L33.1081 105.069H32.1536ZM39.1536 105.069L39.2331 102.881L37.3837 104.055L36.9064 103.219L38.8553 102.205L36.9064 101.191L37.3837 100.356L39.2331 101.529L39.1536 99.3416H40.1081L40.0286 101.529L41.878 100.356L42.3553 101.191L40.4064 102.205L42.3553 103.219L41.878 104.055L40.0286 102.881L40.1081 105.069H39.1536ZM46.1536 105.069L46.2331 102.881L44.3837 104.055L43.9064 103.219L45.8553 102.205L43.9064 101.191L44.3837 100.356L46.2331 101.529L46.1536 99.3416H47.1081L47.0286 101.529L48.878 100.356L49.3553 101.191L47.4064 102.205L49.3553 103.219L48.878 104.055L47.0286 102.881L47.1081 105.069H46.1536ZM57.0911 105.069L57.1706 102.881L55.3212 104.055L54.8439 103.219L56.7928 102.205L54.8439 101.191L55.3212 100.356L57.1706 101.529L57.0911 99.3416H58.0456L57.9661 101.529L59.8155 100.356L60.2928 101.191L58.3439 102.205L60.2928 103.219L59.8155 104.055L57.9661 102.881L58.0456 105.069H57.0911ZM64.0911 105.069L64.1706 102.881L62.3212 104.055L61.8439 103.219L63.7928 102.205L61.8439 101.191L62.3212 100.356L64.1706 101.529L64.0911 99.3416H65.0456L64.9661 101.529L66.8155 100.356L67.2928 101.191L65.3439 102.205L67.2928 103.219L66.8155 104.055L64.9661 102.881L65.0456 105.069H64.0911ZM71.0911 105.069L71.1706 102.881L69.3212 104.055L68.8439 103.219L70.7928 102.205L68.8439 101.191L69.3212 100.356L71.1706 101.529L71.0911 99.3416H72.0456L71.9661 101.529L73.8155 100.356L74.2928 101.191L72.3439 102.205L74.2928 103.219L73.8155 104.055L71.9661 102.881L72.0456 105.069H71.0911ZM78.0911 105.069L78.1706 102.881L76.3212 104.055L75.8439 103.219L77.7928 102.205L75.8439 101.191L76.3212 100.356L78.1706 101.529L78.0911 99.3416H79.0456L78.9661 101.529L80.8155 100.356L81.2928 101.191L79.3439 102.205L81.2928 103.219L80.8155 104.055L78.9661 102.881L79.0456 105.069H78.0911ZM89.0286 105.069L89.1081 102.881L87.2587 104.055L86.7814 103.219L88.7303 102.205L86.7814 101.191L87.2587 100.356L89.1081 101.529L89.0286 99.3416H89.9831L89.9036 101.529L91.753 100.356L92.2303 101.191L90.2814 102.205L92.2303 103.219L91.753 104.055L89.9036 102.881L89.9831 105.069H89.0286ZM96.0286 105.069L96.1081 102.881L94.2587 104.055L93.7814 103.219L95.7303 102.205L93.7814 101.191L94.2587 100.356L96.1081 101.529L96.0286 99.3416H96.9831L96.9036 101.529L98.753 100.356L99.2303 101.191L97.2814 102.205L99.2303 103.219L98.753 104.055L96.9036 102.881L96.9831 105.069H96.0286ZM103.029 105.069L103.108 102.881L101.259 104.055L100.781 103.219L102.73 102.205L100.781 101.191L101.259 100.356L103.108 101.529L103.029 99.3416H103.983L103.904 101.529L105.753 100.356L106.23 101.191L104.281 102.205L106.23 103.219L105.753 104.055L103.904 102.881L103.983 105.069H103.029ZM110.029 105.069L110.108 102.881L108.259 104.055L107.781 103.219L109.73 102.205L107.781 101.191L108.259 100.356L110.108 101.529L110.029 99.3416H110.983L110.904 101.529L112.753 100.356L113.23 101.191L111.281 102.205L113.23 103.219L112.753 104.055L110.904 102.881L110.983 105.069H110.029ZM122.935 109.523V108.629L126.296 104.95C126.69 104.519 127.015 104.144 127.27 103.826C127.525 103.504 127.714 103.203 127.837 102.921C127.963 102.636 128.026 102.338 128.026 102.026C128.026 101.668 127.94 101.358 127.767 101.097C127.598 100.835 127.366 100.633 127.071 100.49C126.776 100.348 126.445 100.276 126.077 100.276C125.686 100.276 125.344 100.357 125.053 100.52C124.764 100.679 124.541 100.903 124.382 101.191C124.226 101.479 124.148 101.817 124.148 102.205H122.975C122.975 101.609 123.112 101.085 123.387 100.634C123.662 100.183 124.037 99.8321 124.511 99.5803C124.988 99.3284 125.523 99.2024 126.117 99.2024C126.713 99.2024 127.242 99.3284 127.703 99.5803C128.163 99.8321 128.525 100.172 128.786 100.599C129.048 101.027 129.179 101.503 129.179 102.026C129.179 102.401 129.111 102.767 128.975 103.125C128.843 103.48 128.611 103.876 128.279 104.313C127.951 104.747 127.495 105.278 126.912 105.904L124.625 108.35V108.43H129.358V109.523H122.935ZM134.991 99.3416V109.523H133.758V100.634H133.698L131.213 102.285V101.032L133.758 99.3416H134.991ZM141.181 109.663C140.498 109.663 139.895 109.542 139.371 109.3C138.851 109.054 138.445 108.718 138.153 108.29C137.861 107.86 137.717 107.369 137.72 106.819C137.717 106.388 137.802 105.99 137.974 105.626C138.146 105.258 138.382 104.951 138.68 104.706C138.981 104.457 139.318 104.3 139.689 104.234V104.174C139.202 104.048 138.814 103.775 138.526 103.354C138.237 102.929 138.095 102.447 138.098 101.907C138.095 101.39 138.226 100.928 138.491 100.52C138.756 100.112 139.121 99.7907 139.585 99.5554C140.052 99.3201 140.584 99.2024 141.181 99.2024C141.771 99.2024 142.298 99.3201 142.762 99.5554C143.226 99.7907 143.59 100.112 143.855 100.52C144.124 100.928 144.26 101.39 144.263 101.907C144.26 102.447 144.112 102.929 143.82 103.354C143.532 103.775 143.149 104.048 142.672 104.174V104.234C143.04 104.3 143.371 104.457 143.666 104.706C143.961 104.951 144.197 105.258 144.372 105.626C144.548 105.99 144.637 106.388 144.641 106.819C144.637 107.369 144.488 107.86 144.193 108.29C143.902 108.718 143.496 109.054 142.975 109.3C142.458 109.542 141.86 109.663 141.181 109.663ZM141.181 108.569C141.641 108.569 142.039 108.494 142.374 108.345C142.709 108.196 142.967 107.986 143.149 107.714C143.332 107.442 143.424 107.124 143.428 106.759C143.424 106.375 143.325 106.035 143.129 105.74C142.934 105.445 142.667 105.213 142.329 105.044C141.994 104.875 141.611 104.79 141.181 104.79C140.746 104.79 140.359 104.875 140.017 105.044C139.679 105.213 139.412 105.445 139.217 105.74C139.025 106.035 138.93 106.375 138.933 106.759C138.93 107.124 139.018 107.442 139.197 107.714C139.379 107.986 139.639 108.196 139.977 108.345C140.316 108.494 140.717 108.569 141.181 108.569ZM141.181 103.737C141.545 103.737 141.868 103.664 142.15 103.518C142.435 103.372 142.659 103.168 142.821 102.906C142.984 102.644 143.066 102.338 143.07 101.987C143.066 101.642 142.985 101.342 142.826 101.087C142.667 100.828 142.447 100.629 142.165 100.49C141.883 100.348 141.555 100.276 141.181 100.276C140.799 100.276 140.466 100.348 140.181 100.49C139.896 100.629 139.676 100.828 139.52 101.087C139.364 101.342 139.288 101.642 139.291 101.987C139.288 102.338 139.366 102.644 139.525 102.906C139.687 103.168 139.911 103.372 140.196 103.518C140.481 103.664 140.809 103.737 141.181 103.737ZM149.987 109.663C149.33 109.663 148.745 109.55 148.232 109.325C147.721 109.099 147.315 108.786 147.013 108.385C146.715 107.981 146.553 107.512 146.526 106.978H147.779C147.806 107.306 147.918 107.589 148.117 107.828C148.316 108.063 148.576 108.246 148.898 108.375C149.219 108.504 149.576 108.569 149.967 108.569C150.404 108.569 150.792 108.493 151.13 108.34C151.468 108.188 151.733 107.976 151.925 107.704C152.118 107.432 152.214 107.117 152.214 106.759C152.214 106.385 152.121 106.055 151.935 105.77C151.75 105.482 151.478 105.256 151.12 105.094C150.762 104.931 150.325 104.85 149.808 104.85H148.992V103.756H149.808C150.212 103.756 150.567 103.683 150.871 103.538C151.18 103.392 151.42 103.186 151.592 102.921C151.768 102.656 151.856 102.344 151.856 101.987C151.856 101.642 151.78 101.342 151.627 101.087C151.475 100.831 151.259 100.633 150.981 100.49C150.706 100.348 150.381 100.276 150.006 100.276C149.655 100.276 149.324 100.341 149.012 100.47C148.704 100.596 148.452 100.78 148.256 101.022C148.061 101.261 147.955 101.549 147.938 101.887H146.745C146.765 101.353 146.926 100.886 147.227 100.485C147.529 100.081 147.923 99.7659 148.411 99.5405C148.901 99.3151 149.44 99.2024 150.026 99.2024C150.656 99.2024 151.196 99.33 151.647 99.5852C152.098 99.8371 152.444 100.17 152.686 100.585C152.928 100.999 153.049 101.446 153.049 101.927C153.049 102.5 152.898 102.989 152.597 103.393C152.298 103.798 151.892 104.078 151.379 104.234V104.313C152.022 104.419 152.524 104.693 152.885 105.134C153.246 105.571 153.427 106.113 153.427 106.759C153.427 107.313 153.276 107.81 152.974 108.251C152.676 108.688 152.268 109.033 151.751 109.285C151.234 109.537 150.646 109.663 149.987 109.663Z" fill="white"/>
</g>
<defs>
<clipPath id="clip0_678_41387">
<rect width="358" height="208" rx="10.4145" fill="white"/>
</clipPath>
</defs>
</svg>
