<svg width="124" height="124" viewBox="0 0 124 124" fill="none" xmlns="http://www.w3.org/2000/svg">
<rect width="124" height="124" rx="62" transform="matrix(-1 0 0 1 124 0)" fill="#007AFF"/>
<path d="M57.5664 47.2083H57.3593L57.2128 47.3548L53.2759 51.2917H45.6667H45.1667V51.7917V76.2917V76.7917H45.6667H78.3333H78.8333V76.2917V51.7917V51.2917H78.3333H70.7241L66.7872 47.3548L66.6408 47.2083H66.4337H57.5664ZM71.8548 48.0619L72.0012 48.2083H72.2083H80.375C81.2265 48.2083 81.9167 48.8986 81.9167 49.75V78.3333C81.9167 79.1848 81.2265 79.875 80.375 79.875H43.625C42.7736 79.875 42.0833 79.1848 42.0833 78.3333V49.75C42.0833 48.8986 42.7736 48.2083 43.625 48.2083H51.7917H51.9988L52.1452 48.0619L56.0821 44.125H67.9179L71.8548 48.0619ZM62 73.75C56.0744 73.75 51.2708 68.9465 51.2708 63.0208C51.2708 57.0953 56.0744 52.2917 62 52.2917C67.9256 52.2917 72.7292 57.0953 72.7292 63.0208C72.7292 68.9465 67.9256 73.75 62 73.75ZM62 70.6667C66.2227 70.6667 69.6458 67.2435 69.6458 63.0208C69.6458 58.7982 66.2227 55.375 62 55.375C57.7773 55.375 54.3542 58.7982 54.3542 63.0208C54.3542 67.2435 57.7773 70.6667 62 70.6667Z" fill="white" stroke="#007AFF"/>
</svg>
