<svg width="50" height="50" viewBox="0 0 50 50" fill="none" xmlns="http://www.w3.org/2000/svg">
<rect width="50" height="50" rx="25" transform="matrix(-1 0 0 1 50 0)" fill="#F2F0E0"/>
<path d="M22.87 24.1525C22.795 24.145 22.705 24.145 22.6225 24.1525C20.8375 24.0925 19.42 22.63 19.42 20.83C19.42 18.9925 20.905 17.5 22.75 17.5C24.5875 17.5 26.08 18.9925 26.08 20.83C26.0725 22.63 24.655 24.0925 22.87 24.1525Z" stroke="black" stroke-width="1.125" stroke-linecap="round" stroke-linejoin="round"/>
<path d="M28.3075 19C29.7625 19 30.9325 20.1775 30.9325 21.625C30.9325 23.0425 29.8075 24.1975 28.405 24.25C28.345 24.2425 28.2775 24.2425 28.21 24.25" stroke="black" stroke-width="1.125" stroke-linecap="round" stroke-linejoin="round"/>
<path d="M19.12 26.92C17.305 28.135 17.305 30.115 19.12 31.3225C21.1825 32.7025 24.565 32.7025 26.6275 31.3225C28.4425 30.1075 28.4425 28.1275 26.6275 26.92C24.5725 25.5475 21.19 25.5475 19.12 26.92Z" stroke="black" stroke-width="1.125" stroke-linecap="round" stroke-linejoin="round"/>
<path d="M29.755 31C30.295 30.8875 30.805 30.67 31.225 30.3475C32.395 29.47 32.395 28.0225 31.225 27.145C30.8125 26.83 30.31 26.62 29.7775 26.5" stroke="black" stroke-width="1.125" stroke-linecap="round" stroke-linejoin="round"/>
</svg>
