<svg width="204" height="204" viewBox="0 0 204 204" fill="none" xmlns="http://www.w3.org/2000/svg">
<path d="M8.86914 8.86963V17.7392V26.6088V35.4783V44.3479V53.2175V62.087V70.9566H17.7387H26.6083H35.4778H44.3474H53.217H62.0865H70.9561V62.087V53.2175V44.3479V35.4783V26.6088V17.7392V8.86963H62.0865H53.217H44.3474H35.4778H26.6083H17.7387H8.86914ZM79.8257 8.86963V17.7392V26.6088H88.6952V17.7392H97.5648V8.86963H88.6952H79.8257ZM97.5648 17.7392V26.6088H106.434V17.7392H97.5648ZM106.434 26.6088V35.4783H115.304H124.173V26.6088V17.7392V8.86963H115.304V17.7392V26.6088H106.434ZM106.434 35.4783H97.5648H88.6952H79.8257V44.3479H88.6952H97.5648V53.2175H88.6952V62.087H97.5648V70.9566H106.434V62.087H115.304V70.9566H106.434V79.8261H97.5648V88.6957H106.434H115.304V97.5653H124.173V88.6957V79.8261V70.9566V62.087V53.2175H115.304V44.3479H106.434V35.4783ZM115.304 97.5653H106.434V106.435H97.5648V115.304V124.174H106.434V133.044V141.913H97.5648H88.6952V133.044H97.5648V124.174H88.6952V115.304V106.435H79.8257V97.5653H88.6952V106.435H97.5648V97.5653V88.6957H88.6952H79.8257V79.8261H70.9561H62.0865H53.217V88.6957H44.3474V97.5653H35.4778V88.6957H44.3474V79.8261H35.4778H26.6083V88.6957H17.7387V97.5653V106.435V115.304H26.6083V106.435H35.4778H44.3474H53.217V97.5653H62.0865V88.6957H70.9561V97.5653H62.0865V106.435H70.9561V115.304H62.0865V124.174H70.9561H79.8257V133.044V141.913V150.783H88.6952V159.652H97.5648H106.434H115.304V168.522H106.434H97.5648H88.6952V159.652H79.8257V168.522V177.391H88.6952V186.261H79.8257V195.13H88.6952H97.5648V186.261H106.434V195.13H115.304H124.173H133.043H141.913V186.261H150.782V195.13H159.652H168.521H177.391V186.261H168.521H159.652V177.391H150.782V168.522H141.913V177.391H133.043H124.173V186.261H115.304V177.391H124.173V168.522V159.652V150.783H133.043V141.913H124.173H115.304V133.044H124.173V124.174V115.304V106.435H115.304V97.5653ZM141.913 168.522V159.652H133.043V168.522H141.913ZM159.652 177.391H168.521H177.391V168.522H168.521H159.652V177.391ZM177.391 168.522H186.26V159.652V150.783V141.913V133.044H177.391H168.521H159.652V124.174H150.782V133.044H141.913V141.913V150.783H150.782V141.913H159.652V150.783V159.652H168.521H177.391V168.522ZM150.782 124.174V115.304H141.913H133.043V124.174H141.913H150.782ZM159.652 124.174H168.521V115.304V106.435V97.5653H177.391V106.435H186.26V115.304H195.13V106.435V97.5653H186.26V88.6957H195.13V79.8261H186.26H177.391V88.6957H168.521V79.8261H159.652V88.6957H150.782V97.5653H159.652V106.435V115.304V124.174ZM150.782 97.5653H141.913V106.435H150.782V97.5653ZM186.26 115.304H177.391V124.174H186.26V115.304ZM62.0865 115.304V106.435H53.217V115.304H62.0865ZM53.217 115.304H44.3474H35.4778H26.6083V124.174H35.4778H44.3474H53.217V115.304ZM17.7387 115.304H8.86914V124.174H17.7387V115.304ZM17.7387 88.6957V79.8261H8.86914V88.6957H17.7387ZM79.8257 79.8261H88.6952V70.9566V62.087H79.8257V70.9566V79.8261ZM133.043 8.86963V17.7392V26.6088V35.4783V44.3479V53.2175V62.087V70.9566H141.913H150.782H159.652H168.521H177.391H186.26H195.13V62.087V53.2175V44.3479V35.4783V26.6088V17.7392V8.86963H186.26H177.391H168.521H159.652H150.782H141.913H133.043ZM17.7387 17.7392H26.6083H35.4778H44.3474H53.217H62.0865V26.6088V35.4783V44.3479V53.2175V62.087H53.217H44.3474H35.4778H26.6083H17.7387V53.2175V44.3479V35.4783V26.6088V17.7392ZM141.913 17.7392H150.782H159.652H168.521H177.391H186.26V26.6088V35.4783V44.3479V53.2175V62.087H177.391H168.521H159.652H150.782H141.913V53.2175V44.3479V35.4783V26.6088V17.7392ZM26.6083 26.6088V35.4783V44.3479V53.2175H35.4778H44.3474H53.217V44.3479V35.4783V26.6088H44.3474H35.4778H26.6083ZM150.782 26.6088V35.4783V44.3479V53.2175H159.652H168.521H177.391V44.3479V35.4783V26.6088H168.521H159.652H150.782ZM133.043 79.8261V88.6957H141.913V79.8261H133.043ZM8.86914 133.044V141.913V150.783V159.652V168.522V177.391V186.261V195.13H17.7387H26.6083H35.4778H44.3474H53.217H62.0865H70.9561V186.261V177.391V168.522V159.652V150.783V141.913V133.044H62.0865H53.217H44.3474H35.4778H26.6083H17.7387H8.86914ZM17.7387 141.913H26.6083H35.4778H44.3474H53.217H62.0865V150.783V159.652V168.522V177.391V186.261H53.217H44.3474H35.4778H26.6083H17.7387V177.391V168.522V159.652V150.783V141.913ZM26.6083 150.783V159.652V168.522V177.391H35.4778H44.3474H53.217V168.522V159.652V150.783H44.3474H35.4778H26.6083ZM186.26 177.391V186.261H195.13V177.391H186.26Z" fill="black"/>
</svg>
