<svg width="49" height="49" viewBox="0 0 49 49" fill="none" xmlns="http://www.w3.org/2000/svg">
<path d="M13.9029 47.5048L36.7685 39.9083C52.1388 34.7679 52.1388 26.3864 36.7685 21.2714L29.9822 19.0178L27.7286 12.2316C22.6136 -3.13874 14.2068 -3.13874 9.09178 12.2316L1.46993 35.0718C-1.92319 45.3271 3.6476 50.9232 13.9029 47.5048ZM13.0926 33.8817L22.7149 24.2088C23.0947 23.8289 23.5758 23.6517 24.0569 23.6517C24.5381 23.6517 25.0192 23.8289 25.399 24.2088C26.1333 24.9431 26.1333 26.1585 25.399 26.8929L15.7767 36.5658C15.0424 37.3001 13.827 37.3001 13.0926 36.5658C12.3583 35.8315 12.3583 34.616 13.0926 33.8817Z" fill="black"/>
</svg>
