<svg width="49" height="49" viewBox="0 0 49 49" fill="none" xmlns="http://www.w3.org/2000/svg">
<path d="M34.8693 1.4952L12.0038 9.09173C-3.36653 14.2321 -3.36653 22.6136 12.0038 27.7286L18.79 29.9822L21.0436 36.7684C26.1586 52.1387 34.5655 52.1387 39.6805 36.7684L47.3023 13.9282C50.6954 3.67288 45.1246 -1.92323 34.8693 1.4952ZM35.6796 15.1183L26.0574 24.7912C25.6775 25.1711 25.1964 25.3483 24.7153 25.3483C24.2342 25.3483 23.7531 25.1711 23.3733 24.7912C22.6389 24.0569 22.6389 22.8415 23.3733 22.1071L32.9955 12.4342C33.7299 11.6999 34.9453 11.6999 35.6796 12.4342C36.414 13.1685 36.414 14.384 35.6796 15.1183Z" fill="black"/>
</svg>
