<svg width="51" height="51" viewBox="0 0 51 51" fill="none" xmlns="http://www.w3.org/2000/svg">
<path d="M35.9944 0.0641479H14.7756C5.55877 0.0641479 0.0641479 5.55877 0.0641479 14.7756V35.9691C0.0641479 45.2112 5.55877 50.7058 14.7756 50.7058H35.9691C45.1859 50.7058 50.6805 45.2112 50.6805 35.9944V14.7756C50.7058 5.55877 45.2112 0.0641479 35.9944 0.0641479ZM40.1977 30.7024C40.0964 30.9302 39.9698 31.1328 39.7925 31.3101L32.095 39.0076C31.7152 39.3874 31.2341 39.5647 30.753 39.5647C30.2719 39.5647 29.7908 39.3874 29.411 39.0076C28.6767 38.2733 28.6767 37.0579 29.411 36.3236L33.8675 31.8671H12.3448C11.3066 31.8671 10.4457 31.0062 10.4457 29.9681C10.4457 28.9299 11.3066 28.069 12.3448 28.069H38.4505C38.7037 28.069 38.9316 28.1196 39.1848 28.2209C39.6406 28.4235 40.0204 28.778 40.223 29.2591C40.3749 29.7148 40.3749 30.2466 40.1977 30.7024ZM38.4252 22.6757H12.3448C12.0915 22.6757 11.8637 22.625 11.6104 22.5237C11.1547 22.3212 10.7749 21.9667 10.5723 21.4856C10.3697 21.0298 10.3697 20.4981 10.5723 20.0423C10.6736 19.8144 10.8002 19.6118 10.9774 19.4346L18.675 11.7371C19.4093 11.0027 20.6247 11.0027 21.359 11.7371C22.0933 12.4714 22.0933 13.6868 21.359 14.4211L16.9278 18.8775H38.4505C39.4887 18.8775 40.3496 19.7384 40.3496 20.7766C40.3496 21.8147 39.4887 22.6757 38.4252 22.6757Z" fill="black"/>
</svg>
