<svg width="65" height="65" viewBox="0 0 65 65" fill="none" xmlns="http://www.w3.org/2000/svg">
<rect width="65" height="65" rx="13" transform="matrix(-1 0 0 1 65 0)" fill="#EEDDFC"/>
<path d="M42.5 39.5V42.5H22.5V39.5C22.5 38.95 22.95 38.5 23.5 38.5H41.5C42.05 38.5 42.5 38.95 42.5 39.5Z" fill="black" stroke="black" stroke-width="1.5" stroke-miterlimit="10" stroke-linecap="round" stroke-linejoin="round"/>
<path d="M27.5 31.5H25.5V38.5H27.5V31.5Z" fill="black"/>
<path d="M31.5 31.5H29.5V38.5H31.5V31.5Z" fill="black"/>
<path d="M35.5 31.5H33.5V38.5H35.5V31.5Z" fill="black"/>
<path d="M39.5 31.5H37.5V38.5H39.5V31.5Z" fill="black"/>
<path d="M43.5 43.25H21.5C21.09 43.25 20.75 42.91 20.75 42.5C20.75 42.09 21.09 41.75 21.5 41.75H43.5C43.91 41.75 44.25 42.09 44.25 42.5C44.25 42.91 43.91 43.25 43.5 43.25Z" fill="black"/>
<path d="M41.87 26.2498L32.87 22.6498C32.67 22.5698 32.33 22.5698 32.13 22.6498L23.13 26.2498C22.78 26.3898 22.5 26.7998 22.5 27.1798V30.4998C22.5 31.0498 22.95 31.4998 23.5 31.4998H41.5C42.05 31.4998 42.5 31.0498 42.5 30.4998V27.1798C42.5 26.7998 42.22 26.3898 41.87 26.2498ZM32.5 28.9998C31.67 28.9998 31 28.3298 31 27.4998C31 26.6698 31.67 25.9998 32.5 25.9998C33.33 25.9998 34 26.6698 34 27.4998C34 28.3298 33.33 28.9998 32.5 28.9998Z" fill="black"/>
</svg>
