<svg width="44" height="51" viewBox="0 0 44 51" fill="none" xmlns="http://www.w3.org/2000/svg">
<path d="M31.9563 0.0641479H12.8137C3.24245 0.0641479 0.862292 2.62155 0.862292 12.8258V41.3371C0.862292 48.0724 4.55913 49.6677 9.04092 44.8567L9.06624 44.8314C11.1425 42.6285 14.3077 42.8057 16.1054 45.2112L18.6628 48.6295C20.7138 51.3388 24.0309 51.3388 26.0818 48.6295L28.6392 45.2112C30.4623 42.7804 33.6275 42.6032 35.7038 44.8314C40.2109 49.6423 43.8824 48.0471 43.8824 41.3118V12.8258C43.9077 2.62155 41.5275 0.0641479 31.9563 0.0641479ZM29.3482 22.2199H15.4218C14.3836 22.2199 13.5227 21.359 13.5227 20.3208C13.5227 19.2827 14.3836 18.4218 15.4218 18.4218H29.3482C30.3864 18.4218 31.2473 19.2827 31.2473 20.3208C31.2473 21.359 30.3864 22.2199 29.3482 22.2199Z" fill="black"/>
</svg>
