<svg width="65" height="65" viewBox="0 0 65 65" fill="none" xmlns="http://www.w3.org/2000/svg">
<rect width="65" height="65" rx="13" transform="matrix(-1 0 0 1 65 0)" fill="#F2F0E0"/>
<path d="M37.6111 38.8889V37.6111H33.7778V33.7778H37.6111V36.3333H40.1667V38.8889H38.8889V41.4444H36.3333V44H33.7778V40.1667H36.3333V38.8889H37.6111ZM44 44H38.8889V41.4444H41.4444V38.8889H44V44ZM21 21H31.2222V31.2222H21V21ZM23.5556 23.5556V28.6667H28.6667V23.5556H23.5556ZM33.7778 21H44V31.2222H33.7778V21ZM36.3333 23.5556V28.6667H41.4444V23.5556H36.3333ZM21 33.7778H31.2222V44H21V33.7778ZM23.5556 36.3333V41.4444H28.6667V36.3333H23.5556ZM40.1667 33.7778H44V36.3333H40.1667V33.7778ZM24.8333 24.8333H27.3889V27.3889H24.8333V24.8333ZM24.8333 37.6111H27.3889V40.1667H24.8333V37.6111ZM37.6111 24.8333H40.1667V27.3889H37.6111V24.8333Z" fill="black"/>
</svg>
